<svg xmlns="http://www.w3.org/2000/svg" viewBox="0 0 500 500"><g id="freepik--background-simple--inject-34"><path d="M331,110.69c21-.18,39.66,14.86,46.6,34.27,10.07,28.17-8,52.6-22.52,75.18-10.88,17-20.45,36.07-19.09,56.77,1.37,21,12.78,39.74,14.86,60.62,1.65,16.56-6,33.75-18.58,44.44-17.8,15.13-44.53,16.43-64.3,4.33-21.73-13.3-31.76-38.44-51.23-54.21-23-18.65-53.24-21.39-80.49-30.27-24.5-8-46-29.81-46.5-56.7-.42-24.57,15.94-45.46,36.88-56.7,23.36-12.53,50-8.78,75.35-8.26,11.33.23,23.78-.47,34.68-4.95,12.12-5,20.14-15.06,28.32-24.8,10.49-12.48,23.08-24.91,37.72-32.43A64.09,64.09,0,0,1,331,110.69Z" style="fill:#FF725E"></path><path d="M331,110.69c21-.18,39.66,14.86,46.6,34.27,10.07,28.17-8,52.6-22.52,75.18-10.88,17-20.45,36.07-19.09,56.77,1.37,21,12.78,39.74,14.86,60.62,1.65,16.56-6,33.75-18.58,44.44-17.8,15.13-44.53,16.43-64.3,4.33-21.73-13.3-31.76-38.44-51.23-54.21-23-18.65-53.24-21.39-80.49-30.27-24.5-8-46-29.81-46.5-56.7-.42-24.57,15.94-45.46,36.88-56.7,23.36-12.53,50-8.78,75.35-8.26,11.33.23,23.78-.47,34.68-4.95,12.12-5,20.14-15.06,28.32-24.8,10.49-12.48,23.08-24.91,37.72-32.43A64.09,64.09,0,0,1,331,110.69Z" style="fill:#fff;opacity:0.9;isolation:isolate"></path></g><g id="freepik--Shadow--inject-34"><ellipse id="freepik--path--inject-34" cx="250" cy="416.24" rx="193.89" ry="11.32" style="fill:#f5f5f5"></ellipse></g><g id="freepik--Mirror--inject-34"><polygon points="393.89 414.92 350.86 414.92 350.86 410.92 389.28 410.92 356.28 180.07 360.24 179.5 393.89 414.92" style="fill:#FF725E"></polygon><g style="opacity:0.2"><polygon points="393.89 414.92 350.86 414.92 350.86 410.92 389.28 410.92 356.28 180.07 360.24 179.5 393.89 414.92" style="fill:#f5f5f5"></polygon></g><rect x="269.11" y="109.73" width="96.91" height="305.54" style="fill:#FF725E"></rect><rect x="269.13" y="109.73" width="96.91" height="305.54" style="fill:#fff;opacity:0.43"></rect><rect x="270.71" y="116.59" width="91.23" height="291.5" style="fill:#fff;opacity:0.30000000000000004"></rect><rect x="272.31" y="120.15" width="87.99" height="284.7" style="fill:#e6e6e6"></rect><polygon points="305.1 182.81 298.2 191.43 290.8 200.68 290.61 208.63 308.27 193.07 305.1 182.81" style="fill:#e3887b"></polygon><polygon points="303.48 190.04 302.46 196.06 296.37 204.4 290.74 208.63 291.24 200.24 293.66 197.16 303.48 190.04" style="opacity:0.2"></polygon><path d="M318.25,167.68s2.5-12.5,15.37-10,6.88,20.07,4.25,25.6-3,10,.13,12.53c0,0-4.25,1.21-6.5-1.71,0,0,.12,2.71,1.62,3.83,0,0-12.94-4.62-9.66-19.75S318.25,167.68,318.25,167.68Z" style="fill:#263238"></path><path d="M304.34,219.87l25.18,1.36s1.26-13,3.34-19.93c.2-.67.42-1.36.65-2.08.55-1.7,3.84-11.49,1.51-14.53a40,40,0,0,0-7.33-1.47,98.73,98.73,0,0,0-11.8-1.07c-5.11,0-11,.46-11,.46s-.83.18-1.36,4.81c-.24,2.22-2,6.27-1.86,12,0,.67,1.13,1.75,1.75,2.28C303.59,206.84,303.89,213,304.34,219.87Z" style="fill:#263238"></path><path d="M304.34,219.87l25.18,1.36s1.26-13,3.34-19.93c.2-.67.42-1.36.65-2.08.55-1.7,3.84-11.49,1.51-14.53a40,40,0,0,0-7.33-1.47,98.73,98.73,0,0,0-11.8-1.07c-5.11,0-11,.46-11,.46s-.83.18-1.36,4.81c-.24,2.22-2,6.27-1.86,12,0,.67,1.13,1.75,1.75,2.28C303.59,206.84,303.89,213,304.34,219.87Z" style="fill:#fff;opacity:0.1"></path><path d="M314.91,188.25c7.95-1,10.34-4.42,10.34-4.42-3.25-3.06-2.66-7.58-1.83-10.4a16.16,16.16,0,0,1,1-2.6l-9.57,1.79a27.54,27.54,0,0,1,.37,4,12.07,12.07,0,0,1-.27,3c-.65,2.86-2.28,2.9-2.28,2.9C311,185.65,314.91,188.25,314.91,188.25Z" style="fill:#e3887b"></path><path d="M314.8,179.85a3.31,3.31,0,0,1-1.85,2.59c3.8-.5,7.66-2.6,9.47-5.24.45-1.56.79-3,.79-3l-8.78,1.64A27.54,27.54,0,0,1,314.8,179.85Z" style="opacity:0.2;isolation:isolate"></path><path d="M307.88,148.26s-6.49.25-8.24,5.75-.36,11.65,9.33,18.21,17.8.11,21.55-4.36,1.87-19.63-8.88-21.43S307.88,148.26,307.88,148.26Z" style="fill:#263238"></path><path d="M314.09,150c-8.24,1.19-10.26,6-9.63,14.57.77,10.72,4.22,17.92,14.19,14.17C332.21,173.68,327.78,148.06,314.09,150Z" style="fill:#e4897b"></path><path d="M309.72,163.38a17.25,17.25,0,0,1-1.91,3.76,2.3,2.3,0,0,0,2.31.62Z" style="fill:#de5753"></path><path d="M314.66,162c.09.68.52,1.18,1,1.13s.76-.65.67-1.33-.51-1.19-1-1.13S314.58,161.3,314.66,162Z" style="fill:#263238"></path><path d="M315.53,160.66l-1.55-.4S314.87,161.41,315.53,160.66Z" style="fill:#263238"></path><path d="M306.2,162.85c.08.68.52,1.19,1,1.13s.75-.64.67-1.32-.51-1.19-1-1.14S306.12,162.17,306.2,162.85Z" style="fill:#263238"></path><path d="M307.07,161.53l-1.55-.4S306.4,162.29,307.07,161.53Z" style="fill:#263238"></path><path d="M317.68,157.36a.34.34,0,0,0,.26-.12.36.36,0,0,0,0-.5,4.65,4.65,0,0,0-4.09-.81.35.35,0,1,0,.19.68,4,4,0,0,1,3.42.65A.33.33,0,0,0,317.68,157.36Z" style="fill:#263238"></path><path d="M304.7,158.3a.33.33,0,0,0,.23-.09,3.51,3.51,0,0,1,2.88-1.07.36.36,0,0,0,.42-.28.35.35,0,0,0-.27-.42,4.27,4.27,0,0,0-3.5,1.24.35.35,0,0,0,.24.62Z" style="fill:#263238"></path><path d="M325.1,162.63s-4.83-6.21-5-11.53c0,0-17.3-4.31-15.71,12.39,0,0-3.72-14.49,10.4-16.87s17.06,18.36,10.63,25.6C325.42,172.22,328.1,166.52,325.1,162.63Z" style="fill:#263238"></path><path d="M324,164.57a3.65,3.65,0,0,1,3.41-3.87c2.6-.09,4.57,5-1.6,7.16C324.94,168.17,324.29,167.35,324,164.57Z" style="fill:#e4897b"></path><path d="M312.05,172.43a4.74,4.74,0,0,0,4.72-3.26.36.36,0,0,0-.24-.44.35.35,0,0,0-.44.24,4.06,4.06,0,0,1-4.19,2.75.34.34,0,0,0-.38.32.34.34,0,0,0,.32.38Z" style="fill:#263238"></path><path d="M309,145s-5.29-2.09-5.06,2.66,20.23,16.48,30.36,15.74c0,0-2.75-.72-3.63-1.92a11.83,11.83,0,0,0-3.69-15C316.43,138.14,309,145,309,145Z" style="fill:#263238"></path><path d="M319.89,157c-.12,2.25,1.2,4,2.7,5.75-7.62-2.31-13.83-6.34-17.77-13.11Z" style="fill:#263238"></path><path d="M340.87,392.88,336,395.72a92.41,92.41,0,0,0-7.34-8.7h0c-1.4-1.48-2.87-3.12-4.4-4.88-3.06-3.51-6.37-7.52-9.84-11.83l-3.11-3.89c-12.09-15.21-25.16-33.09-30.05-45.18-1.52-3.76-2.26-7-1.93-9.34,1-7.22,3.8-18.09,7-28.59,4.88-16.05,10.37-31.26,10.37-31.26l13.49,22.85s-4.14,9.87-7.91,20.38c-3.71,10.32-7.06,21.27-5.82,24.12.12.28.27.61.44,1,2.24,4.64,8.44,15.15,15.48,26.76l2.15,3.53c3.78,6.2,7.71,12.57,11.35,18.42,1.42,2.3,2.8,4.52,4.11,6.62C336.24,385.65,340.87,392.88,340.87,392.88Z" style="fill:#e4897b"></path><path d="M311.08,366.41c6.38,8,12.51,15.3,17.07,20.6.65-3.26,1.31-7.12,1.83-11.33-5.27-8.46-11.72-18.9-17.58-28.57A110.64,110.64,0,0,1,311.08,366.41Z" style="opacity:0.2;isolation:isolate"></path><path d="M314.46,370.3l.12-19.66.16-26.75.06-4.66.28-20.34.41-30,20-9c2.68,11.4,1.68,26.68-.34,40.4-1.67,11.39-4,21.71-5.6,27.86C328.62,331.84,328,334,328,334a308.47,308.47,0,0,1-2.06,35c-.51,4.58-1.06,9-1.63,13.07-1.14,8.24-2.31,15.21-3.15,19.85h-6.88Z" style="fill:#e4897b"></path><path d="M296.75,252l13.49,22.85s-4.14,9.87-7.91,20.38c-3.71,10.32-7.06,21.27-5.82,24.12.12.28.27.61.44,1-5,1.7-10.89,1.52-15.65.88-1.52-3.76-2.26-7-1.93-9.34,1-7.22,3.8-18.09,7-28.59C291.26,267.25,296.75,252,296.75,252Z" style="opacity:0.2;isolation:isolate"></path><path d="M335.15,300.29c-1.67,11.39-4,21.71-5.6,27.86-6.57-2.1-11-6-14.75-8.92l.28-20.34.41-30,20-9C338.17,271.29,337.17,286.57,335.15,300.29Z" style="opacity:0.2;isolation:isolate"></path><path d="M298.06,239.79l6.28-19.92,25.18,1.36C342.27,248.69,346,319,346,319s-13.25,6.84-20.27,0-15.23,0-23.39,0-11.84-10-20.09-8.56c-3,.52-4.82-.37-6-1.71V293.28A198.82,198.82,0,0,1,298.06,239.79Z" style="fill:#FF725E"></path><path d="M334.86,396.76s5-7.46,5.57-7c6.11,4.44,10.59,4.53,8,7.91L345.12,402h-10A35.11,35.11,0,0,0,334.86,396.76Z" style="fill:#263238"></path><path d="M331.91,398.35a2.16,2.16,0,0,1,1.07-.23,6.61,6.61,0,0,1,1.38.18c-1.2.75-2.53,1.34-2.86,1.12-.11-.07-.07-.31-.05-.44A.9.9,0,0,1,331.91,398.35Z" style="fill:none"></path><path d="M334.56,398.82c-.36,1.38-1,3-1.5,3.11,0,0-.18.05-.41-.24a.5.5,0,0,1-.09-.39C332.66,400.56,333.77,399.48,334.56,398.82Z" style="fill:none"></path><path d="M331.23,399.81c.39.26,1.16,0,1.91-.3a3.64,3.64,0,0,0-1.05,1.73.94.94,0,0,0,.19.74h1.47a10.55,10.55,0,0,0,1.42-3.72.14.14,0,0,0,0-.09h0a.25.25,0,0,0,0-.07h0l0-.06h0l-.08,0c-.1,0-2.2-.69-3.34,0a1.4,1.4,0,0,0-.68.94Q330.85,399.55,331.23,399.81Zm3.33-1c-.36,1.38-1,3-1.5,3.11,0,0-.18.05-.41-.24a.5.5,0,0,1-.09-.39C332.66,400.56,333.77,399.48,334.56,398.82Zm-3.11.16a.9.9,0,0,1,.46-.63,2.16,2.16,0,0,1,1.07-.23,6.61,6.61,0,0,1,1.38.18c-1.2.75-2.53,1.34-2.86,1.12C331.39,399.35,331.43,399.11,331.45,399Z" style="fill:#FF725E"></path><polygon points="352.43 201.61 351.98 202.88 354.86 217.96 355.84 217.62 353.06 202.13 352.43 201.61" style="fill:#263238"></polygon><polygon points="352.43 201.61 351.98 202.88 354.86 217.96 355.84 217.62 353.06 202.13 352.43 201.61" style="fill:#fff;opacity:0.30000000000000004"></polygon><path d="M308,189.11s-17.11,10.26-17.89,11-3.29,2.87-3.06,5.16,3,3.34,3.74,3.34c2.88,0,10-8.24,19.71-17.16Z" style="fill:#e3887b"></path><polygon points="325.72 227.23 324.58 227.06 330.95 212.04 331.44 212.43 325.72 227.23" style="fill:#FF725E"></polygon><polygon points="325.72 227.23 324.58 227.06 330.95 212.04 331.44 212.43 325.72 227.23" style="opacity:0.2"></polygon><polygon points="302.37 228.19 301.02 227.74 296.82 211.2 297.99 210.75 302.37 228.19" style="fill:#FF725E"></polygon><polygon points="302.37 228.19 301.02 227.74 296.82 211.2 297.99 210.75 302.37 228.19" style="opacity:0.2"></polygon><path d="M336.14,315.69c-4.17,2.18-4.24,2.36-7.8,2.1-.09.55-.21,1.28-.34,2a4.13,4.13,0,0,0-2.45.6c-5.95-2.46-5.42-2.12-10.16.11-1-.5-1.82.62-3.17.28a5.26,5.26,0,0,0-4-.65c-1.55,0-1.22-2.8-2.79-2.82-2.65,2.27-5.18,5.33-5.48,4.33l.81-2.88a5.9,5.9,0,0,0-3,.33,1.24,1.24,0,0,0-1.39-.71l-.16-1.63c-1.07-.83-2.38-.34-3.83-.52a2.35,2.35,0,0,0-2.38-.47l-.34-.38c-.07-5.32,2.66-33.91,5.85-46.09l33-4.65C331.27,276.67,333.73,295.75,336.14,315.69Z" style="fill:#FF725E"></path><path d="M336.14,315.69c-4.17,2.18-4.24,2.36-7.8,2.1-.09.55-.21,1.28-.34,2a4.13,4.13,0,0,0-2.45.6c-5.95-2.46-5.42-2.12-10.16.11-1-.5-1.82.62-3.17.28a5.26,5.26,0,0,0-4-.65c-1.55,0-1.22-2.8-2.79-2.82-2.65,2.27-5.18,5.33-5.48,4.33l.81-2.88a5.9,5.9,0,0,0-3,.33,1.24,1.24,0,0,0-1.39-.71l-.16-1.63c-1.07-.83-2.38-.34-3.83-.52a2.35,2.35,0,0,0-2.38-.47l-.34-.38c-.07-5.32,2.66-33.91,5.85-46.09l33-4.65C331.27,276.67,333.73,295.75,336.14,315.69Z" style="opacity:0.4"></path><path d="M328.34,317.79a20.56,20.56,0,0,0,2.38.08l-4.93-28Z" style="opacity:0.2"></path><path d="M306.52,318.14l1.42-35.6-.59,37.21A9.87,9.87,0,0,1,306.52,318.14Z" style="opacity:0.2"></path><path d="M300.76,318.81l2-34.92-3.53,34.92A5,5,0,0,1,300.76,318.81Z" style="opacity:0.2"></path><path d="M295.06,316.34a1.94,1.94,0,0,1,1.13.46l2.73-34.26Z" style="opacity:0.2"></path><path d="M285.34,217.11c-.85.37-.71,1.12,0,1.12h54.12c.83,0,.59-.85,0-1.12l-24.69-15.84-.28-6.59c-.07-1.35.59-2.13,2.48-2,1.32,0,2,.54,1.95,1.69l-.15,2.63h1.12v-2.7c-.08-1.64-1-2.6-3-2.55-2.61-.19-3.46,1-3.45,2.7v6.73Zm4.15,0,24.58-13.33,21.1,13.33Z" style="fill:#263238"></path><path d="M285.34,217.11c-.85.37-.71,1.12,0,1.12h54.12c.83,0,.59-.85,0-1.12l-24.69-15.84-.28-6.59c-.07-1.35.59-2.13,2.48-2,1.32,0,2,.54,1.95,1.69l-.15,2.63h1.12v-2.7c-.08-1.64-1-2.6-3-2.55-2.61-.19-3.46,1-3.45,2.7v6.73Zm4.15,0,24.58-13.33,21.1,13.33Z" style="fill:#fff;opacity:0.4"></path><path d="M333.74,236.19c.55-1.19-3.62-5.81-7.05-9.9l-13.57,5c-1.59-1.16-8.48-2.85-13.43-4.35-3.51,3.19-6.39,6.15-7.2,8.4,3.08,7.58,4.47,16.38,7.95,21-3.62,5.64-6.59,11.32-5.89,12.84a48.49,48.49,0,0,0,15.34,4.61c9.51-2.89,16.56-5.89,19.66-9,0-2.9-3-6.24-5.56-11.25C326.77,252.47,330,243.83,333.74,236.19Z" style="fill:#FF725E"></path><path d="M333.74,236.19c.55-1.19-3.62-5.81-7.05-9.9l-13.57,5c-1.59-1.16-8.48-2.85-13.43-4.35-3.51,3.19-6.39,6.15-7.2,8.4,3.08,7.58,4.47,16.38,7.95,21-3.62,5.64-6.59,11.32-5.89,12.84a48.49,48.49,0,0,0,15.34,4.61c9.51-2.89,16.56-5.89,19.66-9,0-2.9-3-6.24-5.56-11.25C326.77,252.47,330,243.83,333.74,236.19Z" style="opacity:0.2"></path><path d="M327.69,229l-.62-.84,4.26-16.51a.16.16,0,0,1,.23,0l.36.22a.14.14,0,0,1,.1.2Z" style="fill:#FF725E"></path><path d="M300.42,227.13l-3.76-16.62c0-.1-.15-.11-.24,0l-.61.35c-.09,0-.15.09-.11.16l4.09,16.76Z" style="fill:#FF725E"></path><path d="M316.34,189l4.3,2.48a.38.38,0,0,1-.08.69l-6,1.88a1.88,1.88,0,0,1-1.88-.43l-4.77-4.5,7.68-.3A1.47,1.47,0,0,1,316.34,189Z" style="fill:#e3887b"></path><path d="M344.18,221.33l7.55-4.1a7.82,7.82,0,0,1,4.13-.94v34.86l-3.66-1.54Z" style="fill:#FF725E"></path><path d="M344.18,221.33l7.55-4.1a7.82,7.82,0,0,1,4.13-.94v34.86l-3.66-1.54Z" style="fill:#fff;opacity:0.2"></path><path d="M353.33,245.84l2.53-.08v96.95a14.29,14.29,0,0,1-8.83,2.37c-6,.07-10.4-7.07-14.85-13.8Z" style="fill:#FF725E"></path><path d="M353.33,245.84l2.53-.08v96.95a14.29,14.29,0,0,1-8.83,2.37c-6,.07-10.4-7.07-14.85-13.8Z" style="fill:#fff;opacity:0.1"></path><path d="M372.42,330a1.67,1.67,0,0,0-1.09-.36A1.53,1.53,0,0,1,372.42,330Z" style="fill:#FF725E"></path><path d="M364.24,329.56h0Z" style="fill:#FF725E"></path><path d="M363.64,329.58h0Z" style="fill:#FF725E"></path><path d="M371,329.66a1.59,1.59,0,0,1,.3-.06A1.07,1.07,0,0,0,371,329.66Z" style="fill:#FF725E"></path><path d="M364.24,329.56a2.12,2.12,0,0,1,.41.08h0A3.28,3.28,0,0,0,364.24,329.56Z" style="fill:#FF725E"></path><path d="M362.69,330a2.15,2.15,0,0,1,.95-.43A2.58,2.58,0,0,0,362.69,330Z" style="fill:#FF725E"></path><path d="M364.09,329.55a2,2,0,0,0-.42,0A2,2,0,0,1,364.09,329.55Z" style="fill:#FF725E"></path><path d="M335.59,185.68l12.89,14.49-2.68-3,1.8,4.22.88-1.2,7.38-7.46v9.42c-3,3.94-5.7,6.61-7.74,6.5L332.56,197C329,195.38,329.76,185.26,335.59,185.68Z" style="fill:#e3887b"></path><polygon points="345.8 197.15 348.48 200.17 347.6 201.37 345.8 197.15" style="fill:#e3887b"></polygon><polygon points="345.8 197.15 348.48 200.17 347.6 201.37 345.8 197.15" style="opacity:0.2"></polygon><path d="M341.64,210.38a.08.08,0,0,1,0-.15l14.26-8v8.15Z" style="fill:none"></path><path d="M339.32,210.38,355.86,201v1.21l-14.26,8a.08.08,0,0,0,0,.15h14.22v1.13H339.32C338.62,211.51,338.48,210.75,339.32,210.38Z" style="fill:#263238"></path><path d="M339.32,210.38,355.86,201v1.21l-14.26,8a.08.08,0,0,0,0,.15h14.22v1.13H339.32C338.62,211.51,338.48,210.75,339.32,210.38Z" style="fill:#fff;opacity:0.4"></path><polygon points="272.31 152.05 293.35 120.15 308.63 120.15 272.31 173.8 272.31 152.05" style="fill:#fff;opacity:0.2"></polygon><polygon points="272.31 331.8 360.3 193.54 360.3 221.15 272.35 356.32 272.31 354.2 272.31 331.8" style="fill:#fff;opacity:0.2"></polygon><polygon points="272.31 305.61 360.3 169.78 360.25 174.68 272.35 312.55 272.31 305.61" style="fill:#fff;opacity:0.2"></polygon><polygon points="324.79 404.84 360.3 351 360.3 376.19 339.6 404.84 324.79 404.84" style="fill:#fff;opacity:0.2"></polygon><path d="M126.41,330l-.31.25h0C126.21,330.11,126.31,330,126.41,330Z" style="fill:#FF725E"></path></g><g id="freepik--Character--inject-34"><polygon points="205.14 184.17 212.03 192.78 219.44 202.03 219.63 209.99 201.97 194.43 205.14 184.17" style="fill:#e3887b"></polygon><polygon points="206.76 191.4 207.78 197.42 213.87 205.75 219.5 209.99 219 201.59 216.58 198.51 206.76 191.4" style="opacity:0.2"></polygon><path d="M192,169s-2.5-12.5-15.37-10-6.88,20.07-4.25,25.59,3,10-.13,12.53c0,0,4.25,1.22,6.5-1.7,0,0-.12,2.7-1.62,3.83,0,0,12.94-4.63,9.66-19.75S192,169,192,169Z" style="fill:#263238"></path><path d="M205.89,221.22l-25.17,1.37s-1.26-13-3.34-19.94c-.2-.66-.42-1.35-.65-2.07-.55-1.71-3.84-11.49-1.51-14.54a40.75,40.75,0,0,1,7.32-1.47,99.07,99.07,0,0,1,11.81-1.06c5.11,0,11,.46,11,.46s.84.17,1.37,4.81c.24,2.22,2,6.26,1.86,12,0,.67-1.13,1.75-1.75,2.28C206.65,208.2,206.35,214.37,205.89,221.22Z" style="fill:#263238"></path><path d="M205.89,221.22l-25.17,1.37s-1.26-13-3.34-19.94c-.2-.66-.42-1.35-.65-2.07-.55-1.71-3.84-11.49-1.51-14.54a40.75,40.75,0,0,1,7.32-1.47,99.07,99.07,0,0,1,11.81-1.06c5.11,0,11,.46,11,.46s.84.17,1.37,4.81c.24,2.22,2,6.26,1.86,12,0,.67-1.13,1.75-1.75,2.28C206.65,208.2,206.35,214.37,205.89,221.22Z" style="fill:#fff;opacity:0.1"></path><path d="M195.33,189.6c-8-1-10.34-4.42-10.34-4.42,3.25-3.06,2.66-7.58,1.83-10.4a16.16,16.16,0,0,0-1-2.6l9.57,1.79a27.54,27.54,0,0,0-.37,4,12.07,12.07,0,0,0,.27,3c.65,2.86,2.28,2.9,2.28,2.9C199.27,187,195.33,189.6,195.33,189.6Z" style="fill:#e3887b"></path><path d="M195.44,181.21a3.32,3.32,0,0,0,1.85,2.59c-3.8-.5-7.66-2.61-9.47-5.25-.45-1.56-.8-3-.8-3l8.79,1.64A27.54,27.54,0,0,0,195.44,181.21Z" style="opacity:0.2;isolation:isolate"></path><path d="M202.35,149.62s6.49.25,8.24,5.75.37,11.64-9.32,18.2-17.8.12-21.55-4.36-1.88-19.62,8.87-21.42S202.35,149.62,202.35,149.62Z" style="fill:#263238"></path><path d="M196.15,151.4c8.24,1.19,10.26,6,9.63,14.56-.78,10.73-4.22,17.93-14.2,14.17C178,175,182.46,149.42,196.15,151.4Z" style="fill:#e4897b"></path><path d="M200.52,164.73a17.46,17.46,0,0,0,1.91,3.77,2.3,2.3,0,0,1-2.31.62Z" style="fill:#de5753"></path><path d="M195.57,163.33c-.08.68-.51,1.19-1,1.13s-.76-.65-.68-1.33.52-1.18,1-1.13S195.66,162.65,195.57,163.33Z" style="fill:#263238"></path><path d="M194.71,162l1.55-.4S195.37,162.77,194.71,162Z" style="fill:#263238"></path><path d="M204,164.21c-.09.68-.52,1.18-1,1.13s-.76-.65-.67-1.33.51-1.19,1-1.13S204.12,163.53,204,164.21Z" style="fill:#263238"></path><path d="M203.17,162.89l1.55-.4S203.83,163.64,203.17,162.89Z" style="fill:#263238"></path><path d="M192.56,158.71a.36.36,0,0,1-.26-.11.35.35,0,0,1,0-.5,4.65,4.65,0,0,1,4.09-.81.34.34,0,0,1,.24.43.35.35,0,0,1-.43.25,4,4,0,0,0-3.42.65A.38.38,0,0,1,192.56,158.71Z" style="fill:#263238"></path><path d="M205.54,159.65a.38.38,0,0,1-.24-.09,3.57,3.57,0,0,0-2.87-1.07.35.35,0,0,1-.15-.69,4.24,4.24,0,0,1,3.5,1.23.35.35,0,0,1,0,.5A.32.32,0,0,1,205.54,159.65Z" style="fill:#263238"></path><path d="M185.13,164s4.84-6.22,5-11.53c0,0,17.29-4.31,15.71,12.38,0,0,3.72-14.49-10.4-16.86s-17.06,18.36-10.63,25.59C184.82,173.57,182.14,167.88,185.13,164Z" style="fill:#263238"></path><path d="M186.23,165.92a3.65,3.65,0,0,0-3.42-3.86c-2.59-.09-4.57,5,1.61,7.15C185.3,169.52,185.94,168.71,186.23,165.92Z" style="fill:#e4897b"></path><path d="M198.19,173.78a4.72,4.72,0,0,1-4.72-3.25.37.37,0,0,1,.24-.45.36.36,0,0,1,.44.24,4.06,4.06,0,0,0,4.19,2.75.34.34,0,0,1,.38.33.36.36,0,0,1-.32.38Z" style="fill:#263238"></path><path d="M201.27,146.33s5.29-2.09,5,2.66S186.09,165.48,176,164.73c0,0,2.75-.71,3.62-1.91a11.84,11.84,0,0,1,3.69-15C193.81,139.49,201.27,146.33,201.27,146.33Z" style="fill:#263238"></path><path d="M190.35,158.36c.12,2.24-1.2,4-2.7,5.75,7.62-2.32,13.83-6.34,17.77-13.12Z" style="fill:#263238"></path><path d="M169.37,394.24l4.83,2.84a92.41,92.41,0,0,1,7.34-8.7h0c1.4-1.48,2.87-3.12,4.4-4.88,3.06-3.51,6.37-7.52,9.84-11.83l3.11-3.89c12.09-15.21,25.16-33.09,30.05-45.18,1.52-3.76,2.26-6.95,1.93-9.34-1-7.22-3.8-18.09-7-28.59-4.88-16.05-10.37-31.26-10.37-31.26L200,276.25s4.14,9.87,7.91,20.38c3.71,10.32,7.06,21.27,5.82,24.12-.12.28-.27.61-.44,1-2.24,4.64-8.44,15.15-15.48,26.76L195.66,352c-3.78,6.2-7.71,12.57-11.35,18.42-1.42,2.3-2.8,4.52-4.11,6.62C174,387,169.37,394.24,169.37,394.24Z" style="fill:#e4897b"></path><path d="M199.16,367.77c-6.38,8-12.51,15.3-17.07,20.6-.65-3.26-1.31-7.12-1.83-11.33,5.27-8.46,11.72-18.9,17.58-28.57A110.64,110.64,0,0,0,199.16,367.77Z" style="opacity:0.2;isolation:isolate"></path><path d="M175.09,301.65c1.67,11.39,4,21.71,5.6,27.86.93,3.69,1.56,5.87,1.56,5.87a308.47,308.47,0,0,0,2.06,35c.51,4.58,1.06,9,1.63,13.07,2.1,15.14,4.31,26,4.31,26l5.75-.75-.22-37.09L195.66,352l-.16-26.75-.06-4.66-.28-20.34-.41-30-20-9C172.07,272.65,173.07,287.93,175.09,301.65Z" style="fill:#e4897b"></path><path d="M213.49,253.4,200,276.25s4.14,9.87,7.91,20.38c3.71,10.32,7.06,21.27,5.82,24.12-.12.28-.27.61-.44,1,5,1.7,10.89,1.52,15.65.88,1.52-3.76,2.26-6.95,1.93-9.34-1-7.22-3.8-18.09-7-28.59C219,268.61,213.49,253.4,213.49,253.4Z" style="opacity:0.2;isolation:isolate"></path><path d="M175.09,301.65c1.67,11.39,4,21.71,5.6,27.86,6.57-2.1,11-6,14.75-8.92l-.28-20.34-.41-30-20-9C172.07,272.65,173.07,287.93,175.09,301.65Z" style="opacity:0.2;isolation:isolate"></path><path d="M169.81,391.09c.59-.43,5.57,7,5.57,7s-1.11,7.77,1.14,12.79-2.12,4.59-5.75-.17l-9-11.75C159.21,395.62,163.7,395.53,169.81,391.09Z" style="fill:#263238"></path><path d="M177.07,403.75c-1.14-.27-1.87-3.49-2-4.14a.28.28,0,0,1,0-.09h0l0-.07h0a.1.1,0,0,1,0-.06h0a.25.25,0,0,1,.08-.05c.11,0,2.21-.7,3.35,0a1.38,1.38,0,0,1,.68.94c.09.44,0,.75-.24.92s-1.16,0-1.91-.3a3.77,3.77,0,0,1,1.05,1.73,1,1,0,0,1-.19.75,1,1,0,0,1-.73.43Zm.1-.46c.05,0,.19,0,.42-.24a.54.54,0,0,0,.09-.4c-.1-.73-1.21-1.82-2-2.48C176,401.56,176.64,403.16,177.17,403.29Zm-1.3-3.63c1.21.74,2.54,1.34,2.87,1.11.1-.07.07-.3,0-.43a.89.89,0,0,0-.45-.63,2.18,2.18,0,0,0-1.08-.23A6.08,6.08,0,0,0,175.87,399.66Z" style="fill:#FF725E"></path><path d="M188.21,405.83c0-.73,9-.16,9-.16s5.5,5.6,10.85,6.86,2.36,4.47-3.61,4.47H189.63C185.38,417,188,413.38,188.21,405.83Z" style="fill:#263238"></path><path d="M198.18,406.83a.16.16,0,0,1-.08-.06h0l0-.06h0s0,0,0-.08h0a.29.29,0,0,1,0-.09c0-.11.79-2.18,2-2.69a1.36,1.36,0,0,1,1.15,0c.41.19.61.44.59.75,0,.47-.66.94-1.39,1.33a3.75,3.75,0,0,1,2,.22.93.93,0,0,1,.47.6.86.86,0,0,1-.21,1,1.27,1.27,0,0,1-.79.21A11.34,11.34,0,0,1,198.18,406.83Zm.82-.15c1.32.56,3,1.05,3.38.7,0,0,.15-.12.06-.47a.52.52,0,0,0-.26-.31,2.26,2.26,0,0,0-1.05-.2A10.42,10.42,0,0,0,199,406.68Zm1.24-2.39a3.92,3.92,0,0,0-1.54,1.92c1.33-.5,2.61-1.2,2.63-1.6,0-.12-.2-.24-.32-.3a1,1,0,0,0-.41-.1A.94.94,0,0,0,200.24,404.29Z" style="fill:#FF725E"></path><path d="M205.89,221.22l6.29,19.93A198.69,198.69,0,0,1,236,303.83s.25,9.42-8,8-11.94,8.55-20.1,8.55-16.35-6.84-23.38,0-20.27,0-20.27,0S168,250,180.72,222.59Z" style="fill:#FF725E"></path><path d="M133.62,186.66l8.8-3.44a.58.58,0,0,1,.58.09l4.46,3.76-9.67,3.09a.6.6,0,0,1-.49-.06l-3.78-2.42A.57.57,0,0,1,133.62,186.66Z" style="fill:#e3887b"></path><path d="M174.65,187c5.83-.42,6.62,9.71,3,11.33L162.12,210c-4.41.22-11.68-12.41-19.33-23l4.67,0,14.3,14.46Z" style="fill:#e3887b"></path><polygon points="162.64 202.72 164.44 198.5 161.76 201.52 162.64 202.72" style="opacity:0.2"></polygon><path d="M142.81,195.83v-6.74c0-1.74-.83-2.88-3.45-2.7-2,0-2.91.91-3,2.55v2.71h1.13l-.15-2.64c-.1-1.15.63-1.65,1.95-1.68,1.88-.14,2.55.64,2.47,2l-.28,6.6L116.8,211.74c-.59.27-.84,1.12,0,1.12h54.11c.71,0,.85-.75,0-1.12Zm-23,15.11,22.35-14.2,26.47,14.85a.08.08,0,0,1,0,.15H120.05A.43.43,0,0,1,119.82,210.94Z" style="fill:#263238"></path><path d="M142.81,195.83v-6.74c0-1.74-.83-2.88-3.45-2.7-2,0-2.91.91-3,2.55v2.71h1.13l-.15-2.64c-.1-1.15.63-1.65,1.95-1.68,1.88-.14,2.55.64,2.47,2l-.28,6.6L116.8,211.74c-.59.27-.84,1.12,0,1.12h54.11c.71,0,.85-.75,0-1.12Zm-23,15.11,22.35-14.2,26.47,14.85a.08.08,0,0,1,0,.15H120.05A.43.43,0,0,1,119.82,210.94Z" style="fill:#fff;opacity:0.4"></path><path d="M129.88,202.25c.18-.25.34-.54.62-.63s.62.07.95.16l.9,17.83-1.24.34Z" style="fill:#263238"></path><path d="M129.88,202.25c.18-.25.34-.54.62-.63s.62.07.95.16l.9,17.83-1.24.34Z" style="fill:#fff;opacity:0.30000000000000004"></path><polygon points="157.81 202.96 158.26 204.24 155.38 219.31 154.4 218.98 157.18 203.49 157.81 202.96" style="fill:#263238"></polygon><polygon points="157.81 202.96 158.26 204.24 155.38 219.31 154.4 218.98 157.18 203.49 157.81 202.96" style="fill:#fff;opacity:0.30000000000000004"></polygon><path d="M104,332.64c5.75,7.89,11.55,10.57,17,11.1,6.15-.2,10.92-4.56,15.75-11.1,1.18-2,3.1-2.48,3.6,0l1.06,3a1.1,1.1,0,0,0,2.09-.09l.75-2.88a2.14,2.14,0,0,1,4.2,0l.9,4.72c1.4,3.81,5.34,9.36,14,9.08,6,.07,10.4-7.08,14.85-13.8L156.91,247.2l-26.15-.85Z" style="fill:#FF725E"></path><path d="M104,332.64c5.75,7.89,11.55,10.57,17,11.1,6.15-.2,10.92-4.56,15.75-11.1,1.18-2,3.1-2.48,3.6,0l1.06,3a1.1,1.1,0,0,0,2.09-.09l.75-2.88a2.14,2.14,0,0,1,4.2,0l.9,4.72c1.4,3.81,5.34,9.36,14,9.08,6,.07,10.4-7.08,14.85-13.8L156.91,247.2l-26.15-.85Z" style="fill:#fff;opacity:0.1"></path><path d="M140,281.34,139.21,331a1.58,1.58,0,0,0-1.7.54Z" style="opacity:0.2"></path><path d="M147.56,331.38a2.1,2.1,0,0,0-2-.38V282.39Z" style="opacity:0.2"></path><path d="M122.26,221.49l7.65-3.66a6.16,6.16,0,0,1,5.86.28l8.11,4.88,6.68-4.17a7.91,7.91,0,0,1,7.95-.23l7.55,4.1L158,251l-4.49,1.89a4,4,0,0,1-3.57-.25l-4.89-3.29a3,3,0,0,0-3.42.06l-3.21,2.33a5.35,5.35,0,0,1-4.44.84l-4.86-1.25Z" style="fill:#FF725E"></path><path d="M122.26,221.49l7.65-3.66a6.16,6.16,0,0,1,5.86.28l8.11,4.88,6.68-4.17a7.91,7.91,0,0,1,7.95-.23l7.55,4.1L158,251l-4.49,1.89a4,4,0,0,1-3.57-.25l-4.89-3.29a3,3,0,0,0-3.42.06l-3.21,2.33a5.35,5.35,0,0,1-4.44.84l-4.86-1.25Z" style="fill:#fff;opacity:0.2"></path><path d="M202.29,190.47s17.1,10.26,17.89,11,3.29,2.87,3.06,5.15-3,3.35-3.74,3.35c-2.89,0-10-8.24-19.71-17.16Z" style="fill:#e3887b"></path><polygon points="184.52 228.59 185.66 228.42 179.29 213.4 178.8 213.79 184.52 228.59" style="fill:#FF725E"></polygon><polygon points="184.52 228.59 185.66 228.42 179.29 213.4 178.8 213.79 184.52 228.59" style="opacity:0.2"></polygon><polygon points="207.87 229.54 209.22 229.09 213.42 212.55 212.25 212.11 207.87 229.54" style="fill:#FF725E"></polygon><polygon points="207.87 229.54 209.22 229.09 213.42 212.55 212.25 212.11 207.87 229.54" style="opacity:0.2"></polygon><path d="M174.1,317.05c4.16,2.18,4.24,2.35,7.8,2.1.09.54.21,1.28.33,2a4.23,4.23,0,0,1,2.46.6c5.94-2.45,5.42-2.12,10.16.12,1-.5,1.82.61,3.17.28,1.14-.89,2.55-.83,4-.66s1.22-2.79,2.8-2.81c2.65,2.27,5.18,5.33,5.47,4.33l-.8-2.89a6,6,0,0,1,3,.34,1.22,1.22,0,0,1,1.38-.71l.17-1.63c1.07-.83,2.38-.35,3.83-.53a2.39,2.39,0,0,1,2.38-.47l.34-.37c.07-5.33-2.66-33.91-5.85-46.09l-33-4.65C179,278,176.51,297.1,174.1,317.05Z" style="fill:#FF725E"></path><path d="M174.1,317.05c4.16,2.18,4.24,2.35,7.8,2.1.09.54.21,1.28.33,2a4.23,4.23,0,0,1,2.46.6c5.94-2.45,5.42-2.12,10.16.12,1-.5,1.82.61,3.17.28,1.14-.89,2.55-.83,4-.66s1.22-2.79,2.8-2.81c2.65,2.27,5.18,5.33,5.47,4.33l-.8-2.89a6,6,0,0,1,3,.34,1.22,1.22,0,0,1,1.38-.71l.17-1.63c1.07-.83,2.38-.35,3.83-.53a2.39,2.39,0,0,1,2.38-.47l.34-.37c.07-5.33-2.66-33.91-5.85-46.09l-33-4.65C179,278,176.51,297.1,174.1,317.05Z" style="opacity:0.4"></path><path d="M181.9,319.15a20.68,20.68,0,0,1-2.38.07l4.93-28Z" style="opacity:0.2"></path><path d="M203.72,319.49,202.3,283.9l.59,37.2A9.05,9.05,0,0,0,203.72,319.49Z" style="opacity:0.2"></path><path d="M209.48,320.16l-2-34.91L211,320.16A4.92,4.92,0,0,0,209.48,320.16Z" style="opacity:0.2"></path><path d="M215.18,317.7a1.89,1.89,0,0,0-1.13.46l-2.73-34.26Z" style="opacity:0.2"></path><path d="M196.79,202.55v-6.74c0-1.74-.83-2.88-3.45-2.7-2-.05-2.91.91-3,2.55v2.71h1.13l-.15-2.63c-.1-1.15.63-1.66,2-1.69,1.89-.14,2.55.64,2.47,2l-.28,6.59-24.68,15.83c-.59.27-.84,1.13,0,1.13H224.9c.7,0,.84-.76,0-1.13Zm-21.72,15.91,21.09-13.33,24.59,13.33Z" style="fill:#263238"></path><path d="M196.79,202.55v-6.74c0-1.74-.83-2.88-3.45-2.7-2-.05-2.91.91-3,2.55v2.71h1.13l-.15-2.63c-.1-1.15.63-1.66,2-1.69,1.89-.14,2.55.64,2.47,2l-.28,6.59-24.68,15.83c-.59.27-.84,1.13,0,1.13H224.9c.7,0,.84-.76,0-1.13Zm-21.72,15.91,21.09-13.33,24.59,13.33Z" style="fill:#fff;opacity:0.4"></path><path d="M176.5,237.55c-.55-1.2,3.62-5.82,7.05-9.9l13.57,4.95c1.59-1.16,8.47-2.85,13.43-4.35,3.51,3.18,6.39,6.14,7.2,8.4-3.08,7.58-4.47,16.37-7.95,21,3.62,5.64,6.59,11.32,5.88,12.84a48.43,48.43,0,0,1-15.33,4.61c-9.51-2.89-16.56-5.9-19.66-9,0-2.91,3-6.24,5.56-11.25C183.47,253.83,180.21,245.18,176.5,237.55Z" style="fill:#FF725E"></path><path d="M176.5,237.55c-.55-1.2,3.62-5.82,7.05-9.9l13.57,4.95c1.59-1.16,8.47-2.85,13.43-4.35,3.51,3.18,6.39,6.14,7.2,8.4-3.08,7.58-4.47,16.37-7.95,21,3.62,5.64,6.59,11.32,5.88,12.84a48.43,48.43,0,0,1-15.33,4.61c-9.51-2.89-16.56-5.9-19.66-9,0-2.91,3-6.24,5.56-11.25C183.47,253.83,180.21,245.18,176.5,237.55Z" style="opacity:0.2"></path><path d="M182.55,230.39l.62-.85L178.91,213a.16.16,0,0,0-.23,0l-.36.22c-.09,0-.13.09-.1.2Z" style="fill:#FF725E"></path><path d="M209.82,228.49l3.75-16.63c.05-.1.15-.11.25,0l.61.34c.09.05.15.1.11.17l-4.09,16.75Z" style="fill:#FF725E"></path><path d="M193.9,190.34l-4.3,2.49a.37.37,0,0,0,.07.68l6,1.89a1.91,1.91,0,0,0,1.88-.43l4.77-4.5-7.69-.3A1.32,1.32,0,0,0,193.9,190.34Z" style="fill:#e3887b"></path></g></svg>