<svg xmlns="http://www.w3.org/2000/svg" viewBox="0 0 500 500"><g id="freepik--background-simple--inject-102"><path d="M397.19,119.74l-2.07-3.4c-17.41-28.69-48.88-46-82.07-43.89a86.39,86.39,0,0,0-12.7,1.75c-30.18,6.45-56.43,29.27-67.32,58.5-6.4,17.18-8.19,37-20.33,50.61-15.81,17.76-42.64,18.31-66.24,17.58S96,200.78,80.28,218.61c-9.85,11.16-13,27-12.19,42,2.11,39.58,29.69,75,64.76,92.56s76.37,19.17,114.76,11.43C301.39,353.74,352.53,324,383.27,278S421.78,169.37,397.19,119.74Z" style="fill:#f5f5f5"></path></g><g id="freepik--Plants--inject-102"><path d="M57.8,418a9.34,9.34,0,0,1,4.85,5.49,16.58,16.58,0,0,1,.65,7.44c-.55,4.83-3.3,9.71-6.25,13.57-4.07-3.55-5-9.74-5.28-12.91-.44-5,1.81-14.34,6-13.59" style="fill:#FF725E"></path><path d="M61.78,452.47a8,8,0,0,1,2.58-7.59,10.6,10.6,0,0,1,7.82-2.45A4.46,4.46,0,0,1,75.61,444a3.42,3.42,0,0,1,0,3.46A6.88,6.88,0,0,1,73.1,450c-3.52,2.21-7.34,3.7-11.32,2.51" style="fill:#FF725E"></path><path d="M56.56,467.28a5.86,5.86,0,0,1,.15-1c.12-.69.29-1.59.49-2.68A28.14,28.14,0,0,1,60,455a17.2,17.2,0,0,1,6.14-6.53,11.86,11.86,0,0,1,2.51-1.11c.31-.1.56-.14.72-.18a.74.74,0,0,1,.26,0,18.64,18.64,0,0,0-3.36,1.54,17.76,17.76,0,0,0-6,6.5,30.32,30.32,0,0,0-2.83,8.44c-.24,1.13-.44,2-.6,2.66A5.29,5.29,0,0,1,56.56,467.28Z" style="fill:#263238"></path><path d="M56.72,425.25a3,3,0,0,1,0,.43l.08,1.25c.06,1.08.12,2.64.18,4.58.13,3.87.23,9.22.2,15.13s-.17,11.25-.33,15.12c-.08,1.94-.15,3.5-.22,4.58,0,.51-.06.92-.09,1.24a2.19,2.19,0,0,1,0,.44,2.12,2.12,0,0,1,0-.44c0-.32,0-.73,0-1.24,0-1.13.07-2.69.11-4.59.1-3.87.2-9.21.23-15.12s0-11.25-.1-15.12c0-1.9-.05-3.45-.07-4.58,0-.51,0-.92,0-1.24A1.67,1.67,0,0,1,56.72,425.25Z" style="fill:#263238"></path><path d="M54.74,455.41a18.63,18.63,0,0,0-10.2-13.68c-1.36-.65-3.13-1.08-4.25-.07s-.87,2.83-.32,4.24a16,16,0,0,0,14.67,9.9" style="fill:#FF725E"></path><path d="M45.2,446.31a4,4,0,0,1,.86.37,8.83,8.83,0,0,1,1,.52c.36.23.81.45,1.24.78a16.51,16.51,0,0,1,1.42,1.07,17,17,0,0,1,1.51,1.37,21.23,21.23,0,0,1,2.87,3.69,20.6,20.6,0,0,1,1.9,4.28,16.69,16.69,0,0,1,.47,2,15.49,15.49,0,0,1,.25,1.76c.07.54,0,1,.07,1.46a7.42,7.42,0,0,1,0,1.11,4.92,4.92,0,0,1-.1.93c-.08,0,.06-1.34-.18-3.47a15.61,15.61,0,0,0-.28-1.74c-.11-.62-.31-1.26-.5-1.94a20.82,20.82,0,0,0-1.89-4.2,21.83,21.83,0,0,0-2.8-3.64c-.5-.5-1-1-1.47-1.38s-.94-.76-1.37-1.09C46.39,446.93,45.17,446.38,45.2,446.31Z" style="fill:#263238"></path><path d="M398.44,360.12l15.12,107.65,3.94.12C415,431.33,412.31,394,398.44,360.12Z" style="fill:#455a64"></path><path d="M440.43,355.08C429.87,366.64,425.62,382.55,423,398c-3.8,21.88-4.14,47.72-3,69.9l5.51.13A303.7,303.7,0,0,1,440.43,355.08Z" style="fill:#455a64"></path><path d="M401.22,423.8c-1.21-5.33-2.6-10.75-5.64-15.3-4.12-6.13-10.82-10-17.56-13s-13.83-5.43-19.92-9.62c6.79,11.15,22.22,14.11,30.08,24.54,3.9,5.18,5.53,11.69,7.06,18,3.34,13.76,5.39,25.67,8.73,39.43h4.47A350.13,350.13,0,0,0,401.22,423.8Z" style="fill:#455a64"></path><path d="M429.49,467.89s3.79-42.75,6.6-50.6,29.34-29.54,29.08-28.52-19.9,24.75-22.71,29.6-7.65,49.52-7.65,49.52Z" style="fill:#455a64"></path></g><g id="freepik--Floor--inject-102"><path d="M480.63,467.92c0,.05-101.34.1-226.32.1S28,468,28,467.92s101.32-.1,226.34-.1S480.63,467.86,480.63,467.92Z" style="fill:#263238"></path><path d="M480.63,477c0,.05-101.34.1-226.32.1S28,477,28,477s101.32-.1,226.34-.1S480.63,476.9,480.63,477Z" style="fill:#263238"></path><path d="M224.93,477.2c-.05,0-.1-2.14-.1-4.77s0-4.77.1-4.77.1,2.13.1,4.77S225,477.2,224.93,477.2Z" style="fill:#263238"></path><path d="M172.66,477.2c-.06,0-.1-2.14-.1-4.77s0-4.77.1-4.77.1,2.13.1,4.77S172.71,477.2,172.66,477.2Z" style="fill:#263238"></path><path d="M120.38,477.2c-.06,0-.1-2.14-.1-4.77s0-4.77.1-4.77.1,2.13.1,4.77S120.44,477.2,120.38,477.2Z" style="fill:#263238"></path><path d="M68.1,477.2s-.1-2.14-.1-4.77,0-4.77.1-4.77.1,2.13.1,4.77S68.16,477.2,68.1,477.2Z" style="fill:#263238"></path><path d="M277.54,477.2c-.05,0-.1-2.14-.1-4.77s.05-4.77.1-4.77.1,2.13.1,4.77S277.6,477.2,277.54,477.2Z" style="fill:#263238"></path><path d="M330.15,477.2s-.1-2.14-.1-4.77.05-4.77.1-4.77.1,2.13.1,4.77S330.21,477.2,330.15,477.2Z" style="fill:#263238"></path><path d="M382.76,477.2c-.05,0-.1-2.14-.1-4.77s0-4.77.1-4.77.1,2.13.1,4.77S382.82,477.2,382.76,477.2Z" style="fill:#263238"></path><path d="M435.37,477.2c-.05,0-.1-2.14-.1-4.77s.05-4.77.1-4.77.1,2.13.1,4.77S435.43,477.2,435.37,477.2Z" style="fill:#263238"></path></g><g id="freepik--Character--inject-102"><circle cx="207.17" cy="459.92" r="8.78" transform="translate(-161 115.11) rotate(-22.63)" style="fill:#263238"></circle><path d="M146.11,441.43c-.07,1,17.82,12.64,24,13s157.38-.18,158.66,0c.72.12,33.32-10.72,30.54-11.82-3.91-1.54-25.52,3.36-32.33,4.33s-157.45-.85-157.45-.85S146.43,436.89,146.11,441.43Z" style="fill:#455a64"></path><circle cx="302.28" cy="457.62" r="8.78" transform="translate(-212.71 646.21) rotate(-76.67)" style="fill:#263238"></circle><polygon points="276.75 420.46 280.74 439.25 293.9 440.43 299.44 434.2 294.37 411.77 276.75 420.46" style="fill:#ffbe9d"></polygon><path d="M196.67,417.13c-.18.61,0,24,0,24l7.38,4.37,9.64-5.77,2-22.64Z" style="fill:#ffbe9d"></path><path d="M302.06,432.11l.05,1.47s25.17,9.28,25.57,14l-49.4-.44.26-14.85C286,435.51,293.67,435.71,302.06,432.11Z" style="fill:#FF725E"></path><g style="opacity:0.6000000000000001"><path d="M283.67,437.42a2,2,0,0,0-1.35,2.34,2,2,0,0,0,2.31,1.35,2.15,2.15,0,0,0,1.41-2.49,2,2,0,0,0-2.56-1.13" style="fill:#fff"></path></g><g style="opacity:0.6000000000000001"><path d="M278.28,447.13l0-2.35,47.35.33s2.23.91,2,2.46Z" style="fill:#fff"></path></g><path d="M302.28,433.71c0,.24-1.21.38-2.37,1.19s-1.78,1.83-2,1.74.11-1.49,1.54-2.44S302.33,433.49,302.28,433.71Z" style="fill:#263238"></path><path d="M307.52,435.73c.06.24-1,.67-1.77,1.71s-1,2.13-1.25,2.12-.43-1.36.59-2.64S307.51,435.5,307.52,435.73Z" style="fill:#263238"></path><path d="M310.61,441.87c-.22.06-.58-1.14,0-2.48s1.71-1.89,1.82-1.69-.58.92-1.05,2S310.85,441.84,310.61,441.87Z" style="fill:#263238"></path><path d="M214.58,435.36s-11.93,8.47-17.71,1.13l-1.51,3.56-6.79,25.32a3.4,3.4,0,0,0,1.91,4.06,3.26,3.26,0,0,0,3.47-.66c4.91-4.67,22.89-21.94,22.72-24.29l-.07-6.21a3.17,3.17,0,0,0-2-2.91Z" style="fill:#FF725E"></path><g style="opacity:0.6000000000000001"><path d="M191.07,469.6l25.6-27.28v1.36c.13,1.47-.52,2.05-1.22,3-2.07,2.8-7.8,9.05-21.4,22.1a3.27,3.27,0,0,1-3,.83Z" style="fill:#fff"></path></g><g style="opacity:0.6000000000000001"><path d="M212.92,438.27a2,2,0,0,0-.55,2.6,1.91,1.91,0,0,0,2.56.57,2.1,2.1,0,0,0,.58-2.75,2,2,0,0,0-2.74-.3" style="fill:#fff"></path></g><path d="M198.45,455.63c-.18.09-.9-1.59-2.8-2.51s-3.65-.52-3.69-.72.38-.32,1.13-.43a5.22,5.22,0,0,1,2.87.52,5.11,5.11,0,0,1,2.15,2C198.48,455.13,198.53,455.6,198.45,455.63Z" style="fill:#263238"></path><path d="M196.15,459.91c-.15.14-1.18-.91-2.83-1.39s-3.08-.22-3.13-.42,1.45-.83,3.33-.25S196.32,459.83,196.15,459.91Z" style="fill:#263238"></path><path d="M202.72,450.15c-.15.15-1.72-1.47-4.23-2.44s-4.74-.92-4.75-1.13,2.34-.61,5,.47S202.88,450.06,202.72,450.15Z" style="fill:#263238"></path><path d="M203.29,442.44c-.09.19-1.85-.56-4.16-.65s-4.13.45-4.2.26,1.76-1.09,4.24-1S203.39,442.29,203.29,442.44Z" style="fill:#263238"></path><path d="M197.82,441.72a2.81,2.81,0,0,1,.18-1.2,8.29,8.29,0,0,1,1.53-2.94,3.77,3.77,0,0,1,1.9-1.46,1.32,1.32,0,0,1,1.41.56,2.1,2.1,0,0,1,.23,1.52,4.63,4.63,0,0,1-4.78,3.47,5.37,5.37,0,0,1-4.68-3.74,1.81,1.81,0,0,1,.2-1.54,1.28,1.28,0,0,1,1.45-.43,4.72,4.72,0,0,1,1.88,1.47,9.49,9.49,0,0,1,1.69,2.85,2.84,2.84,0,0,1,.28,1.18,15.2,15.2,0,0,0-2.34-3.7,4.33,4.33,0,0,0-1.67-1.24.69.69,0,0,0-.79.23,1.28,1.28,0,0,0-.08,1,4.82,4.82,0,0,0,4.1,3.2,4,4,0,0,0,4.11-2.89,1.64,1.64,0,0,0-.12-1.07.72.72,0,0,0-.77-.32,3.44,3.44,0,0,0-1.64,1.21A12.27,12.27,0,0,0,197.82,441.72Z" style="fill:#263238"></path><path d="M233.54,51.11c-3.42-4.28-9.27-6.22-14.72-5.63a25,25,0,0,0-14.41,7.3,50.5,50.5,0,0,0-9.31,13.47c-6.86,13.5-10.73,29.26-6.81,43.89,18.26,2.82,19.89,6.82,38.15,9.64,6-1.47,14.95-11.28,15.84-17.3s.7-13.11,2.4-19,2.9-12,1.67-18A23.27,23.27,0,0,0,229.61,48.1" style="fill:#263238"></path><path d="M203.85,60.49a4.82,4.82,0,0,1,5.16-4l24.16-6.35c8.19.72,13.75,16.58,12.68,24.74a136,136,0,0,1-6.61,26.14c-4.76,13-13.87,11.69-13.87,11.69L218.9,134l-26.15-4.59Z" style="fill:#ffbe9d"></path><path d="M239.76,85.23a1.76,1.76,0,0,1-2,1.41,1.68,1.68,0,0,1-1.47-1.9,1.76,1.76,0,0,1,2-1.42A1.68,1.68,0,0,1,239.76,85.23Z" style="fill:#263238"></path><path d="M242.25,80.59c-.22.13-1.53-.32-3.42-.23s-3.28.64-3.48.53.13-.28.73-.53a8.36,8.36,0,0,1,2.79-.57,7.62,7.62,0,0,1,2.72.33C242.17,80.33,242.36,80.54,242.25,80.59Z" style="fill:#263238"></path><path d="M223.27,81.77a1.76,1.76,0,0,1-2,1.42,1.69,1.69,0,0,1-1.47-1.9,1.76,1.76,0,0,1,2-1.42A1.68,1.68,0,0,1,223.27,81.77Z" style="fill:#263238"></path><path d="M223.72,78.42c-.28,0-1.29-1.13-3.13-2s-3.47-1.08-3.6-1.3.26-.21,1-.14a8.69,8.69,0,0,1,3,.88,8.07,8.07,0,0,1,2.41,1.77C223.78,78.11,223.85,78.42,223.72,78.42Z" style="fill:#263238"></path><path d="M228.1,92a12.57,12.57,0,0,1,3.12,0c.48,0,.95,0,1.09-.27a2.44,2.44,0,0,0,0-1.46l-.69-3.88c-.94-5.51-1.52-10-1.3-10s1.17,4.4,2.1,9.91l.63,3.89a2.77,2.77,0,0,1-.11,1.91,1.28,1.28,0,0,1-.92.54,3.43,3.43,0,0,1-.82-.05A13.18,13.18,0,0,1,228.1,92Z" style="fill:#263238"></path><path d="M225.34,112.88a34.85,34.85,0,0,1-17-8.32s2.23,10.6,15.91,12Z" style="fill:#eb996e"></path><path d="M226.92,96.42a5.07,5.07,0,0,0-3.1-3.06,2.18,2.18,0,0,0-2.32.75,3.44,3.44,0,0,0-.31,3.14,2.87,2.87,0,0,0,2.54,1.91,4.79,4.79,0,0,0,2.62-1,1.63,1.63,0,0,0,.6-.57,1.13,1.13,0,0,0,0-1" style="fill:#eb996e"></path><path d="M222.4,92.19c.3,0-.09,2,1.36,3.82s3.62,2,3.58,2.25c0,.13-.55.29-1.46.14a5.12,5.12,0,0,1-3-1.76,4.46,4.46,0,0,1-1-3.18C221.94,92.61,222.26,92.15,222.4,92.19Z" style="fill:#263238"></path><path d="M226.24,73.39c-.44.33-1.87-.92-3.87-1.93s-3.82-1.49-3.81-2c0-.25.54-.48,1.42-.5a7.54,7.54,0,0,1,5.85,3C226.32,72.67,226.44,73.23,226.24,73.39Z" style="fill:#263238"></path><path d="M243.74,78.23c-.49.34-2-.41-3.89-.82s-3.58-.42-3.86-.93c-.12-.25.22-.62,1-.88a6.56,6.56,0,0,1,3.31,0A6.31,6.31,0,0,1,243.24,77C243.82,77.58,244,78.06,243.74,78.23Z" style="fill:#263238"></path><path d="M233.61,56.3s9.76,5.76,10.94,15.52c.53,4.41-1.44,16.64-1.44,16.64s3.71-9.32,4.34-14.83-.71-12.91-4.11-17.54-6.38-6.9-13.7-7.9a11.79,11.79,0,0,1,4.44,4.94C234.74,54.69,233.44,50.91,233.61,56.3Z" style="fill:#263238"></path><path d="M203.87,82a4.16,4.16,0,0,0-5.28-4.65c-1.57.54-3,2-3.47,5.15-1.32,8.48,7.46,8.06,7.51,7.82S203.35,85.51,203.87,82Z" style="fill:#ffbe9d"></path><path d="M200.54,86.7s-.16.08-.43.16a1.51,1.51,0,0,1-1.1-.15c-.85-.47-1.38-2-1.19-3.55a5,5,0,0,1,.75-2,1.71,1.71,0,0,1,1.28-1,.76.76,0,0,1,.81.54c.08.26,0,.42,0,.44s.21-.11.19-.47a.94.94,0,0,0-.25-.59,1.09,1.09,0,0,0-.78-.34,2.1,2.1,0,0,0-1.75,1.07,5.11,5.11,0,0,0-.88,2.29c-.21,1.71.42,3.45,1.59,4a1.59,1.59,0,0,0,1.38,0C200.5,86.9,200.57,86.72,200.54,86.7Z" style="fill:#eb996e"></path><path d="M213.36,72.85c-.32,3.75-.92,9.15.44,12.66s4.91,6.48,8.62,5.86c2.34-.39,4.25-2.07,5.78-3.88a13.08,13.08,0,0,1,2.22-2.3l.31-.19a1.56,1.56,0,0,1,2.33,1.48,6.45,6.45,0,0,0,7.7,6.78,8.78,8.78,0,0,0,5.71-4.65,26,26,0,0,0,2.24-7.25C246.37,81,244.22,79.85,242,79s-4.77-1.29-7-.35a5.37,5.37,0,0,1-2.46.8c-1.05-.1-1.77-1-2.52-1.79-3.85-3.82-11.34-3.78-16.7-4.85" style="fill:#263238"></path><path d="M201.32,77.3c2.13,2.16,5.72-.67,7.15-3.18a12.65,12.65,0,0,1,4.86-5.25,35.61,35.61,0,0,1,6.92-2.39c3.72-1,7.45-2.35,10.48-4.73a14.67,14.67,0,0,0,5.07-11c-7.07-3.19-15.2-1.76-22.74.06-4.69,1.12-9.51,3-12.45,6.81a17.36,17.36,0,0,0-3.24,9.76c-.17,3.47-2.2,6.11-1.67,9.55" style="fill:#263238"></path><polyline points="213.01 77.46 203.74 78.11 204.24 80.34 213.01 80.34 213.01 77.46" style="fill:#455a64"></polyline><path d="M214,67.46c-6.05,4.82-8.82,12.87-9,20.6s-2.35,14.35-.12,21.75c-3.52-.27-9.38,3.75-11.56,1-1.8-2.29-4.26-12.55-4-15.46,1-13,11.35-27,22.57-32.59" style="fill:#263238"></path><path d="M224.69,87.77s-.18.24-.63.49a4.79,4.79,0,0,1-2.13.54,6.15,6.15,0,0,1-3.15-.82,7.37,7.37,0,0,1-2.73-2.9,13.45,13.45,0,0,1-1.36-7,13,13,0,0,1,.3-2.93,21.15,21.15,0,0,1,.06,2.93,14.51,14.51,0,0,0,1.45,6.73A7.3,7.3,0,0,0,219,87.57a6.06,6.06,0,0,0,2.91.86A6.21,6.21,0,0,0,224.69,87.77Z" style="fill:#455a64"></path><path d="M233.67,84.47c-.13.07-.63-.59-1.53-1s-1.71-.26-1.75-.41.87-.52,2-.07S233.81,84.42,233.67,84.47Z" style="fill:#455a64"></path><path d="M242.47,91.16a2.88,2.88,0,0,1-1.63.71,5.36,5.36,0,0,1-6.38-4.56,2.92,2.92,0,0,1,.15-1.76c.09,0,0,.68.22,1.7a5.38,5.38,0,0,0,6,4.26C241.83,91.4,242.43,91.08,242.47,91.16Z" style="fill:#455a64"></path><path d="M247,82.17a5.55,5.55,0,0,1-.47,2.86,5.5,5.5,0,0,1-1.46,2.51,16.11,16.11,0,0,1,1-2.68A16.41,16.41,0,0,1,247,82.17Z" style="fill:#455a64"></path><path d="M217.05,85.63a37.3,37.3,0,0,1,4.21-3.34,39.14,39.14,0,0,1,4.37-3.15,22.15,22.15,0,0,1-4,3.57A22.22,22.22,0,0,1,217.05,85.63Z" style="fill:#fff"></path><path d="M220.25,85.41a14.69,14.69,0,0,1,3-2.53,15.46,15.46,0,0,1,3.34-2.12,14.91,14.91,0,0,1-3,2.54A15.17,15.17,0,0,1,220.25,85.41Z" style="fill:#fff"></path><path d="M245.13,83.09a22.38,22.38,0,0,1-4,2.52,21.73,21.73,0,0,1-4.27,2.06,22.38,22.38,0,0,1,4-2.52A21.73,21.73,0,0,1,245.13,83.09Z" style="fill:#fff"></path><path d="M242.42,82.7c.06.13-.7.61-1.69,1.08s-1.85.74-1.91.61.69-.62,1.69-1.08S242.35,82.57,242.42,82.7Z" style="fill:#fff"></path><path d="M210.72,69.47c-7.56,2.29-12.06,9.89-18.47,14.49C186.92,87.78,180.39,89.44,174,91a25.27,25.27,0,0,0,9.9,7.77L176.87,101c6.43,13.69,19.07,12.79,29.1,8.39" style="fill:#263238"></path><path d="M234.43,56.84s0,.06,0,.18a3.86,3.86,0,0,1-.13.52,5.67,5.67,0,0,1-1,1.8A18.23,18.23,0,0,1,227,63.55c-2.9,1.36-6.49,2.64-10.39,4.21a45,45,0,0,0-6,2.81,34.57,34.57,0,0,0-5.55,4.31c-1.79,1.64-3.54,3.28-5.34,4.71a55.89,55.89,0,0,1-5.41,3.85,57.16,57.16,0,0,1-10,5.06,55.31,55.31,0,0,1-7.21,2.28c-.87.21-1.55.34-2,.43a3.84,3.84,0,0,1-.71.1,3.19,3.19,0,0,1,.68-.21c.46-.12,1.13-.27,2-.52a63.34,63.34,0,0,0,7.13-2.42,61.2,61.2,0,0,0,9.9-5.12,58.78,58.78,0,0,0,5.35-3.84c1.78-1.43,3.51-3,5.31-4.7a33.68,33.68,0,0,1,5.65-4.37,45.07,45.07,0,0,1,6-2.82c3.93-1.55,7.52-2.79,10.42-4.09a18.75,18.75,0,0,0,6.27-4A6.39,6.39,0,0,0,234.43,56.84Z" style="fill:#455a64"></path><path d="M190.55,77.46a1.76,1.76,0,0,1,.12-.52,10.94,10.94,0,0,1,.54-1.43,16,16,0,0,1,3.21-4.61,23.32,23.32,0,0,1,6.85-4.74,55.39,55.39,0,0,1,9.65-3.28c3.49-.92,6.82-1.76,9.73-2.85a27.41,27.41,0,0,0,7.27-3.81,12.39,12.39,0,0,0,3.59-4.15,19.47,19.47,0,0,0,.76-1.89,1.88,1.88,0,0,1-.08.53,7.59,7.59,0,0,1-.5,1.45,12.1,12.1,0,0,1-3.54,4.35,26.78,26.78,0,0,1-7.33,4,96.64,96.64,0,0,1-9.77,2.91,57.5,57.5,0,0,0-9.58,3.2,23.66,23.66,0,0,0-6.79,4.57,16.87,16.87,0,0,0-3.29,4.44C190.8,76.77,190.6,77.48,190.55,77.46Z" style="fill:#455a64"></path><path d="M207.74,95.71a5.15,5.15,0,0,1-.81,1A21.32,21.32,0,0,1,204.35,99a24.76,24.76,0,0,1-21.74,4.21,22.71,22.71,0,0,1-3.25-1.18,5.41,5.41,0,0,1-1.12-.61c0-.09,1.66.73,4.47,1.43a25.76,25.76,0,0,0,21.42-4.14C206.48,97,207.67,95.63,207.74,95.71Z" style="fill:#455a64"></path><path d="M177.11,93.89a36.4,36.4,0,0,0,4.66,2.32,21.31,21.31,0,0,0,23.07-5.12A35.59,35.59,0,0,0,208.08,87a5.74,5.74,0,0,1-.65,1.25,18.44,18.44,0,0,1-2.33,3.08,20.94,20.94,0,0,1-23.46,5.2,19.58,19.58,0,0,1-3.41-1.8A5.89,5.89,0,0,1,177.11,93.89Z" style="fill:#455a64"></path><path d="M169,85.35c-.1-.13.21-.64,1.16-1.09a7.64,7.64,0,0,1,4.23-.34,41.4,41.4,0,0,0,5.6.81,19.67,19.67,0,0,0,6.57-1c4.57-1.47,8.22-4.17,10.86-6.09s4.32-3.19,4.58-2.92-1,1.94-3.38,4.32a35.24,35.24,0,0,1-4.6,3.82,25.63,25.63,0,0,1-6.66,3.35,19.3,19.3,0,0,1-7.51.93,16.27,16.27,0,0,1-3.26-.62L174,85.73a9.29,9.29,0,0,0-3.57-.5C169.61,85.32,169.12,85.51,169,85.35Z" style="fill:#263238"></path><path d="M160.31,153.25s-10.56,11.76-9.1,13,5.43,2.09,5.43,2.09L143.7,176.9l23,10.64,91.58,50.22,2.09-76.3Z" style="fill:#455a64"></path><path d="M191.59,209.12s-8.24,14.06-12.3,28.7-6.14,34.81-2,47.95,5.56,60.58,8.31,73.73c2.26,10.82,7.27,53.21,10.86,66.65H217l5.84-153.44s32.68,87.44,36.86,97.6,16.43,53.45,16.43,53.45l21.2-3.28s-12.84-75-16.72-92.88-14.93-66.6-19.41-81.83-8.79-30.32-16.81-39.08Z" style="fill:#263238"></path><g style="opacity:0.30000000000000004"><path d="M191,341.07l.23-.09A.46.46,0,0,0,191,341.07Z"></path><path d="M194.25,341.87a.51.51,0,0,1-.19-.55c-.47.24-.93.48-1.41.7a1.75,1.75,0,0,1-1.52.13.72.72,0,0,1-.13-1.08,2.91,2.91,0,0,1-1.8.25c-.68-.18-1.21-1-.81-1.6s1-.47,1.52-.75c1.38-.74,2.61-3.86,2.24-4.09a6.44,6.44,0,0,0-6.76,2.84c-.47.78-.77,1.65-1.27,2.41-.19.3-.42.58-.63.86q.15,1.8.3,3.51c.89.13,2-.34,2.94-.14a10.19,10.19,0,0,1,2,1,4.31,4.31,0,0,0,4.54-1,10.36,10.36,0,0,0,2.19-3.11l-.33.32C194.86,341.79,194.53,342,194.25,341.87Z"></path><path d="M212.58,370.54l-.18-.17A.33.33,0,0,0,212.58,370.54Z"></path><path d="M214.52,377.21a15.8,15.8,0,0,0,2.24.43,1.86,1.86,0,0,0,1.86-1c.43-1.21-1-2.24-1.3-3.5a10.23,10.23,0,0,1,.12-2.2,4.35,4.35,0,0,0-2.77-3.74,10.79,10.79,0,0,0-4-.74,1.79,1.79,0,0,1,.64,1c.51.39,1,.79,1.49,1.22a1.72,1.72,0,0,1,.74,1.33.71.71,0,0,1-.93.55,3,3,0,0,1,1,1.55c.11.69-.45,1.52-1.14,1.39s-.84-.73-1.3-1.08c-1.23-1-4.59-.82-4.64-.39a6.4,6.4,0,0,0,5.33,5C212.7,377.15,213.62,377.07,214.52,377.21Z"></path><path d="M198.43,335l.06.05h0Z"></path><path d="M199,337.21a1.89,1.89,0,0,0-.55-2.17,5.49,5.49,0,0,0-2.51-.24,3.33,3.33,0,0,0-2.19,1.28,2.36,2.36,0,0,0-.2,2.45c.34.61,1,1.15.87,1.84a4.62,4.62,0,0,1-.35.75.65.65,0,0,0-.05.2.51.51,0,0,0,.19.55c.28.16.61-.08.85-.3l.33-.32,2.12-2.06A5.43,5.43,0,0,0,199,337.21Z"></path><path d="M209.6,340.57a3.91,3.91,0,0,0-2.2.82c-.69.39-1.64.64-2.22.09s-.25-1.8.47-2.36,1.66-.74,2.44-1.22,1.4-1.49.95-2.28l-.37-.05c-.95-.42-.78-.73-1.67-1.26a3.15,3.15,0,0,0-2.95-.39c-1.07.54-1.42,1.88-1.65,3.06-.33,1.69-.67,3.39-1,5.09a5.6,5.6,0,0,0,0,3.22,3.6,3.6,0,0,0,3.47,1.93,7.83,7.83,0,0,0,3.89-1.48,5,5,0,0,0,2.24-2.51A2,2,0,0,0,209.6,340.57Z"></path><path d="M186.24,351.14c-.54-.71-1.1-.78-1.93-1.25.14,1.35.28,2.63.43,3.82a4.77,4.77,0,0,0,.55-.29C186.07,352.94,186.69,351.93,186.24,351.14Z"></path><path d="M186.8,356.09a2.8,2.8,0,0,0-1.67.51c.17,1.09.34,2.07.51,2.9.11.51.22,1.1.34,1.75a5,5,0,0,0,2.24-2.5A2.06,2.06,0,0,0,186.8,356.09Z"></path><path d="M216.22,356.91a5.53,5.53,0,0,0,1.93,2.58,2.88,2.88,0,0,0,1.4.38l.23-5.94a1.2,1.2,0,0,1-.87.26c-.91-.11-1.28-1.3-1-2.18s.89-1.58,1.23-2.43.23-2-.6-2.4l-.33.19c-1,.22-1.05-.13-2.08,0a3.14,3.14,0,0,0-2.61,1.45c-.54,1.07,0,2.35.49,3.44Q215.12,354.57,216.22,356.91Z"></path><path d="M216.62,336.55a2.29,2.29,0,0,0-1.74,1.45,6.41,6.41,0,0,0,.08,2.22c0,.56-.08,1.12-.09,1.69a2.34,2.34,0,0,0,.45,1.59,3,3,0,0,0,1.76.78,3.29,3.29,0,0,0,2.84-.3,2.26,2.26,0,0,0,.25-.28l.26-6.93a14.32,14.32,0,0,1-1.45-.17A6.25,6.25,0,0,0,216.62,336.55Z"></path><path d="M201.83,368a4.35,4.35,0,0,0-1.59-2.81,4,4,0,0,0-1.46-1.11,1.41,1.41,0,0,0-1.66.44c-.42.7.09,1.56.32,2.34a3,3,0,0,1-1.86,3.65,2.5,2.5,0,0,1-3.13-2.3c.1-2,2.79-3.31,2.5-5.28a5.22,5.22,0,0,0-6,.17,4.77,4.77,0,0,0-1.18,5.57c.35.72.87,1.33,1.26,2,.77,1.4,1,3.14,2.08,4.29,1.52,1.58,4.24,1.38,6,.14a13.81,13.81,0,0,0,4-5.15A4.27,4.27,0,0,0,201.83,368Z"></path><path d="M205,361.11c0,.72.84,1.12,1.55,1.24a7,7,0,0,0,4.54-.76v0c.09-1.37-1.92-2.12-2-3.5,0-.79.59-1.43.91-2.15.59-1.35,0-2.91-.51-4.28a2.59,2.59,0,0,0-3.52-2.08c-1.82.3-3.79.68-5,2-1.58,1.71-1.46,4.4-.73,6.62a3.63,3.63,0,0,0,.9,1.6,1.48,1.48,0,0,0,1.72.27,1.91,1.91,0,0,0,.5-2.14,5,5,0,0,1-.37-2.3,2,2,0,0,1,2.54-1.36,2.65,2.65,0,0,1,1.76,2.47,3.88,3.88,0,0,1-1.31,2.86C205.54,360.09,205,360.51,205,361.11Z"></path><path d="M194.52,351.05a6.9,6.9,0,0,0-3.79.7,1.59,1.59,0,0,0-.82.73.66.66,0,0,0,.4.9,3.91,3.91,0,0,1,1.48,1.81,11.06,11.06,0,0,1,.5,2.06,2.71,2.71,0,0,0,1.38,2,2.3,2.3,0,0,0,2.59-.94,6.89,6.89,0,0,0,1-2.78,4.39,4.39,0,0,0-.21-3.18A3.36,3.36,0,0,0,194.52,351.05Z"></path><path d="M210.64,366.42h0a4.47,4.47,0,0,0-1.85-.73,3,3,0,0,0-2.16.06,2.23,2.23,0,0,0-.93,1.65,4.6,4.6,0,0,0,.37,2.59,1,1,0,0,0,.47.57.44.44,0,0,0,.62-.24l0,.29a1.38,1.38,0,0,1,1-1.23,11.43,11.43,0,0,1,1.67-.3,1.85,1.85,0,0,0,1.37-.88,1.21,1.21,0,0,0,.08-.75A1.79,1.79,0,0,0,210.64,366.42Z"></path><path d="M181.39,285.66c-.53.88-.87,1.88-1.44,2.74a19.09,19.09,0,0,0-1.47,2.12h0c.16.81.31,1.67.46,2.57,1.06.67,2.66-.2,4,.08a12,12,0,0,1,2.22,1.14,4.89,4.89,0,0,0,5.14-1.14,12,12,0,0,0,2.47-3.52l-.37.36c-.27.25-.65.53-1,.34a.58.58,0,0,1-.22-.63c-.52.29-1.05.56-1.6.8a1.93,1.93,0,0,1-1.71.15.81.81,0,0,1-.15-1.22,3.38,3.38,0,0,1-2,.28c-.76-.2-1.36-1.16-.91-1.81s1.15-.54,1.72-.84c1.56-.84,3-4.38,2.53-4.63A7.27,7.27,0,0,0,181.39,285.66Z"></path><path d="M187.73,289.46l.26-.1A.42.42,0,0,0,187.73,289.46Z"></path><path d="M214.33,330.34a18.62,18.62,0,0,0,2.54.48,2.11,2.11,0,0,0,2.11-1.18c.48-1.36-1.18-2.53-1.48-3.95a11.64,11.64,0,0,1,.14-2.49,4.9,4.9,0,0,0-3.13-4.23,12.38,12.38,0,0,0-4.56-.84,2,2,0,0,1,.72,1.15c.58.44,1.15.89,1.68,1.38a2,2,0,0,1,.85,1.51.82.82,0,0,1-1.06.63,3.36,3.36,0,0,1,1.09,1.75c.12.78-.51,1.71-1.29,1.56-.63-.12-1-.82-1.47-1.22-1.4-1.08-5.2-.92-5.26-.43a7.25,7.25,0,0,0,6,5.67C212.27,330.26,213.32,330.17,214.33,330.34Z"></path><path d="M212.14,322.8l-.2-.2A.48.48,0,0,0,212.14,322.8Z"></path><path d="M196.13,282.58a.18.18,0,0,1,.07.05l.06,0Z"></path><path d="M191.41,290.36c.31.19.69-.09,1-.34l.37-.36,2.4-2.33a6.24,6.24,0,0,0,1.69-2.24,2.15,2.15,0,0,0-.63-2.46,6.38,6.38,0,0,0-2.84-.27,3.79,3.79,0,0,0-2.47,1.45,2.69,2.69,0,0,0-.23,2.77c.39.69,1.16,1.31,1,2.08a5.48,5.48,0,0,1-.4.85.9.9,0,0,0-.06.22A.58.58,0,0,0,191.41,290.36Z"></path><path d="M204.31,287.26a29.49,29.49,0,0,1,2.75-1.39c.88-.54,1.58-1.68,1.07-2.58l-.41-.05c-1.08-.48-.88-.83-1.89-1.43a3.57,3.57,0,0,0-3.34-.44c-1.21.61-1.6,2.12-1.87,3.46q-.56,2.88-1.13,5.75a6.38,6.38,0,0,0,0,3.65,4.06,4.06,0,0,0,3.92,2.18,8.85,8.85,0,0,0,4.4-1.67,5.69,5.69,0,0,0,2.54-2.84c.37-1.24-.31-2.86-1.6-3a4.4,4.4,0,0,0-2.48.93c-.79.44-1.86.72-2.52.1S203.49,287.88,204.31,287.26Z"></path><path d="M184.58,309.45c.38-1.24-.31-2.86-1.59-3a4,4,0,0,0-2.31.83q.27,2.7.52,5.54c.29-.17.57-.34.84-.52A5.6,5.6,0,0,0,184.58,309.45Z"></path><path d="M182.35,300.84c-.64-.83-1.29-.87-2.3-1.48l-.26-.14c.19,1.5.37,3.06.54,4.67a5.59,5.59,0,0,0,.95-.47C182.15,302.88,182.86,301.74,182.35,300.84Z"></path><path d="M219.3,304.29c-1-.12-1.44-1.46-1.16-2.45s1-1.8,1.39-2.76.27-2.29-.67-2.71l-.37.21c-1.14.25-1.19-.14-2.36,0a3.59,3.59,0,0,0-2.95,1.64c-.61,1.21,0,2.66.56,3.89l2.52,5.29a6.25,6.25,0,0,0,2.18,2.92,3.63,3.63,0,0,0,3,.21l.34-8.93c-.19.37-.34.77-.51,1.15C220.89,303.54,220.19,304.4,219.3,304.29Z"></path><path d="M222.05,284.57a9.22,9.22,0,0,1-2.67-.17,7.07,7.07,0,0,0-2.67-.06,2.61,2.61,0,0,0-2,1.64,7.34,7.34,0,0,0,.09,2.51c0,.64-.09,1.27-.1,1.91a2.73,2.73,0,0,0,.51,1.81,3.46,3.46,0,0,0,2,.88c1.09.22,2.36.4,3.2-.34a3.66,3.66,0,0,0,.93-1.76l.92-3,.12-3.26Z"></path><path d="M200,320c0-1.25-.93-2.28-1.8-3.18a4.47,4.47,0,0,0-1.65-1.25,1.58,1.58,0,0,0-1.87.49c-.48.79.1,1.77.36,2.65a3.44,3.44,0,0,1-2.1,4.14,2.83,2.83,0,0,1-3.54-2.61c.1-2.26,3.15-3.74,2.82-6a5.93,5.93,0,0,0-6.78.2,5.41,5.41,0,0,0-1.33,6.3c.39.81,1,1.51,1.42,2.3.88,1.59,1.11,3.55,2.36,4.85,1.72,1.79,4.79,1.56,6.84.16s3.32-3.65,4.5-5.83A4.85,4.85,0,0,0,200,320Z"></path><path d="M198.17,308.92a4.1,4.1,0,0,0,1,1.82,1.67,1.67,0,0,0,1.94.3,2.15,2.15,0,0,0,.57-2.42,5.65,5.65,0,0,1-.42-2.6,2.31,2.31,0,0,1,2.88-1.54,3,3,0,0,1,2,2.8,4.33,4.33,0,0,1-1.48,3.23c-.49.46-1.11.94-1.1,1.61s.95,1.27,1.75,1.41a8,8,0,0,0,5.13-.86v0c.11-1.55-2.16-2.4-2.23-4,0-.89.68-1.61,1-2.43.66-1.53,0-3.29-.58-4.84a2.93,2.93,0,0,0-4-2.35c-2.06.34-4.29.77-5.7,2.3C197.21,303.37,197.34,306.42,198.17,308.92Z"></path><path d="M188.62,305.42a11.59,11.59,0,0,1,.57,2.34,3.05,3.05,0,0,0,1.56,2.23,2.57,2.57,0,0,0,2.93-1.06,7.46,7.46,0,0,0,1.09-3.14,4.94,4.94,0,0,0-.23-3.6,3.8,3.8,0,0,0-2.83-1.44,7.77,7.77,0,0,0-4.29.78,1.84,1.84,0,0,0-.92.84.74.74,0,0,0,.45,1A4.39,4.39,0,0,1,188.62,305.42Z"></path><path d="M210,318.13h0a5.13,5.13,0,0,0-2.1-.82,3.31,3.31,0,0,0-2.44.06,2.51,2.51,0,0,0-1.05,1.87,5.26,5.26,0,0,0,.41,2.93,1.24,1.24,0,0,0,.54.65.51.51,0,0,0,.7-.28l0,.33a1.56,1.56,0,0,1,1.12-1.39,11.87,11.87,0,0,1,1.89-.34,2.08,2.08,0,0,0,1.55-1,1.38,1.38,0,0,0,.09-.85A2,2,0,0,0,210,318.13Z"></path><path d="M186.87,245.11l.23-.09A.34.34,0,0,0,186.87,245.11Z"></path><path d="M178.88,248.17c.93.88,2.47,0,3.72.23a9.84,9.84,0,0,1,2,1,4.37,4.37,0,0,0,4.55-1,10.56,10.56,0,0,0,2.18-3.12l-.33.32c-.23.23-.57.47-.85.3a.52.52,0,0,1-.19-.55c-.46.25-.93.49-1.41.7a1.75,1.75,0,0,1-1.52.14.72.72,0,0,1-.12-1.08,3,3,0,0,1-1.81.25c-.68-.18-1.2-1-.8-1.6s1-.48,1.52-.75c1.37-.74,2.61-3.87,2.24-4.09a6.41,6.41,0,0,0-6.76,2.83c-.47.78-.77,1.66-1.27,2.42a14.88,14.88,0,0,0-1.3,1.87A1.86,1.86,0,0,0,178.88,248.17Z"></path><path d="M207.14,271.47c.51.39,1,.79,1.49,1.22a1.77,1.77,0,0,1,.75,1.33.72.72,0,0,1-.94.56,3,3,0,0,1,1,1.55c.11.69-.45,1.52-1.14,1.38s-.85-.73-1.3-1.08c-1.24-.95-4.6-.81-4.65-.38a6.42,6.42,0,0,0,5.34,5c.9.11,1.82,0,2.72.18a17.31,17.31,0,0,0,2.24.42,1.88,1.88,0,0,0,1.87-1c.42-1.21-1-2.25-1.31-3.5a10.24,10.24,0,0,1,.13-2.2,4.33,4.33,0,0,0-2.77-3.74,10.79,10.79,0,0,0-4-.74A1.8,1.8,0,0,1,207.14,271.47Z"></path><path d="M208.44,274.58c-.06-.06-.11-.12-.17-.17A.4.4,0,0,0,208.44,274.58Z"></path><path d="M194.29,239l.06,0,.05,0Z"></path><path d="M190.11,245.9c.28.17.62-.07.85-.3l.33-.32,2.12-2.06a5.51,5.51,0,0,0,1.5-2,1.89,1.89,0,0,0-.56-2.18,5.78,5.78,0,0,0-2.51-.24,3.35,3.35,0,0,0-2.18,1.28,2.36,2.36,0,0,0-.2,2.46c.33.61,1,1.15.87,1.83a5.12,5.12,0,0,1-.35.75.76.76,0,0,0-.06.2A.52.52,0,0,0,190.11,245.9Z"></path><path d="M201.52,243.16a26.25,26.25,0,0,1,2.43-1.22c.78-.48,1.4-1.49,1-2.28l-.37,0c-.95-.42-.77-.73-1.66-1.26a3.14,3.14,0,0,0-3-.39c-1.07.54-1.42,1.87-1.65,3q-.49,2.55-1,5.09a5.52,5.52,0,0,0,0,3.22,3.57,3.57,0,0,0,3.46,1.93,7.76,7.76,0,0,0,3.89-1.48,5,5,0,0,0,2.25-2.5,2.07,2.07,0,0,0-1.42-2.67,3.86,3.86,0,0,0-2.19.83c-.69.39-1.65.63-2.22.08S200.79,243.71,201.52,243.16Z"></path><path d="M177.94,266.77a7.83,7.83,0,0,0,3.9-1.48,5,5,0,0,0,2.24-2.51,2.06,2.06,0,0,0-1.41-2.66,3.91,3.91,0,0,0-2.2.82,1.92,1.92,0,0,1-2.22.09c-.66-.62-.25-1.8.47-2.35s1.66-.75,2.44-1.23,1.39-1.48,1-2.28-1.15-.77-2-1.31a3.18,3.18,0,0,0-2.95-.39,2.66,2.66,0,0,0-1.21,1.46c-.45,3.59-.74,7.22-.83,10.78A3.88,3.88,0,0,0,177.94,266.77Z"></path><path d="M209.36,252.82c-.54,1.08,0,2.36.5,3.44l2.22,4.69a5.63,5.63,0,0,0,1.93,2.58A3.6,3.6,0,0,0,218,263a7.92,7.92,0,0,0,2.24-3.51,4.94,4.94,0,0,0,.31-3.35,2.05,2.05,0,0,0-2.72-1.3,3.83,3.83,0,0,0-1.27,2c-.33.73-.95,1.49-1.74,1.39s-1.27-1.29-1-2.17a26.36,26.36,0,0,1,1.23-2.43c.34-.85.24-2-.6-2.4l-.32.18c-1,.23-1.06-.12-2.09,0A3.18,3.18,0,0,0,209.36,252.82Z"></path><path d="M212.48,240.58a2.31,2.31,0,0,0-1.74,1.45,6.65,6.65,0,0,0,.08,2.22c0,.57-.07,1.13-.09,1.69a2.36,2.36,0,0,0,.46,1.6,3.06,3.06,0,0,0,1.76.78,2.48,2.48,0,0,0,3.66-1.86l1.58-5.12-1-.56a8.16,8.16,0,0,1-2.36-.14A6.25,6.25,0,0,0,212.48,240.58Z"></path><path d="M178.24,269.52a5.23,5.23,0,0,0-2,0,2.08,2.08,0,0,0-1.21.74c0,1.77.14,3.51.3,5.2a2.89,2.89,0,0,0,1.3.49,2.76,2.76,0,0,0,2.36-.25,2.63,2.63,0,0,0,.68-1.3l1.32-4.25-.82-.47A6.81,6.81,0,0,1,178.24,269.52Z"></path><path d="M183.64,272.74c.35.72.88,1.34,1.26,2,.78,1.4,1,3.14,2.09,4.29,1.52,1.58,4.23,1.37,6,.14s2.94-3.23,4-5.15a3.25,3.25,0,0,0-.91-4.8,4.15,4.15,0,0,0-1.46-1.11,1.4,1.4,0,0,0-1.65.44c-.43.7.09,1.56.31,2.35a3,3,0,0,1-1.85,3.65,2.5,2.5,0,0,1-3.13-2.3c.09-2,2.79-3.31,2.49-5.29a5.22,5.22,0,0,0-6,.18A4.76,4.76,0,0,0,183.64,272.74Z"></path><path d="M196.1,262.31a3.62,3.62,0,0,0,.9,1.61,1.47,1.47,0,0,0,1.71.27,1.93,1.93,0,0,0,.51-2.14,5,5,0,0,1-.38-2.3,2.06,2.06,0,0,1,2.55-1.37,2.68,2.68,0,0,1,1.75,2.48,3.91,3.91,0,0,1-1.3,2.86c-.44.41-1,.83-1,1.42s.84,1.13,1.55,1.25a7.06,7.06,0,0,0,4.53-.76v0c.09-1.38-1.91-2.13-2-3.5,0-.79.6-1.43.91-2.15.59-1.36.05-2.91-.5-4.29a3.47,3.47,0,0,0-1.43-2,3.41,3.41,0,0,0-2.1-.09c-1.82.3-3.78.68-5,2C195.25,257.41,195.36,260.1,196.1,262.31Z"></path><path d="M187.65,259.22a11.18,11.18,0,0,1,.51,2.07,2.71,2.71,0,0,0,1.37,2,2.28,2.28,0,0,0,2.59-.94,6.6,6.6,0,0,0,1-2.78,4.36,4.36,0,0,0-.21-3.17,3.29,3.29,0,0,0-2.49-1.28,6.93,6.93,0,0,0-3.8.69,1.65,1.65,0,0,0-.82.74.65.65,0,0,0,.4.89A3.9,3.9,0,0,1,187.65,259.22Z"></path><path d="M206.51,270.46h0a4.56,4.56,0,0,0-1.86-.73,2.94,2.94,0,0,0-2.15,0,2.26,2.26,0,0,0-.94,1.66,4.72,4.72,0,0,0,.37,2.59,1.13,1.13,0,0,0,.48.57.43.43,0,0,0,.61-.24l0,.29a1.37,1.37,0,0,1,1-1.23,9.32,9.32,0,0,1,1.66-.3,1.81,1.81,0,0,0,1.37-.88,1.17,1.17,0,0,0,.08-.76A1.8,1.8,0,0,0,206.51,270.46Z"></path><path d="M194.64,387.44a.53.53,0,0,1-.2-.56c-.46.25-.93.49-1.41.7a1.7,1.7,0,0,1-1.51.14.72.72,0,0,1-.13-1.08,3.46,3.46,0,0,1-1.53.3c.21,1.42.41,2.85.62,4.29a4.85,4.85,0,0,0,3.15-1.3,10.38,10.38,0,0,0,2.18-3.12l-.33.32C195.25,387.36,194.91,387.6,194.64,387.44Z"></path><path d="M192.54,380.45a6.3,6.3,0,0,0-3.57.26c.19,1.35.39,2.72.59,4.1a4.66,4.66,0,0,0,.74-.27C191.67,383.8,192.91,380.67,192.54,380.45Z"></path><path d="M191.39,386.64l.23-.09A.4.4,0,0,0,191.39,386.64Z"></path><path d="M217.46,414.93a4.94,4.94,0,0,0-2.4-2.2,10.79,10.79,0,0,0-4-.74,1.83,1.83,0,0,1,.63,1c.52.38,1,.79,1.5,1.22a1.72,1.72,0,0,1,.74,1.33.72.72,0,0,1-.94.55,3,3,0,0,1,1,1.55c.11.69-.45,1.52-1.14,1.39s-.85-.73-1.3-1.09c-1.23-.95-4.6-.81-4.65-.38a6.41,6.41,0,0,0,5.34,5c.9.12,1.83,0,2.72.18a19.23,19.23,0,0,0,2.24.43Z"></path><path d="M213,416.11l-.17-.17A.35.35,0,0,0,213,416.11Z"></path><path d="M199.43,382.78a1.89,1.89,0,0,0-.55-2.17,5.55,5.55,0,0,0-2.52-.24,3.34,3.34,0,0,0-2.18,1.27,2.38,2.38,0,0,0-.2,2.46c.34.61,1,1.15.87,1.83a5.23,5.23,0,0,1-.35.76.7.7,0,0,0-.06.19.53.53,0,0,0,.2.56c.27.16.61-.08.84-.31l.33-.32,2.13-2.05A5.72,5.72,0,0,0,199.43,382.78Z"></path><path d="M198.81,380.56s0,0,.07.05h.05Z"></path><path d="M210,386.14a3.91,3.91,0,0,0-2.2.82c-.69.39-1.64.64-2.22.09s-.25-1.8.47-2.36,1.66-.74,2.44-1.22,1.39-1.49.94-2.28l-.37-.05c-.94-.42-.77-.73-1.66-1.26a3.15,3.15,0,0,0-2.95-.39c-1.08.54-1.42,1.88-1.66,3.06l-1,5.09a5.52,5.52,0,0,0,0,3.22,3.6,3.6,0,0,0,3.46,1.93,7.76,7.76,0,0,0,3.89-1.48,5,5,0,0,0,2.25-2.51A2.06,2.06,0,0,0,210,386.14Z"></path><path d="M216.61,402.48a7.89,7.89,0,0,0,1.24,2l.44-11.52c-.74.1-.88-.17-1.8-.08a3.13,3.13,0,0,0-2.6,1.45c-.54,1.07,0,2.35.49,3.44Q215.49,400.14,216.61,402.48Z"></path><path d="M215.71,389.07a3.06,3.06,0,0,0,1.76.78,9.23,9.23,0,0,0,.94.14l.3-7.91a4.85,4.85,0,0,0-1.7,0,2.3,2.3,0,0,0-1.75,1.44,6.65,6.65,0,0,0,.09,2.22c0,.57-.08,1.13-.09,1.7A2.29,2.29,0,0,0,215.71,389.07Z"></path><path d="M197.56,420.74c1.81-1.23,2.93-3.22,4-5.15a3.27,3.27,0,0,0-.91-4.8,4,4,0,0,0-1.47-1.1,1.39,1.39,0,0,0-1.65.44c-.42.69.09,1.56.32,2.34a3,3,0,0,1-1.86,3.65,2.33,2.33,0,0,1-1.6-.12c.37,2,.73,3.93,1.08,5.62A5.78,5.78,0,0,0,197.56,420.74Z"></path><path d="M195.34,408.53a4.87,4.87,0,0,0-2.37-.82q.34,2.16.69,4.2C194.46,410.82,195.52,409.82,195.34,408.53Z"></path><path d="M205.38,406.67c0,.73.84,1.13,1.55,1.25a7,7,0,0,0,4.53-.76v0c.09-1.38-1.91-2.13-2-3.5,0-.79.6-1.43.92-2.15.59-1.35,0-2.91-.51-4.28a3.5,3.5,0,0,0-1.42-2,3.44,3.44,0,0,0-2.11-.09c-1.82.3-3.78.68-5,2-1.58,1.71-1.47,4.4-.73,6.62a3.53,3.53,0,0,0,.9,1.6,1.48,1.48,0,0,0,1.72.27,1.92,1.92,0,0,0,.5-2.14,5,5,0,0,1-.38-2.3,2,2,0,0,1,2.55-1.36,2.66,2.66,0,0,1,1.75,2.47,3.84,3.84,0,0,1-1.3,2.86C205.92,405.66,205.37,406.08,205.38,406.67Z"></path><path d="M196.65,403.86a6.72,6.72,0,0,0,1-2.79,4.26,4.26,0,0,0-.21-3.17,3.33,3.33,0,0,0-2.49-1.28,6.86,6.86,0,0,0-3.55.58l.42,2.83a4.57,4.57,0,0,1,.4.72,11.16,11.16,0,0,1,.5,2.07,2.73,2.73,0,0,0,1.38,2A2.3,2.3,0,0,0,196.65,403.86Z"></path><path d="M211,412h0a4.51,4.51,0,0,0-1.86-.73,2.94,2.94,0,0,0-2.15.06,2.19,2.19,0,0,0-.93,1.65,4.69,4.69,0,0,0,.36,2.59,1.09,1.09,0,0,0,.48.57c.23.11.57,0,.61-.24l0,.29a1.38,1.38,0,0,1,1-1.23,10.31,10.31,0,0,1,1.66-.3,1.85,1.85,0,0,0,1.38-.88,1.21,1.21,0,0,0,.07-.75A1.83,1.83,0,0,0,211,412Z"></path><path d="M292.44,408.11a10.4,10.4,0,0,0-1.3,3.58l.23-.4c.17-.28.43-.6.74-.51a.51.51,0,0,1,.33.48c.38-.36.77-.71,1.18-1a1.71,1.71,0,0,1,1.43-.52.71.71,0,0,1,.4,1l.21-.14c-.24-1.38-.5-2.86-.77-4.45A5,5,0,0,0,292.44,408.11Z"></path><path d="M295.45,410.71l-.19.14A.31.31,0,0,0,295.45,410.71Z"></path><path d="M296.23,413.89c-.47,1.36-.57,3-.28,3.09a7.22,7.22,0,0,0,.8-.08C296.6,416,296.43,415,296.23,413.89Z"></path><path d="M267,387.83l.22.12A.4.4,0,0,0,267,387.83Z"></path><path d="M269.92,391.31a1.74,1.74,0,0,1-.87-.82c-.6-.24-1.19-.5-1.76-.79s-1-.57-1.06-1.09a.71.71,0,0,1,.75-.78,3,3,0,0,1-1.33-1.25c-.28-.64,0-1.58.74-1.63s1,.49,1.54.71c1.44.6,4.65-.41,4.59-.84a6.42,6.42,0,0,0-6.46-3.46c-.79.11-1.56.36-2.35.48,1,3.05,2,6.42,3.07,9.87A13.45,13.45,0,0,0,269.92,391.31Z"></path><path d="M289.86,418.51l-.07,0h-.06Z"></path><path d="M292.11,410.78c-.31-.09-.57.23-.74.51l-.23.4-1.52,2.53a5.41,5.41,0,0,0-.93,2.3,1.9,1.9,0,0,0,1.1,2,5.82,5.82,0,0,0,2.48-.42,3.34,3.34,0,0,0,1.78-1.8,2.36,2.36,0,0,0-.44-2.43c-.48-.5-1.28-.85-1.31-1.54a3.8,3.8,0,0,1,.14-.82.74.74,0,0,0,0-.21A.51.51,0,0,0,292.11,410.78Z"></path><path d="M277.62,416c.79-.12,1.34-.81,1.91-1.36s1.42-1,2.12-.66.72,1.67.16,2.39-1.41,1.15-2,1.82a1.85,1.85,0,0,0-.32,2.44l.37-.05c1,.16.93.51,1.93.79a3.13,3.13,0,0,0,3-.39c.89-.8.88-2.18.8-3.38-.12-1.72-.24-3.45-.35-5.17a5.62,5.62,0,0,0-.85-3.11,3.62,3.62,0,0,0-3.85-1,7.89,7.89,0,0,0-3.37,2.44,4.94,4.94,0,0,0-1.52,3C275.53,415,276.49,416.18,277.62,416Z"></path><path d="M271.75,408.45a2.64,2.64,0,0,0-.29-1C271.56,407.8,271.66,408.13,271.75,408.45Z"></path><path d="M289.67,381.54c-1.11-1.15-1.75-2.78-3.12-3.6-1.88-1.13-4.45-.24-5.88,1.43a13.88,13.88,0,0,0-2.51,6,4.3,4.3,0,0,0-.15,2.1,4.39,4.39,0,0,0,2.27,2.3,4,4,0,0,0,1.7.69,1.4,1.4,0,0,0,1.48-.85c.23-.79-.49-1.49-.91-2.18a3,3,0,0,1,.85-4,2.5,2.5,0,0,1,3.62,1.41c.42,1.95-1.84,3.92-1,5.75a5.22,5.22,0,0,0,5.74-1.72,1.37,1.37,0,0,0,.13-.2c-.35-2-.7-4.05-1.07-6.11C290.4,382.21,290,381.9,289.67,381.54Z"></path><path d="M274.81,405.24a2.6,2.6,0,0,0,3.95,1.09c1.68-.76,3.48-1.63,4.34-3.27,1.08-2.06.27-4.63-1-6.58a3.71,3.71,0,0,0-1.29-1.32,1.5,1.5,0,0,0-1.73.18,1.93,1.93,0,0,0,.07,2.2,5,5,0,0,1,1,2.13,2.05,2.05,0,0,1-2.11,2,2.64,2.64,0,0,1-2.33-1.93,3.87,3.87,0,0,1,.52-3.1c.31-.51.74-1.06.57-1.63s-1.1-.87-1.82-.8a7,7,0,0,0-4.18,1.91l0,0c.27,1.35,2.4,1.56,2.81,2.87.24.75-.21,1.53-.32,2.31C273,402.69,273.93,404.05,274.81,405.24Z"></path><path d="M289.47,402a7,7,0,0,0,3.49-1.65,1.68,1.68,0,0,0,.6-.93c0-.37-.25-.8-.62-.76a3.87,3.87,0,0,1-1.9-1.36,10.55,10.55,0,0,1-1-1.87,2.73,2.73,0,0,0-1.84-1.55,2.31,2.31,0,0,0-2.26,1.58,6.61,6.61,0,0,0-.21,2.94,4.34,4.34,0,0,0,1,3A3.31,3.31,0,0,0,289.47,402Z"></path><path d="M269.92,391.31h0a4.59,4.59,0,0,0,2,.23,3,3,0,0,0,2.06-.61,2.22,2.22,0,0,0,.47-1.84,4.65,4.65,0,0,0-1-2.41,1.1,1.1,0,0,0-.61-.43c-.25,0-.55.14-.53.4l-.1-.28a1.37,1.37,0,0,1-.64,1.45,11.28,11.28,0,0,1-1.53.72,1.87,1.87,0,0,0-1.1,1.2,1.22,1.22,0,0,0,.13.75A1.74,1.74,0,0,0,269.92,391.31Z"></path><path d="M283.28,366.79l-.2.15A.38.38,0,0,0,283.28,366.79Z"></path><path d="M284.4,362a4.35,4.35,0,0,0-4.13,2.15,10.49,10.49,0,0,0-1.31,3.58l.24-.39c.17-.28.43-.6.74-.51a.51.51,0,0,1,.33.48c.38-.36.77-.71,1.18-1a1.75,1.75,0,0,1,1.43-.53.72.72,0,0,1,.4,1,3,3,0,0,1,1.68-.71c.7,0,1.43.68,1.19,1.34s-.85.72-1.27,1.12c-1.14,1.07-1.52,4.41-1.1,4.53a6.43,6.43,0,0,0,4.85-2.63c-.48-2.7-1-5.4-1.44-8.05a2.78,2.78,0,0,1-.64.12A9.63,9.63,0,0,1,284.4,362Z"></path><path d="M254.81,343.91l.21.12A.38.38,0,0,0,254.81,343.91Z"></path><path d="M249.57,342.67a10.23,10.23,0,0,1,.45,2.16,4.33,4.33,0,0,0,3.64,2.89,10.9,10.9,0,0,0,4.09-.32,1.9,1.9,0,0,1-.88-.82c-.59-.24-1.18-.5-1.76-.8s-1-.57-1.06-1.09a.72.72,0,0,1,.76-.78,3,3,0,0,1-1.33-1.24c-.29-.64,0-1.58.74-1.64s1,.49,1.54.71c1.44.61,4.65-.4,4.58-.83a6.41,6.41,0,0,0-6.45-3.47c-.9.13-1.77.44-2.68.53a19,19,0,0,0-2.27.17,2.4,2.4,0,0,0-1.23.74l1.07,2.82A4,4,0,0,1,249.57,342.67Z"></path><path d="M277.69,374.59l-.08,0h-.05Z"></path><path d="M279.94,366.87c-.31-.09-.57.23-.74.51l-.24.39-1.51,2.54a5.36,5.36,0,0,0-.93,2.3,1.88,1.88,0,0,0,1.09,1.95,5.55,5.55,0,0,0,2.49-.42,3.31,3.31,0,0,0,1.78-1.8,2.37,2.37,0,0,0-.44-2.42c-.49-.5-1.28-.85-1.32-1.55a4.72,4.72,0,0,1,.15-.82.67.67,0,0,0,0-.2A.51.51,0,0,0,279.94,366.87Z"></path><path d="M267.6,374.28a1.86,1.86,0,0,0-.33,2.45l.37-.05c1,.16.94.5,1.94.79a3.16,3.16,0,0,0,2.95-.39c.9-.8.89-2.18.81-3.38l-.36-5.18a5.45,5.45,0,0,0-.85-3.1,3.57,3.57,0,0,0-3.84-1,7.75,7.75,0,0,0-3.37,2.44,5,5,0,0,0-1.53,3c0,1.15.93,2.37,2.06,2.2.79-.11,1.34-.8,1.91-1.36s1.42-1,2.12-.66.71,1.68.16,2.4S268.22,373.62,267.6,374.28Z"></path><path d="M281.39,349c0,1.14.93,2.37,2.06,2.2a2.85,2.85,0,0,0,1.54-1c-.34-1.83-.66-3.6-1-5.31a11.32,11.32,0,0,0-1.09,1.1A5,5,0,0,0,281.39,349Z"></path><path d="M285.27,355.84a2.42,2.42,0,0,0,.82.41c-.17-.95-.35-1.9-.52-2.83A1.86,1.86,0,0,0,285.27,355.84Z"></path><path d="M259.56,365.17c.24-1.18-.59-2.28-1.37-3.2q-1.56-1.82-3.1-3.64c1.29,3.4,2.4,6.27,3.24,8.44A2.64,2.64,0,0,0,259.56,365.17Z"></path><path d="M282.45,341.13l.9.24c-.26-1.39-.51-2.72-.75-4Z"></path><path d="M274.84,340.92c.43,1.95-1.83,3.91-1,5.75a5.25,5.25,0,0,0,5.74-1.72,4.78,4.78,0,0,0-.3-5.69c-.52-.6-1.19-1.06-1.75-1.63-1.1-1.16-1.75-2.78-3.12-3.61-1.88-1.13-4.44-.23-5.88,1.43s-2,3.88-2.51,6a3.27,3.27,0,0,0,2.13,4.4,4.14,4.14,0,0,0,1.7.69,1.4,1.4,0,0,0,1.48-.86c.23-.78-.49-1.48-.91-2.18a3,3,0,0,1,.84-4A2.51,2.51,0,0,1,274.84,340.92Z"></path><path d="M258.56,352.14c.27,1.35,2.4,1.55,2.81,2.87.23.75-.21,1.53-.33,2.31-.21,1.46.72,2.82,1.6,4a3.53,3.53,0,0,0,1.89,1.55,3.45,3.45,0,0,0,2.06-.46c1.68-.76,3.47-1.64,4.33-3.27,1.09-2.07.28-4.64-1-6.59a3.6,3.6,0,0,0-1.29-1.31,1.45,1.45,0,0,0-1.72.18,1.91,1.91,0,0,0,.07,2.2,5.19,5.19,0,0,1,1,2.13,2.06,2.06,0,0,1-2.11,2,2.68,2.68,0,0,1-2.34-1.94,3.89,3.89,0,0,1,.53-3.1c.31-.5.73-1.05.57-1.62s-1.1-.87-1.82-.81a7.09,7.09,0,0,0-4.18,1.91Z"></path><path d="M274.56,357.48a3.33,3.33,0,0,0,2.74.58,6.8,6.8,0,0,0,3.48-1.65,1.61,1.61,0,0,0,.6-.92c.05-.37-.24-.8-.61-.76a3.89,3.89,0,0,1-1.9-1.37,10.83,10.83,0,0,1-1-1.86A2.7,2.7,0,0,0,276,350a2.28,2.28,0,0,0-2.25,1.58,6.72,6.72,0,0,0-.22,2.93A4.35,4.35,0,0,0,274.56,357.48Z"></path><path d="M257.75,347.4h0a4.4,4.4,0,0,0,2,.22,2.92,2.92,0,0,0,2.07-.61,2.22,2.22,0,0,0,.47-1.84,4.65,4.65,0,0,0-1-2.4,1.08,1.08,0,0,0-.61-.43c-.25,0-.55.14-.53.39l-.1-.28a1.38,1.38,0,0,1-.64,1.45,9.3,9.3,0,0,1-1.53.72,1.84,1.84,0,0,0-1.1,1.21,1.3,1.3,0,0,0,.12.75A1.9,1.9,0,0,0,257.75,347.4Z"></path><path d="M274.61,321.41l-.2.14A.43.43,0,0,0,274.61,321.41Z"></path><path d="M271.6,318.81a10.16,10.16,0,0,0-1.31,3.57l.24-.39c.16-.28.43-.6.74-.51a.53.53,0,0,1,.33.48c.38-.36.77-.71,1.18-1a1.71,1.71,0,0,1,1.43-.52.71.71,0,0,1,.4,1,3,3,0,0,1,1.68-.71c.7,0,1.43.68,1.19,1.34s-.85.72-1.27,1.11c-1.14,1.07-1.53,4.41-1.11,4.53a6.44,6.44,0,0,0,5-2.75c-.51-2.31-1.1-5-1.74-7.87a3.32,3.32,0,0,1-.44.06,10.28,10.28,0,0,1-2.16-.46A4.32,4.32,0,0,0,271.6,318.81Z"></path><path d="M240.9,297.28a10.36,10.36,0,0,1,.45,2.16,4.36,4.36,0,0,0,3.64,2.9,11.12,11.12,0,0,0,4.09-.33,1.8,1.8,0,0,1-.88-.82c-.6-.24-1.18-.5-1.76-.79s-1-.57-1.06-1.1a.72.72,0,0,1,.76-.77,3,3,0,0,1-1.33-1.25c-.29-.64,0-1.58.74-1.63s1,.48,1.53.71c1.44.6,4.65-.41,4.59-.84a6.41,6.41,0,0,0-6.45-3.46c-.91.12-1.78.44-2.68.53a15.69,15.69,0,0,0-2.28.17,1.86,1.86,0,0,0-1.53,1.48C238.63,295.52,240.32,296.14,240.9,297.28Z"></path><path d="M246.14,298.53l.21.12A.33.33,0,0,0,246.14,298.53Z"></path><path d="M269,329.2s0,0-.08,0h-.05Z"></path><path d="M271.27,321.48c-.31-.09-.58.23-.74.51l-.24.39-1.51,2.54a5.56,5.56,0,0,0-.94,2.3,1.89,1.89,0,0,0,1.1,1.95,5.57,5.57,0,0,0,2.49-.42,3.29,3.29,0,0,0,1.78-1.79,2.38,2.38,0,0,0-.44-2.43c-.49-.5-1.29-.85-1.32-1.55a4.61,4.61,0,0,1,.15-.81V322A.53.53,0,0,0,271.27,321.48Z"></path><path d="M258.93,328.9a1.84,1.84,0,0,0-.33,2.44l.37,0c1,.16.94.51,1.94.79a3.16,3.16,0,0,0,2.95-.39c.9-.8.88-2.18.8-3.38-.11-1.72-.23-3.45-.35-5.17a5.54,5.54,0,0,0-.85-3.11,3.59,3.59,0,0,0-3.84-1,7.86,7.86,0,0,0-3.38,2.44,5,5,0,0,0-1.52,3c0,1.15.92,2.38,2.06,2.21a3.9,3.9,0,0,0,1.9-1.36c.57-.56,1.43-1.05,2.13-.67s.71,1.68.15,2.4S259.55,328.23,258.93,328.9Z"></path><path d="M272.72,303.61c0,1.15.92,2.37,2.06,2.21a2,2,0,0,0,.91-.43c-.38-1.66-.76-3.37-1.16-5.09l-.29.31A5,5,0,0,0,272.72,303.61Z"></path><path d="M276.6,310.45l.28.19c-.14-.63-.29-1.26-.43-1.9A1.51,1.51,0,0,0,276.6,310.45Z"></path><path d="M239.22,311.94c1.15-.16,2,1.18,2,2.34s-.57,2.25-.71,3.4.38,2.58,1.52,2.76l.34-.34c1.17-.61,1.34-.19,2.58-.66a4,4,0,0,0,2.73-2.63c.32-1.51-.75-2.91-1.74-4.08l-4.29-5a7,7,0,0,0-3.22-2.54,4.12,4.12,0,0,0-3.18.55c.89,2.37,1.8,4.8,2.73,7.26A1.72,1.72,0,0,1,239.22,311.94Z"></path><path d="M246.43,333.44a8.25,8.25,0,0,1,2.32-.47,6.22,6.22,0,0,0,2.29-.56,2.32,2.32,0,0,0,1.31-1.85,6.6,6.6,0,0,0-.66-2.12c-.17-.54-.21-1.11-.35-1.66a2.28,2.28,0,0,0-.85-1.42,3,3,0,0,0-1.9-.3,3.28,3.28,0,0,0-2.66,1,3.19,3.19,0,0,0-.39,1.72c-.07,1.61-.13,3.21-.19,4.81l.23.61Z"></path><path d="M268.82,292.24c-1.11-1.15-1.75-2.78-3.12-3.6-1.88-1.13-4.45-.24-5.88,1.42s-2,3.88-2.51,6a4.42,4.42,0,0,0-.14,2.1,4.37,4.37,0,0,0,2.26,2.3,4.06,4.06,0,0,0,1.7.69,1.39,1.39,0,0,0,1.48-.85c.24-.79-.48-1.49-.91-2.18a3,3,0,0,1,.85-4,2.5,2.5,0,0,1,3.62,1.41c.43,2-1.83,3.92-1,5.75a5.24,5.24,0,0,0,5.74-1.72,4.76,4.76,0,0,0-.3-5.68C270.05,293.27,269.38,292.82,268.82,292.24Z"></path><path d="M254,315.94a2.59,2.59,0,0,0,3.94,1.09c1.68-.76,3.48-1.63,4.34-3.27,1.08-2.06.27-4.64-1-6.58a3.55,3.55,0,0,0-1.29-1.32,1.47,1.47,0,0,0-1.72.18,1.91,1.91,0,0,0,.07,2.2,5.1,5.1,0,0,1,.95,2.13,2,2,0,0,1-2.1,2,2.67,2.67,0,0,1-2.34-1.93,3.87,3.87,0,0,1,.52-3.1c.32-.51.74-1.06.58-1.63s-1.1-.87-1.82-.8a6.92,6.92,0,0,0-4.18,1.91l0,0c.26,1.35,2.4,1.56,2.81,2.87.23.75-.21,1.53-.33,2.31C252.15,313.39,253.08,314.75,254,315.94Z"></path><path d="M272.1,309.34a3.89,3.89,0,0,1-1.9-1.36,11.28,11.28,0,0,1-1-1.87,2.69,2.69,0,0,0-1.84-1.55,2.31,2.31,0,0,0-2.26,1.58,6.91,6.91,0,0,0-.21,2.94,4.34,4.34,0,0,0,1,3,3.29,3.29,0,0,0,2.74.59,6.93,6.93,0,0,0,3.48-1.66,1.61,1.61,0,0,0,.6-.92C272.76,309.73,272.47,309.3,272.1,309.34Z"></path><path d="M249.08,302h0a4.54,4.54,0,0,0,2,.23,3,3,0,0,0,2.07-.62,2.26,2.26,0,0,0,.47-1.83,4.58,4.58,0,0,0-1-2.41,1.07,1.07,0,0,0-.6-.43.45.45,0,0,0-.54.4l-.09-.28a1.39,1.39,0,0,1-.64,1.45,11.28,11.28,0,0,1-1.53.72,1.82,1.82,0,0,0-1.1,1.2,1.21,1.21,0,0,0,.12.75A1.8,1.8,0,0,0,249.08,302Z"></path><path d="M266.19,272.23c-1.13-.61-2.38.68-3.66.74a10.33,10.33,0,0,1-2.15-.46,4.33,4.33,0,0,0-4.13,2.15,10.35,10.35,0,0,0-1.3,3.57c.07-.13.15-.26.23-.39s.43-.6.74-.51a.51.51,0,0,1,.33.48c.38-.36.77-.71,1.18-1a1.75,1.75,0,0,1,1.43-.53.72.72,0,0,1,.4,1,3,3,0,0,1,1.68-.7c.7,0,1.43.68,1.19,1.33s-.85.73-1.27,1.12c-1.14,1.07-1.52,4.41-1.1,4.53a6.4,6.4,0,0,0,5.79-4.49c.25-.87.32-1.79.6-2.66a16.69,16.69,0,0,0,.77-2.15A1.86,1.86,0,0,0,266.19,272.23Z"></path><path d="M259.26,277.25l-.19.15A.36.36,0,0,0,259.26,277.25Z"></path><path d="M230.79,254.38l.22.12A.35.35,0,0,0,230.79,254.38Z"></path><path d="M225.55,253.13a10.23,10.23,0,0,1,.45,2.16,4.36,4.36,0,0,0,3.65,2.9,11.06,11.06,0,0,0,4.08-.33,1.9,1.9,0,0,1-.88-.82c-.59-.24-1.18-.5-1.75-.79s-1-.58-1.07-1.1a.71.71,0,0,1,.76-.77,3,3,0,0,1-1.33-1.25c-.28-.64,0-1.58.74-1.63s1,.48,1.54.71c1.44.6,4.65-.41,4.58-.84a6.39,6.39,0,0,0-6.45-3.46c-.9.12-1.77.44-2.68.53a15.56,15.56,0,0,0-2.27.17,1.88,1.88,0,0,0-1.54,1.48C223.29,251.37,225,252,225.55,253.13Z"></path><path d="M253.67,285.05s0,0-.08,0h-.05Z"></path><path d="M255.92,277.33c-.31-.09-.57.23-.74.51s-.16.26-.23.39l-1.52,2.54a5.41,5.41,0,0,0-.93,2.3,1.87,1.87,0,0,0,1.09,1.95,5.55,5.55,0,0,0,2.49-.42,3.27,3.27,0,0,0,1.78-1.8,2.37,2.37,0,0,0-.44-2.42c-.48-.5-1.28-.85-1.32-1.55a4.61,4.61,0,0,1,.15-.81.74.74,0,0,0,0-.21A.51.51,0,0,0,255.92,277.33Z"></path><path d="M243.58,284.74a1.86,1.86,0,0,0-.33,2.45l.37-.05c1,.16.94.51,1.94.79a3.16,3.16,0,0,0,2.95-.39c.9-.8.89-2.18.81-3.38L249,279a5.53,5.53,0,0,0-.84-3.11,3.6,3.6,0,0,0-3.85-1,7.75,7.75,0,0,0-3.37,2.44,4.91,4.91,0,0,0-1.52,3c0,1.15.92,2.37,2.05,2.21a3.88,3.88,0,0,0,1.91-1.37c.57-.55,1.42-1,2.12-.66s.71,1.68.16,2.4A27.16,27.16,0,0,1,243.58,284.74Z"></path><path d="M262.27,254a7.75,7.75,0,0,0-3.37,2.44,4.89,4.89,0,0,0-1.52,3c0,1.15.92,2.37,2.05,2.21a3.88,3.88,0,0,0,1.91-1.37c.57-.55,1.42-1,2.12-.66s.71,1.68.16,2.4a27.16,27.16,0,0,1-2,1.81c-.62.66-1,1.8-.32,2.45s1.3.45,2.3.74a3.16,3.16,0,0,0,2.95-.39s.06-.07.1-.1c-1.15-4.69-2.22-9-3.18-12.71A4.08,4.08,0,0,0,262.27,254Z"></path><path d="M226.88,275.84a3.9,3.9,0,0,0,.72-2.23c.12-.79.52-1.69,1.31-1.8s1.57.93,1.55,1.84-.45,1.76-.55,2.67.29,2,1.19,2.16l.27-.26c.92-.48,1-.16,2-.52a3.19,3.19,0,0,0,2.15-2.07c.24-1.18-.59-2.28-1.37-3.2-1.12-1.31-2.24-2.63-3.37-3.94a5.48,5.48,0,0,0-2.53-2,3.59,3.59,0,0,0-3.66,1.51,7.89,7.89,0,0,0-1.26,4,6.79,6.79,0,0,0,.12,2.34l.24.63a4,4,0,0,0,.2.35A2.07,2.07,0,0,0,226.88,275.84Z"></path><path d="M236,282.63a2.28,2.28,0,0,0-.85-1.42,3,3,0,0,0-1.9-.3,3.29,3.29,0,0,0-2.66,1,3.26,3.26,0,0,0-.39,1.72L230,289l1.1.29a7.91,7.91,0,0,1,2.32-.47,6.37,6.37,0,0,0,2.29-.56,2.32,2.32,0,0,0,1.31-1.85,6.36,6.36,0,0,0-.66-2.12C236.17,283.75,236.13,283.18,236,282.63Z"></path><path d="M261,244.87a2.57,2.57,0,0,0-2,.84,2.79,2.79,0,0,0-.32,1.43l-.18,4.45.92.24a6.69,6.69,0,0,1,1.93-.39,6.32,6.32,0,0,0,1.44-.27c-.55-2.08-1.05-3.9-1.49-5.4Z"></path><path d="M253.48,248.09c-1.11-1.16-1.76-2.78-3.13-3.6-1.87-1.14-4.44-.24-5.87,1.42s-2,3.88-2.51,6a4.3,4.3,0,0,0-.15,2.1,4.43,4.43,0,0,0,2.27,2.3,4.14,4.14,0,0,0,1.7.69,1.41,1.41,0,0,0,1.48-.85c.23-.79-.49-1.49-.91-2.19a3,3,0,0,1,.84-4,2.5,2.5,0,0,1,3.62,1.41c.43,2-1.83,3.92-1,5.75a5.24,5.24,0,0,0,5.74-1.72,4.76,4.76,0,0,0-.3-5.68C254.7,249.12,254,248.66,253.48,248.09Z"></path><path d="M240.51,273.34a3.45,3.45,0,0,0,2.06-.46c1.68-.76,3.48-1.63,4.33-3.27,1.09-2.06.28-4.64-1-6.58a3.6,3.6,0,0,0-1.28-1.32,1.48,1.48,0,0,0-1.73.18,1.91,1.91,0,0,0,.07,2.2,5.12,5.12,0,0,1,1,2.13,2.05,2.05,0,0,1-2.11,2,2.68,2.68,0,0,1-2.34-1.93,3.94,3.94,0,0,1,.53-3.11c.31-.5.74-1,.57-1.62s-1.1-.87-1.82-.81a7.09,7.09,0,0,0-4.18,1.91l0,0c.27,1.35,2.4,1.56,2.81,2.87.23.75-.21,1.53-.32,2.31-.22,1.46.71,2.82,1.59,4A3.49,3.49,0,0,0,240.51,273.34Z"></path><path d="M256.75,265.19a3.93,3.93,0,0,1-1.9-1.36,10.55,10.55,0,0,1-1-1.87,2.73,2.73,0,0,0-1.84-1.55,2.29,2.29,0,0,0-2.26,1.58,6.76,6.76,0,0,0-.22,2.94,4.39,4.39,0,0,0,1,3,3.3,3.3,0,0,0,2.74.58,6.8,6.8,0,0,0,3.48-1.65,1.56,1.56,0,0,0,.6-.92C257.41,265.58,257.12,265.15,256.75,265.19Z"></path><path d="M233.73,257.86h0a4.56,4.56,0,0,0,2,.23,3,3,0,0,0,2.07-.62,2.21,2.21,0,0,0,.47-1.84,4.65,4.65,0,0,0-1-2.4,1.05,1.05,0,0,0-.61-.43c-.25,0-.55.14-.53.4l-.1-.28a1.38,1.38,0,0,1-.64,1.44,10.24,10.24,0,0,1-1.53.73,1.82,1.82,0,0,0-1.1,1.2,1.29,1.29,0,0,0,.12.75A1.9,1.9,0,0,0,233.73,257.86Z"></path><path d="M249.68,234.79l-.2.14A.37.37,0,0,0,249.68,234.79Z"></path><path d="M253,230.5a10.06,10.06,0,0,1-2.15-.46,4.32,4.32,0,0,0-4.13,2.15,10.41,10.41,0,0,0-1.31,3.58l.24-.4c.16-.28.43-.6.74-.51a.53.53,0,0,1,.33.48c.38-.36.77-.71,1.18-1a1.71,1.71,0,0,1,1.43-.52.72.72,0,0,1,.4,1,3,3,0,0,1,1.68-.71c.7,0,1.43.68,1.19,1.34s-.85.72-1.27,1.11c-1.14,1.07-1.52,4.42-1.11,4.53a6.43,6.43,0,0,0,5.8-4.48c.25-.88.31-1.8.6-2.67.17-.52.42-1,.6-1.53-.3-.92-.6-1.84-.9-2.74C255.23,229.4,254.1,230.45,253,230.5Z"></path><path d="M216,210.66a10.36,10.36,0,0,1,.45,2.16,4.33,4.33,0,0,0,3.64,2.9,10.91,10.91,0,0,0,4.09-.33,1.8,1.8,0,0,1-.88-.82c-.59-.24-1.18-.5-1.76-.79s-1-.57-1.06-1.09a.72.72,0,0,1,.76-.78,3,3,0,0,1-1.33-1.25c-.29-.64,0-1.58.74-1.63s1,.49,1.53.71c1.44.6,4.66-.4,4.59-.84a5.92,5.92,0,0,0-.92-1.36l-12,.56C214.13,209.07,215.46,209.67,216,210.66Z"></path><path d="M221.21,211.91l.21.12A.38.38,0,0,0,221.21,211.91Z"></path><path d="M244.09,242.59l-.08,0h0Z"></path><path d="M246.34,234.86c-.31-.09-.58.23-.74.51l-.24.4-1.51,2.54a5.32,5.32,0,0,0-.93,2.29,1.89,1.89,0,0,0,1.09,2,5.55,5.55,0,0,0,2.49-.42,3.34,3.34,0,0,0,1.78-1.8,2.39,2.39,0,0,0-.44-2.43c-.49-.5-1.28-.85-1.32-1.54a4.72,4.72,0,0,1,.15-.82.74.74,0,0,0,0-.21A.53.53,0,0,0,246.34,234.86Z"></path><path d="M234,242.28a1.85,1.85,0,0,0-.33,2.45l.37-.06c1,.17.94.51,1.94.79a3.13,3.13,0,0,0,3-.38c.9-.81.89-2.19.8-3.39-.11-1.72-.23-3.44-.35-5.17a5.46,5.46,0,0,0-.85-3.11,3.6,3.6,0,0,0-3.84-1,8,8,0,0,0-3.38,2.44,5,5,0,0,0-1.52,3c0,1.14.92,2.37,2.06,2.2a3.86,3.86,0,0,0,1.91-1.36c.56-.56,1.42-1,2.12-.66s.71,1.67.15,2.39A27.13,27.13,0,0,1,234,242.28Z"></path><path d="M247.79,217c0,1.15.92,2.38,2.06,2.21a3.55,3.55,0,0,0,1.79-1.25c-.68-1.44-1.4-2.83-2.15-4.15l-.18.19A5,5,0,0,0,247.79,217Z"></path><path d="M251.67,223.83c.74.57,1.31.46,2.31.74a4.21,4.21,0,0,0,.51.12c-.52-1.39-1.07-2.73-1.63-4.05a7.7,7.7,0,0,0-.86.75A1.84,1.84,0,0,0,251.67,223.83Z"></path><path d="M221.22,226a5.56,5.56,0,0,0-2.53-2,3.59,3.59,0,0,0-3.66,1.51,7.67,7.67,0,0,0-1.26,4,5,5,0,0,0,.56,3.31,2,2,0,0,0,3,.55,3.84,3.84,0,0,0,.73-2.23c.12-.78.52-1.68,1.31-1.79s1.57.92,1.55,1.83-.45,1.77-.56,2.67.3,2,1.2,2.16l.27-.26c.92-.48,1.05-.15,2-.52a3.13,3.13,0,0,0,2.14-2.07c.25-1.18-.58-2.28-1.36-3.19Z"></path><path d="M226.11,245.79a2.32,2.32,0,0,0,1.31-1.85,6.68,6.68,0,0,0-.66-2.12c-.17-.54-.21-1.11-.35-1.66a2.3,2.3,0,0,0-.85-1.42,3,3,0,0,0-1.9-.3,3.34,3.34,0,0,0-2.66,1,3.2,3.2,0,0,0-.39,1.73l-.21,5.35,1.1.28a8.25,8.25,0,0,1,2.32-.47A6.17,6.17,0,0,0,226.11,245.79Z"></path><path d="M233,207.22c-.23.73-.42,1.49-.6,2.24a3.26,3.26,0,0,0,2.12,4.39,4.06,4.06,0,0,0,1.7.69,1.41,1.41,0,0,0,1.49-.85c.23-.78-.49-1.48-.91-2.18a3,3,0,0,1,.84-4,2.5,2.5,0,0,1,3.62,1.41c.43,2-1.83,3.92-1,5.75a5.22,5.22,0,0,0,5.74-1.72,4.68,4.68,0,0,0,.71-3.53,31.69,31.69,0,0,0-2.23-2.72Z"></path><path d="M231,219.06c-.2-.69-1.1-.87-1.82-.8a7,7,0,0,0-4.18,1.91l0,0c.27,1.35,2.4,1.56,2.81,2.87.23.76-.21,1.54-.33,2.31-.22,1.47.72,2.83,1.6,4a3.44,3.44,0,0,0,1.89,1.55,3.49,3.49,0,0,0,2-.45c1.69-.77,3.48-1.64,4.34-3.28,1.08-2.06.27-4.63-1-6.58a3.63,3.63,0,0,0-1.29-1.32,1.47,1.47,0,0,0-1.72.19,1.91,1.91,0,0,0,.07,2.2,5.06,5.06,0,0,1,.95,2.12,2.05,2.05,0,0,1-2.1,2,2.69,2.69,0,0,1-2.34-1.94,3.88,3.88,0,0,1,.52-3.1C230.72,220.18,231.14,219.63,231,219.06Z"></path><path d="M243.7,226.06a6.84,6.84,0,0,0,3.48-1.65,1.6,1.6,0,0,0,.6-.93c.05-.37-.24-.8-.61-.76a3.82,3.82,0,0,1-1.9-1.36,11.28,11.28,0,0,1-1-1.87,2.71,2.71,0,0,0-1.84-1.55,2.29,2.29,0,0,0-2.25,1.58,6.77,6.77,0,0,0-.22,2.94,4.33,4.33,0,0,0,1,3A3.29,3.29,0,0,0,243.7,226.06Z"></path><path d="M224.15,215.39h0a4.7,4.7,0,0,0,2,.22,3,3,0,0,0,2.07-.61,2.22,2.22,0,0,0,.47-1.84,4.61,4.61,0,0,0-1-2.4,1.15,1.15,0,0,0-.61-.44c-.25,0-.55.15-.53.4l-.1-.28a1.39,1.39,0,0,1-.64,1.45,11.28,11.28,0,0,1-1.53.72,1.84,1.84,0,0,0-1.1,1.21,1.19,1.19,0,0,0,.12.74A1.8,1.8,0,0,0,224.15,215.39Z"></path></g><path d="M220.92,211.73s.1-.16.4-.27A2,2,0,0,1,224,213a2.13,2.13,0,0,1-3.4,2.12,2,2,0,0,1-.2-3c.23-.22.4-.27.42-.24a2.77,2.77,0,0,0-.6,1.47,1.58,1.58,0,0,0,.68,1.39,1.64,1.64,0,0,0,2.59-1.62,1.59,1.59,0,0,0-.95-1.22A2.81,2.81,0,0,0,220.92,211.73Z" style="fill:#455a64"></path><path d="M226.73,249.81a1.57,1.57,0,0,1-.49.15c-.32.06-.8.16-1.43.23a19.79,19.79,0,0,1-5.34-.09,12.52,12.52,0,0,1-1.76-.36,2.15,2.15,0,0,1-.89-.52,2,2,0,0,1-.48-1c-.17-1.39-.16-2.75-.24-4.25-.13-3-.27-6.23-.41-9.64-.27-6.85-.48-13.05-.61-17.54-.05-2.18-.09-4-.12-5.32,0-.57,0-1.05,0-1.44a1.88,1.88,0,0,1,0-.51,1.82,1.82,0,0,1,.07.5c0,.4.07.87.11,1.44.08,1.35.18,3.14.3,5.31.23,4.49.51,10.69.78,17.53.13,3.42.25,6.68.36,9.65.07,1.47,0,2.94.18,4.18a1.41,1.41,0,0,0,1.06,1.17,15.05,15.05,0,0,0,1.68.39,22.08,22.08,0,0,0,5.26.26C226,249.89,226.72,249.77,226.73,249.81Z" style="fill:#455a64"></path><path d="M255.06,225.56a3.25,3.25,0,0,1-.83.61,10.14,10.14,0,0,1-2.59,1.08,11.27,11.27,0,0,1-14.14-8.78,9.63,9.63,0,0,1-.18-2.79,2.77,2.77,0,0,1,.18-1,18.56,18.56,0,0,0,.38,3.72,11.24,11.24,0,0,0,13.67,8.48A20.73,20.73,0,0,0,255.06,225.56Z" style="fill:#455a64"></path><path d="M247.9,214.77a2.08,2.08,0,0,1-.53.15l-1.56.32c-1.35.27-3.31.61-5.75,1a158.07,158.07,0,0,1-38.39.78c-2.45-.26-4.42-.51-5.78-.73l-1.57-.25a2.4,2.4,0,0,1-.54-.13,2.17,2.17,0,0,1,.56,0l1.57.15c1.37.15,3.35.34,5.8.55a189.05,189.05,0,0,0,19.17.61A187.25,187.25,0,0,0,240,215.81c2.44-.3,4.41-.58,5.77-.78l1.57-.22A2.28,2.28,0,0,1,247.9,214.77Z" style="fill:#455a64"></path><path d="M199.63,217.66a7.3,7.3,0,0,1-1.54,2.43,14.92,14.92,0,0,1-12.41,5.28,7.6,7.6,0,0,1-2.82-.57c0-.09,1.09.15,2.83.18a16,16,0,0,0,12.11-5.16C199,218.55,199.55,217.61,199.63,217.66Z" style="fill:#455a64"></path><path d="M226,243.12c-.15,0-.34-5.22-.41-11.66s0-11.66.15-11.67.34,5.22.41,11.67S226.14,243.12,226,243.12Z" style="fill:#455a64"></path><path d="M219.28,275a43.53,43.53,0,0,1-.15-7,44.17,44.17,0,0,1,.41-7,42.7,42.7,0,0,1,.16,7A43.73,43.73,0,0,1,219.28,275Z" style="fill:#455a64"></path><path d="M253.09,261.1a22.7,22.7,0,0,1-3.42.63c-2.12.33-5,.8-8.26,1.4s-6.11,1.21-8.2,1.66a24.07,24.07,0,0,1-3.42.65,18.09,18.09,0,0,1,3.32-1c2.08-.55,5-1.23,8.2-1.83s6.17-1,8.31-1.24A20,20,0,0,1,253.09,261.1Z" style="fill:#455a64"></path><path d="M256.23,266.12a33.26,33.26,0,0,1-4,.14c-2.46,0-5.87.12-9.62.31s-7.16.46-9.62.67a33.76,33.76,0,0,1-4,.27,4.1,4.1,0,0,1,1.05-.24c.68-.12,1.67-.27,2.9-.43,2.45-.31,5.86-.65,9.63-.84s7.18-.2,9.66-.14c1.23,0,2.23.08,2.92.13A4.1,4.1,0,0,1,256.23,266.12Z" style="fill:#455a64"></path><path d="M211.25,262.85a20.1,20.1,0,0,1-2.8-1.11,67.91,67.91,0,0,0-6.85-2.41,67,67,0,0,0-7.07-1.62,20.94,20.94,0,0,1-3-.56,12.65,12.65,0,0,1,3,.16,46.63,46.63,0,0,1,7.17,1.47,46.12,46.12,0,0,1,6.85,2.59A12.54,12.54,0,0,1,211.25,262.85Z" style="fill:#455a64"></path><g style="opacity:0.30000000000000004"><path d="M258.18,235.24a150.91,150.91,0,0,0-4-52.62,15.37,15.37,0,0,0-2.79-6.32c-1.52-1.76-4.11-2.82-6.24-1.89-1.88.82-2.88,2.87-3.5,4.82-2.94,9.37-6,23,2.8,27.46,1.11.56,7.31,8.08,13.76,28.55"></path></g><polygon points="164.75 160.38 190.24 175.08 187.95 159.93 164.75 160.38" style="fill:#ffbe9d"></polygon><path d="M189.72,115.71s-21.17,7.3-23.49,18.41c0,0-6.09,18.6-5.92,19.13s1.25,1.25,1.25,1.25l3,7.26,26.94.89Z" style="fill:#e0e0e0"></path><path d="M194.79,114.84s6.4,13.42,16.27,13.77,9.9-3,9.9-3l1.64-4.29,8.34,2.07,9.22,5.53s5.07,21.87,7.37,28.79c1.84,5.52-.61,10.93-1.95,20.23-.33,2.35-1.24,7.6-1.24,7.6,0,.62,2,1.38,4,12.58.85,4.83-3.88,8.59-3.88,8.59l-51.83,2.43-8-64.55,5.12-28.86Z" style="fill:#e0e0e0"></path><path d="M225.79,125.56a6.92,6.92,0,0,1,.36,2.51,15,15,0,0,1-4.69,11.06,6.79,6.79,0,0,1-2.06,1.48c-.05-.07.74-.63,1.8-1.74a16.61,16.61,0,0,0,4.59-10.8C225.84,126.53,225.7,125.57,225.79,125.56Z" style="fill:#263238"></path><path d="M229.71,140.14c-.16,0,.14-3.28-.11-7.29s-.9-7.23-.75-7.26a7.22,7.22,0,0,1,.59,2.07,35.07,35.07,0,0,1,.68,5.15,36,36,0,0,1-.06,5.2A7.32,7.32,0,0,1,229.71,140.14Z" style="fill:#263238"></path><g style="opacity:0.30000000000000004"><path d="M192,148.41A20.73,20.73,0,0,0,187,138.14a66.41,66.41,0,0,1,3.35,24.35c-2.25-.07-1.45.07-3.71,0l1.53,9.66c1.05-2.07.28-4.9,1.83-6.62.58-.64,1.4-1,2-1.68a5.83,5.83,0,0,0,1-3.89A55,55,0,0,0,192,148.41Z"></path></g><path d="M171.64,162l.38,0h1.1l4.13.06,14.27.39-.25.27c-.18-2.61-.41-5.44-.77-8.36a66.44,66.44,0,0,0-2.09-10.76A37.52,37.52,0,0,0,185,135.3a27.13,27.13,0,0,0-3.52-4.87l-1.16-1.17a2.61,2.61,0,0,1-.39-.43,2.7,2.7,0,0,1,.46.36l1.23,1.09a25.76,25.76,0,0,1,3.7,4.83,36.7,36.7,0,0,1,3.53,8.3A65.4,65.4,0,0,1,191,154.25c.36,2.93.58,5.77.74,8.38l0,.28h-.27l-14.27-.57-4.12-.22L172,162A1.31,1.31,0,0,1,171.64,162Z" style="fill:#263238"></path><path d="M222.69,221.88c.61-.84-5.6-16.15-8.89-21.82s-13.56-20.66-20.87-24.93c-1.91-1.12-4.76-3.24-8.17-5.35-9.63-5.94-22.57-13.74-22.57-13.74l12.49,60.29v9.39s1.8.84,7.84,3.13S202,230.51,202,230.51l20.36,7.25v-9Z" style="fill:#455a64"></path><path d="M222.4,228s-.23.22-.73.54l-.41.27a5.76,5.76,0,0,1-.55.21l-.64.24c-.23.07-.49.08-.75.13a8.85,8.85,0,0,1-3.7-.32,29.1,29.1,0,0,1-4.21-1.64,34.06,34.06,0,0,0-7.52-2.9,26.32,26.32,0,0,0-3.33-.26,3.43,3.43,0,0,1,.9-.17,4.43,4.43,0,0,1,1.07-.05,8.32,8.32,0,0,1,1.42.12,29.11,29.11,0,0,1,7.68,2.78c2.85,1.35,5.6,2.36,7.65,2.07.25,0,.49,0,.71-.08l.62-.19.54-.16.43-.23A3,3,0,0,1,222.4,228Z" style="fill:#263238"></path><path d="M210.47,202.65a6,6,0,0,1-.7-1.09l-1.79-3a82.71,82.71,0,0,0-6.49-9.59,45.8,45.8,0,0,0-4.32-4.65,30,30,0,0,0-4.11-3.16c-2.5-1.59-4.26-2.17-4.22-2.28a5.82,5.82,0,0,1,1.24.4l.65.25.74.36a15.24,15.24,0,0,1,1.78,1,28.27,28.27,0,0,1,4.24,3.11,42.6,42.6,0,0,1,4.41,4.68,68.6,68.6,0,0,1,6.4,9.73c.72,1.31,1.28,2.38,1.65,3.12A5.21,5.21,0,0,1,210.47,202.65Z" style="fill:#263238"></path><path d="M240.05,128.83s5.26,2.33,7.12,5.71,9.75,15.5,9.75,15.5l5.28,5.61-10,21.62-7.93-1.52Z" style="fill:#e0e0e0"></path><path d="M184.64,249.43c-4.78-1.05-9.44-6.39-10-8.69s-14.08-28.58-16.17-33.8-1.46-14.6-1.46-14.6l3.25-15.44a11.23,11.23,0,0,0-.15-2.5,21.22,21.22,0,0,1,.15-4.59s1.13.83,0-3.76,1.26-11.55,1.26-11.55L167,159,189,182.74l3.61,9.69s4.74,15.35,5.15,19.52,8.46,28.34,8.46,28.34.62,3.42-6.11,5.16l-15.44,4" style="fill:#455a64"></path><path d="M216.92,221.88s-.16-.24-.49-.66a11.43,11.43,0,0,0-1.63-1.69c-.76-.68-1.75-1.47-2.77-2.53a31.33,31.33,0,0,1-3.16-3.84c-2.16-3-4.16-6.92-6.59-11.11s-4.85-9-7.9-13.66A41.15,41.15,0,0,0,183.72,177a42.25,42.25,0,0,0-5.89-3.51,51,51,0,0,0-5.48-2.37,37.82,37.82,0,0,0-4.75-1.34,19.21,19.21,0,0,0-3.69-.38,18.86,18.86,0,0,0-3.15.34,4.8,4.8,0,0,1,.79-.24,4.58,4.58,0,0,1,1-.19,9,9,0,0,1,1.37-.12,18.45,18.45,0,0,1,3.75.31,35.75,35.75,0,0,1,4.81,1.27,50.26,50.26,0,0,1,5.56,2.34,42,42,0,0,1,6,3.5,40.93,40.93,0,0,1,10.81,11.52c3.08,4.71,5.45,9.51,7.89,13.7s4.37,8.13,6.47,11.14a33.2,33.2,0,0,0,3.07,3.85c1,1.06,1.95,1.87,2.7,2.58a10.86,10.86,0,0,1,1.58,1.77,6.15,6.15,0,0,1,.32.53C216.9,221.81,216.93,221.87,216.92,221.88Z" style="fill:#263238"></path><path d="M187.1,205.3A4.57,4.57,0,0,1,186,205c-.73-.23-1.78-.6-3-1.12a55.18,55.18,0,0,1-9.47-5,55.77,55.77,0,0,1-8.36-6.7c-1-1-1.74-1.76-2.23-2.35a4.87,4.87,0,0,1-.74-.93,5.18,5.18,0,0,1,.88.79c.54.54,1.34,1.31,2.35,2.23a67,67,0,0,0,8.38,6.53,68.42,68.42,0,0,0,9.34,5.08c1.24.55,2.26,1,3,1.26A4.87,4.87,0,0,1,187.1,205.3Z" style="fill:#263238"></path><path d="M191.79,216a5.32,5.32,0,0,1-1.15-.15c-.74-.12-1.79-.33-3.09-.61-2.6-.58-6.17-1.51-10-2.79s-7.28-2.68-9.71-3.77c-1.21-.55-2.18-1-2.84-1.36a5,5,0,0,1-1-.57,4.76,4.76,0,0,1,1.09.39l2.91,1.2c2.46,1,5.88,2.33,9.72,3.61s7.38,2.26,9.95,2.93l3.05.78A4.36,4.36,0,0,1,191.79,216Z" style="fill:#263238"></path><polygon points="184.64 249.43 187.55 259.55 202.92 254.63 199.77 245.45 184.64 249.43" style="fill:#455a64"></polygon><path d="M187.21,260.18,184,249.07l16.07-4.22,3.47,10.1Zm-1.94-10.4,2.61,9.13,14.4-4.6-2.83-8.26Z" style="fill:#263238"></path><path d="M189.77,252.09a2.14,2.14,0,0,0-1.59,2.16,2,2,0,0,0,1.9,1.85,1.92,1.92,0,0,0,1.92-1.8,2.15,2.15,0,0,0-2.23-2.21" style="fill:#fff"></path><path d="M189.77,252.09s.17-.09.49-.07a2.16,2.16,0,0,1,1.25.58,2.32,2.32,0,0,1,.71,1.94,2.16,2.16,0,0,1-1.78,1.79,2.19,2.19,0,0,1-2.23-1.18,2.08,2.08,0,0,1,0-2.06,2.17,2.17,0,0,1,1-.92c.31-.12.49-.11.5-.08a2.93,2.93,0,0,0-1.19,1.17,1.72,1.72,0,1,0,3.17,1.21,2,2,0,0,0-.5-1.61A3.09,3.09,0,0,0,189.77,252.09Z" style="fill:#263238"></path><path d="M229.86,191.92a5.25,5.25,0,0,1,.42,2.21,14.47,14.47,0,0,1-.89,5.36,19.74,19.74,0,0,1-2.48,4.83,6.93,6.93,0,0,1-1.46,1.69,36.87,36.87,0,0,0,3.45-6.69,16.79,16.79,0,0,0,1-5.19C230,192.78,229.77,191.94,229.86,191.92Z" style="fill:#263238"></path><path d="M237,188.92a2.71,2.71,0,0,1,.35.71,14.5,14.5,0,0,1,.69,2.05l.19.69c0,.25.09.51.14.77s.09.55.13.83l.06.89a10,10,0,0,1-.54,3.93,15.9,15.9,0,0,1-6.84,7.22,22.81,22.81,0,0,1,2.22-1.91,13.18,13.18,0,0,0,4.13-5.48,10.05,10.05,0,0,0,.55-3.75l0-.86c0-.27-.08-.54-.11-.8s-.07-.51-.1-.76-.11-.46-.16-.69c-.17-.88-.39-1.58-.52-2.06S237,188.93,237,188.92Z" style="fill:#263238"></path><path d="M196.65,146.23a116.5,116.5,0,0,1,5.9,28.26s20.33,1.15,25.23.23,16.95-4.32,18.54-4.15l.46-10.64a39.23,39.23,0,0,0-2.4-11.5s-5.2.18-9,.18-4.5-.13-5.83-1.19-2.51-2.38-3.84-1.19-1.72,2.52-3.84,1.72a28.74,28.74,0,0,1-4.5-2.19C216.26,145.17,199.69,144.11,196.65,146.23Z" style="fill:#FF725E"></path><path d="M205.12,156.18c-.41-3.12.52-4.91,2.65-4.91s3.5,1.69,3.88,4.65l1.23,9.63a7.32,7.32,0,0,1-.07,2.64c.14.34.3.37.65.32l.19,0,.33,2.58-.29.05a1.73,1.73,0,0,1-2-1,3.36,3.36,0,0,1-1.43.59c-2.07.33-3.43-1.27-3.83-4.39Zm3.47,10.08c.18,1.37.67,1.84,1.34,1.74s1-.66.86-2l-1.31-10.17c-.18-1.35-.67-1.85-1.36-1.83s-1.05.54-.87,1.91Z" style="fill:#fff"></path><path d="M214.55,151.48l1.75,13.86c.16,1.28.64,1.68,1.32,1.59s1-.6.88-1.86l-1.71-13.6h2.05l1.64,13.18c.34,2.77-.53,4.52-2.6,4.86s-3.35-1.16-3.72-4.09l-1.78-13.94Z" style="fill:#fff"></path><path d="M223.35,158.52l2.93-.2.29,2.33-2.93.26.6,4.9,3.66-.5.28,2.31-5.75.92-2.12-17.07h5.91l.28,2.31-3.73.09Z" style="fill:#fff"></path><path d="M230.5,158l2.94-.19.26,2.16-2.93.27.55,4.57,3.65-.5.25,2.15-5.74.92-1.93-16h5.91l.25,2.15-3.72.09Z" style="fill:#fff"></path><path d="M237.19,155.45,238.4,166l-1.9.3-1.72-14.84h2.71l3.18,8.42-.95-8.43h1.92l1.55,13.78-2.17.35Z" style="fill:#fff"></path><path d="M225.86,168.89c-.07,0,.41-1.37,1.1-3.57a89.11,89.11,0,0,0,2.29-8.69c.71-3.43,1.14-6.58,1.39-8.87s.34-3.72.42-3.71a3.33,3.33,0,0,1,.06,1c0,.65,0,1.59-.11,2.74a68.19,68.19,0,0,1-1.25,9,66.22,66.22,0,0,1-2.45,8.7c-.39,1.09-.73,2-1,2.55A3.09,3.09,0,0,1,225.86,168.89Z" style="fill:#263238"></path><path d="M239.89,134.82a2,2,0,0,1,.2.49c.13.39.29.86.48,1.44.39,1.26,1,3.06,1.81,5.27s1.86,4.81,2.83,7.79a36.84,36.84,0,0,1,1.74,10,80.94,80.94,0,0,1-.31,10.16c-.15,1.55-.3,3-.43,4.41s-.34,2.65-.49,3.82c-.29,2.34-.61,4.22-.81,5.53-.1.6-.19,1.09-.26,1.49a2,2,0,0,1-.12.52,2,2,0,0,1,0-.53c0-.41.09-.91.16-1.51.13-1.31.4-3.2.65-5.54l.42-3.83c.12-1.38.25-2.85.39-4.4a88.87,88.87,0,0,0,.26-10.09,38.21,38.21,0,0,0-1.67-9.9c-.94-2.95-2-5.56-2.73-7.8s-1.32-4.06-1.65-5.34c-.16-.59-.28-1.07-.39-1.47A2.62,2.62,0,0,1,239.89,134.82Z" style="fill:#263238"></path><path d="M160.31,153.93s-.07.12-.19.36a6.83,6.83,0,0,0-.44,1.11,13.3,13.3,0,0,0-.43,4.58,22.14,22.14,0,0,0,.47,3.33c.24,1.21.66,2.48,1,3.89a6,6,0,0,1,.26,2.28.94.94,0,0,1-.14.33l-.16.23a2.42,2.42,0,0,0-.27.5,3.43,3.43,0,0,0-.18,1.15,15.18,15.18,0,0,0,0,2.52,15.68,15.68,0,0,1,.18,2.71h0c-.95,4.58-2,9.77-3.21,15.44v0a59.37,59.37,0,0,0,0,6,35.26,35.26,0,0,0,.78,6.23,30,30,0,0,0,2.42,6.1q1.49,3,3,6.21l6.45,13c1.1,2.24,2.22,4.51,3.31,6.83.54,1.17,1.1,2.31,1.57,3.56a8.91,8.91,0,0,0,1.82,3.31,15.83,15.83,0,0,0,8.08,5.57h-.12l16.83-4.32c.67-.19,1.39-.33,2-.54A3.89,3.89,0,0,0,205,243.2a3.84,3.84,0,0,0,.74-3.59l-2.4-7.47c-1.54-4.86-3-9.48-4.22-13.82a56,56,0,0,1-1.55-6.36,52.77,52.77,0,0,0-1.23-5.84c-.94-3.69-1.89-7-2.73-9.89-.43-1.44-.81-2.8-1.21-4l-1.2-3.31c-.72-2-1.27-3.5-1.66-4.57l-.41-1.19c-.09-.27-.13-.41-.13-.41a3.5,3.5,0,0,1,.17.4c.12.28.27.67.47,1.17.4,1.06,1,2.58,1.73,4.54.38,1,.8,2.09,1.25,3.29s.81,2.57,1.25,4c.87,2.89,1.84,6.19,2.81,9.89a50.59,50.59,0,0,1,1.27,5.88,56.63,56.63,0,0,0,1.57,6.29c1.26,4.32,2.71,8.93,4.26,13.79q1.19,3.65,2.42,7.47a4.33,4.33,0,0,1-.83,4.05,4.41,4.41,0,0,1-1.76,1.25c-.71.24-1.36.37-2,.56l-16.83,4.35h-.12a12.94,12.94,0,0,1-4.58-2.17,19.5,19.5,0,0,1-3.79-3.59,9.48,9.48,0,0,1-1.92-3.47c-.43-1.17-1-2.35-1.54-3.5-1.09-2.31-2.2-4.58-3.3-6.82l-6.43-13c-1-2.11-2-4.19-3-6.22a29.91,29.91,0,0,1-2.44-6.2,35.75,35.75,0,0,1-.77-6.32,57.22,57.22,0,0,1,0-6v0h0c1.21-5.67,2.32-10.86,3.3-15.43h0a16.64,16.64,0,0,0-.16-2.64,15.77,15.77,0,0,1,0-2.57,4,4,0,0,1,.21-1.25,3.55,3.55,0,0,1,.3-.54l.18-.25a.58.58,0,0,0,.09-.21,6.12,6.12,0,0,0-.24-2.16,30.63,30.63,0,0,1-1.43-7.27,12.64,12.64,0,0,1,.52-4.62,5.88,5.88,0,0,1,.49-1.11A1.66,1.66,0,0,1,160.31,153.93Z" style="fill:#263238"></path><path d="M224.57,122.18a1.61,1.61,0,0,1,.05.46,8.69,8.69,0,0,1-.11,1.33,9.57,9.57,0,0,1-2.09,4.4,11,11,0,0,1-6.2,3.65,15.26,15.26,0,0,1-8.8-.78,24.11,24.11,0,0,1-7.51-4.69,33.89,33.89,0,0,1-4.81-5.4,29,29,0,0,1-2.52-4.16c-.25-.52-.43-.93-.53-1.21a1.47,1.47,0,0,1-.14-.44s.3.56.85,1.55a35.21,35.21,0,0,0,2.64,4,35.78,35.78,0,0,0,4.83,5.25,24.14,24.14,0,0,0,7.38,4.56,15,15,0,0,0,8.5.8,10.77,10.77,0,0,0,6-3.42,9.9,9.9,0,0,0,2.17-4.2C224.55,122.82,224.52,122.18,224.57,122.18Z" style="fill:#263238"></path><path d="M198.24,179.59a1.73,1.73,0,0,1-.38-.28c-.29-.23-.62-.52-1-.86s-1-.84-1.64-1.34-1.38-1.11-2.24-1.7c-1.67-1.24-3.75-2.6-6.08-4.06s-5-2.95-7.73-4.54-5.38-3.13-7.72-4.61-4.37-2.92-6-4.21c-.85-.62-1.55-1.25-2.19-1.78s-1.16-1-1.58-1.43l-1-.95a2.19,2.19,0,0,1-.31-.35,1.5,1.5,0,0,1,.38.28l1,.87c.43.38,1,.85,1.63,1.35s1.37,1.12,2.22,1.72c1.67,1.25,3.72,2.63,6.06,4.09s4.95,3,7.72,4.57,5.38,3.12,7.72,4.58,4.4,2.89,6,4.17c.85.62,1.56,1.24,2.2,1.77A21.14,21.14,0,0,1,197,178.3l1,.94C198.15,179.45,198.25,179.57,198.24,179.59Z" style="fill:#263238"></path><g style="opacity:0.30000000000000004"><path d="M202.74,212.84c-1.55-5.92-4.09-11.53-6.62-17.11-1.59-3.51-3.23-7.1-5.88-9.92,1,4.49,3,8.31,4.17,12.76,2.7,10.55,4.86,21.66,8.36,32l.56.45C204.83,225.06,204.29,218.76,202.74,212.84Z"></path></g><g style="opacity:0.30000000000000004"><path d="M189.06,183.29a39.58,39.58,0,0,0-11.24-9c-3.51-1.89-7.8-3.33-11.4-1.63-.35.16-.72.41-.77.79-.1.68.82,1,1.51,1a40.68,40.68,0,0,1,21.9,8.79"></path></g><g style="opacity:0.30000000000000004"><path d="M164.9,207.42A42.92,42.92,0,0,0,190.76,219c.89.08,2,0,2.34-.82a1.52,1.52,0,0,0-.64-1.73,4.63,4.63,0,0,0-1.88-.61,89.83,89.83,0,0,1-25.83-8.71"></path></g><g style="opacity:0.30000000000000004"><path d="M158.61,183.83l-9.19-5.38a28.09,28.09,0,0,0,6.77-2.76,2.74,2.74,0,0,0,1.25-1.15c.54-1.25-.83-2.89,0-4a4.68,4.68,0,0,1,1-.75c1.27-1,1.15-3,.68-4.49a8.39,8.39,0,0,1,0-5,20.72,20.72,0,0,0,.62,3.64,34.76,34.76,0,0,1,1.22,4.75c.07,1.47-.4.88-.64,2-.16.72-.05,3.07-.2,4a6.47,6.47,0,0,1,.25,2.26c-.3,2-1.27,4.67-1.57,6.71"></path></g><g style="opacity:0.30000000000000004"><path d="M213,209.14c-2.57-9.43-7.9-16.76-14.12-23.56,4.12,8.65,7.57,15.72,12.33,24,.34.6,1,1.29,1.6.88C213.21,210.21,213.14,209.61,213,209.14Z"></path></g><g style="opacity:0.30000000000000004"><path d="M238.64,202.58a10.08,10.08,0,0,0-.67-11.41c.39,2.68.76,5.49-.17,8-1.26,3.45-4,4.89-7.12,6.81l5.66.46a14.17,14.17,0,0,0,6.26-6.11A18.11,18.11,0,0,1,238.64,202.58Z"></path></g><g style="opacity:0.30000000000000004"><path d="M226.15,168.17A63,63,0,0,0,221,185c3.35-5.58,6.73-11.22,8.82-17.38s2.85-13,.86-19.18c-.76,7.57-1.85,11.91-4.55,19.7"></path></g><path d="M195.2,253.23a11.22,11.22,0,0,1-1.29-6.4,18.92,18.92,0,0,1,.68,3.2A18.17,18.17,0,0,1,195.2,253.23Z" style="fill:#263238"></path><path d="M197.71,251.62a14.89,14.89,0,0,1-2.54-4.89,7.33,7.33,0,0,1,1.5,2.32A7.48,7.48,0,0,1,197.71,251.62Z" style="fill:#263238"></path><path d="M182.81,236.35c.15-.06,1.43,2.76,3.55,5.92s4.21,5.44,4.09,5.55a7.68,7.68,0,0,1-1.49-1.39,31.39,31.39,0,0,1-3-3.87,33,33,0,0,1-2.4-4.29A6.73,6.73,0,0,1,182.81,236.35Z" style="fill:#263238"></path><path d="M262.2,155.65c0-1.61,7.85-2.17,8.84,3.1l10.23-12,4.17-7.57,15.64,1.42-.14,5.66s-2.23,9.14-1.67,17.3-2.06,7-6.28,18.66-7.39,10-11.61,11.22-21.16-3.35-21.16-3.35,9.46,16.31,9.06,20.53-11,23.33-11,23.33-5.05-31.37-6.1-41.18c-1.07-10,0-15.51,0-15.51Z" style="fill:#455a64"></path><path d="M274.17,184.72a3.74,3.74,0,0,1-1.54-.79,9.84,9.84,0,0,1-2.73-3.18,13.22,13.22,0,0,1-1.41-3.94,4.58,4.58,0,0,1-.14-1.73c.18,0,.47,2.62,2,5.41a11.61,11.61,0,0,0,2.51,3.15C273.64,184.32,274.22,184.64,274.17,184.72Z" style="fill:#263238"></path><path d="M278,97l14.12-.28a1.75,1.75,0,0,1,1.78,1.9l-3,34-15.69.61a1.75,1.75,0,0,1-1.81-1.9l2.89-32.77A1.73,1.73,0,0,1,278,97Z" style="fill:#263238"></path><path d="M299.27,132.76v-11s-.69-4.34-2.37-4.06L293.27,110l-5.41-4.78h-5.63s-.56,3.1,1.82,3.66l3.81,1.26.8,2,.56,6-6.43-2.1-7.94.56s-1.56,2.38,1,3.49l4.75.56,7.3,3.22-6.75-1.68-7.82.28a2.28,2.28,0,0,0,2.24,2.79,24.76,24.76,0,0,1,5.16,1.26L287,129l-5.87-.61-6.26.61a3.21,3.21,0,0,0,2.77,2c2.24.28,5.31.56,5.31.56l3.33,1.26a10.44,10.44,0,0,0,2.68,4.47s1.67,2.09,3.77,2,6.56-2.51,6.56-4.47Z" style="fill:#ffbe9d"></path><path d="M292.72,120.91c0,.08.37-.07.93-.08a2.63,2.63,0,0,1,2.78,2.56c0,.55-.08.9,0,.93s.3-.29.36-.93a2.7,2.7,0,0,0-3.17-2.91C293,120.59,292.69,120.87,292.72,120.91Z" style="fill:#eb996e"></path><path d="M291.58,125.14c0,.14.84.44,1.68,1.15s1.33,1.48,1.46,1.41-.18-1-1.14-1.8S291.6,125,291.58,125.14Z" style="fill:#eb996e"></path><path d="M291.23,130.15c0,.14.41.21.85.33s.82.24.9.12-.23-.47-.77-.61S291.21,130,291.23,130.15Z" style="fill:#eb996e"></path><path d="M283.81,101.06a1.13,1.13,0,1,0,1.13-1.12A1.13,1.13,0,0,0,283.81,101.06Z" style="fill:#fff"></path><g style="opacity:0.30000000000000004"><path d="M285.76,139.16l15.35,1.5a7.91,7.91,0,0,1-15.58-1.6"></path></g><path d="M299.27,134.71l-.51,9.76s-5.27,5.3-11.06-.42l.84-9Z" style="fill:#ffbe9d"></path><path d="M299.64,151.65s-.22.22-.68.5a11.13,11.13,0,0,1-2.09,1A12.73,12.73,0,0,1,283,149.23a11.19,11.19,0,0,1-1.29-1.9,2.48,2.48,0,0,1-.33-.78c.09-.05.61,1,1.9,2.43a13.07,13.07,0,0,0,13.48,3.77C298.58,152.22,299.59,151.57,299.64,151.65Z" style="fill:#263238"></path><path d="M292.15,149a5.8,5.8,0,0,1,0,2.39,5.73,5.73,0,0,1-.56,2.32,5.8,5.8,0,0,1,0-2.39A5.73,5.73,0,0,1,292.15,149Z" style="fill:#263238"></path><path d="M294.35,148.65a7.34,7.34,0,0,1-.59,2.68,7.55,7.55,0,0,1-1.09,2.52,7.41,7.41,0,0,1,.59-2.68A7.8,7.8,0,0,1,294.35,148.65Z" style="fill:#263238"></path><path d="M281.46,186a4.57,4.57,0,0,1-1.1-.53,14.8,14.8,0,0,1-2.65-2,21.21,21.21,0,0,1-5.51-9.4,36.81,36.81,0,0,1-1.41-10.84c0-1.4.07-2.53.12-3.31a4.6,4.6,0,0,1,.13-1.21,5.81,5.81,0,0,1,.07,1.21c0,.89,0,2,.05,3.3A40.17,40.17,0,0,0,272.7,174a21.94,21.94,0,0,0,5.27,9.28A26.3,26.3,0,0,0,281.46,186Z" style="fill:#263238"></path><path d="M295.18,165.26a8.3,8.3,0,0,1-2,1.39A24.38,24.38,0,0,1,282,169.86a7.7,7.7,0,0,1-2.42-.13,47.71,47.71,0,0,0,8-1.31A47.62,47.62,0,0,0,295.18,165.26Z" style="fill:#263238"></path><path d="M263.29,155.32a7.73,7.73,0,0,1-.32,1.39c-.27,1-.62,2.23-1,3.73a84.1,84.1,0,0,0-2.65,12.45,46.41,46.41,0,0,0,.2,12.67c.52,3.22,1.09,5.16,1,5.19a8.2,8.2,0,0,1-.45-1.35,36.8,36.8,0,0,1-.91-3.78,42.83,42.83,0,0,1-.35-12.79,72.26,72.26,0,0,1,2.81-12.49c.48-1.57.9-2.82,1.19-3.69A7.07,7.07,0,0,1,263.29,155.32Z" style="fill:#263238"></path><g style="opacity:0.30000000000000004"><path d="M260.68,190a29,29,0,0,0,9.39,2.32,48.81,48.81,0,0,1-8.56-30.92c-1.45,3.82-2.45,11.13-2.61,15.88-.21,6.42,0,8.48,1.78,12.72"></path></g><g style="opacity:0.30000000000000004"><path d="M271,162.43a27.22,27.22,0,0,0,10.78,20.89,3.38,3.38,0,0,1,1.24,1.31,1.06,1.06,0,0,1-.62,1.46,1.44,1.44,0,0,1-1-.31,21.53,21.53,0,0,1-10.09-16.88"></path></g><g style="opacity:0.30000000000000004"><path d="M283.29,149.4a11.49,11.49,0,0,0,4.17,5.42,8.77,8.77,0,0,0,6.61,1.41,7.12,7.12,0,0,0,5.15-4.23c-5.18,2.26-10.63,2.31-15.93-2.6"></path></g><path d="M258.79,231.64c-.05,0,.3-.83.75-2.34a32.26,32.26,0,0,0,1.21-6.56,47.15,47.15,0,0,0-.32-9.89,114,114,0,0,0-2.38-11.92c-1-4.2-2-8.22-2.55-11.94a51.12,51.12,0,0,1-.7-10,32.79,32.79,0,0,1,.9-6.67c.2-.77.37-1.36.52-1.76a2.39,2.39,0,0,1,.23-.59c.05,0-.22.85-.55,2.39a35.91,35.91,0,0,0-.73,6.64,54.55,54.55,0,0,0,.8,9.87c.61,3.68,1.58,7.68,2.59,11.89a108.18,108.18,0,0,1,2.35,12,46,46,0,0,1,.21,10,30.32,30.32,0,0,1-1.38,6.59c-.27.75-.49,1.33-.67,1.7A3.08,3.08,0,0,1,258.79,231.64Z" style="fill:#263238"></path><path d="M258.67,211.73c.11.09-.23.72-.76,1.42s-1.05,1.19-1.17,1.1.23-.72.76-1.42S258.55,211.65,258.67,211.73Z" style="fill:#263238"></path><path d="M255.55,195c-.09.11-.49-.08-1-.23s-.93-.23-.94-.38.49-.31,1.09-.12S255.65,194.89,255.55,195Z" style="fill:#263238"></path><path d="M199.61,290.38a1.34,1.34,0,0,0,2.22-.91c.2-1.28-.21-7.75-.21-7.75s2.7,6.53,2.68,7.57,1.31,1.84,2.63,1.35-.26-14.33-.26-14.33l.4-8.89s.62-1,1.81.52,2.24,2.16,3.65,3.89,4.5,3,5.86,2.62l.81-1.34-4.73-5.36s-3.3-5.37-4.78-7.26-6.57-3.4-7.14-5-.79-2.53-.79-2.53l-12.52,4.35s.53,16.27.53,17,2.69,6.55,2.69,6.55,1.58,6.18,2.17,6.57a1.09,1.09,0,0,0,1.35,0s.69,2.05,1.78,2c.25,0,1.21-.29,1.18-.92" style="fill:#ffbe9d"></path><path d="M201.73,264.59a4.86,4.86,0,0,0,.08-1.38,4,4,0,0,0-.45-1.54,3.83,3.83,0,0,0-1.42-1.54,4.07,4.07,0,0,0-2.46-.56,3.92,3.92,0,0,0-2.58,1.27,6,6,0,0,0-1.37,2.92,12.7,12.7,0,0,0,0,3.54c.06.43.11.87.17,1.3l-.22-.05,1-1.78.49-.86a4.28,4.28,0,0,1,.27-.43.63.63,0,0,1,.23-.19.52.52,0,0,1,.3,0,2.19,2.19,0,0,1,.46.23,3.11,3.11,0,0,0,.41.2,3.32,3.32,0,0,0,.86.23,3.5,3.5,0,0,0,1.68-.17l.12-.05,0,.12a11.56,11.56,0,0,0,1.25,3.55h-.15c.45-1.48.81-2.67,1-3.5.1-.42.17-.74.22-1a2.74,2.74,0,0,1,.08-.34,1.45,1.45,0,0,1,0,.34c0,.23-.09.56-.18,1-.17.84-.51,2-.93,3.53l-.05.18-.1-.16a11.48,11.48,0,0,1-1.31-3.59l.14.08a3.83,3.83,0,0,1-1.79.2,3.78,3.78,0,0,1-.92-.24,4.37,4.37,0,0,1-.43-.22,1.86,1.86,0,0,0-.4-.2c-.25-.08-.39.25-.55.53l-.5.87-1,1.78-.17.3,0-.34c-.06-.43-.12-.87-.17-1.31a12.4,12.4,0,0,1,0-3.6,6,6,0,0,1,1.45-3,4.15,4.15,0,0,1,1.27-.95,4.22,4.22,0,0,1,1.44-.38A4.33,4.33,0,0,1,200,260a4,4,0,0,1,1.45,1.63,4.19,4.19,0,0,1,.42,1.6,3.68,3.68,0,0,1-.07,1,1.68,1.68,0,0,1-.07.27A.24.24,0,0,1,201.73,264.59Z" style="fill:#263238"></path><path d="M201,264.37a3.31,3.31,0,0,0-.3-1,1.91,1.91,0,0,0-.74-.76,2,2,0,0,0-1.26-.24l.1-.12h0a2.19,2.19,0,0,0,.42,1.23,2.12,2.12,0,0,0,.84.66,4,4,0,0,0,1,.24,1.52,1.52,0,0,1-1.06-.08,2.26,2.26,0,0,1-.94-.69,2.32,2.32,0,0,1-.48-1.35v-.12h.1a2.06,2.06,0,0,1,1.4.29,2,2,0,0,1,.78.86A1.44,1.44,0,0,1,201,264.37Z" style="fill:#263238"></path><path d="M199.9,263.07c.06,0,.09.24.07.51s-.1.5-.17.49-.09-.23-.07-.51S199.83,263.07,199.9,263.07Z" style="fill:#263238"></path><path d="M196.68,262.41a3.54,3.54,0,0,0-.89,0,1.84,1.84,0,0,0-.84.4,2,2,0,0,0-.37.4,1.07,1.07,0,0,0-.12.24c0,.08,0,.1,0,.15a1.55,1.55,0,0,0,1.08.07,1.6,1.6,0,0,0,.78-.48,3.05,3.05,0,0,0,.44-.77,1.19,1.19,0,0,1-.31.87,1.73,1.73,0,0,1-2.12.5.31.31,0,0,1-.15-.18.33.33,0,0,1,0-.22,2.94,2.94,0,0,1,.16-.31,2.25,2.25,0,0,1,.43-.44,1.82,1.82,0,0,1,1-.39A1.27,1.27,0,0,1,196.68,262.41Z" style="fill:#263238"></path><path d="M198.41,266a5.48,5.48,0,0,1-.41-2.24v-.33l.21.26,0,.07a3.18,3.18,0,0,1,.69,1.54,1.37,1.37,0,0,1,0,.7,4.4,4.4,0,0,1-.15-.67,3.87,3.87,0,0,0-.71-1.43l-.05-.06.2-.08C198.25,265,198.48,266,198.41,266Z" style="fill:#263238"></path><path d="M197.11,265.88s-.06-.21,0-.55a3,3,0,0,1,.11-.58,3.43,3.43,0,0,1,.12-.33l.07-.17a.36.36,0,0,1,.18-.2.17.17,0,0,1,.22.07.43.43,0,0,1,0,.14v.19a2,2,0,0,1,0,.35,4.33,4.33,0,0,1-.06.58c-.06.34-.15.53-.18.52a1.78,1.78,0,0,1,0-.54c0-.16,0-.35,0-.56s0-.22,0-.34v-.21s0,0,0,0,0,0,0,0-.07.16-.11.27a2.45,2.45,0,0,0-.12.31c-.07.2-.12.39-.16.54A2.22,2.22,0,0,1,197.11,265.88Z" style="fill:#263238"></path><path d="M197.69,261.79s0,0-.11,0a.15.15,0,0,1-.12-.07.23.23,0,0,1,0-.2.38.38,0,0,1,.37-.27,1.31,1.31,0,0,1,.5.1,1,1,0,0,1,.31.21l.1.09-.1.08a.87.87,0,0,1-.62.19c-.16,0-.24-.07-.23-.1s.38,0,.7-.26v.17a1,1,0,0,0-.26-.17c-.27-.11-.57-.13-.62,0a.11.11,0,0,0,0,.14S197.68,261.77,197.69,261.79Z" style="fill:#263238"></path><path d="M195.9,261.37s0-.08,0-.23a1.05,1.05,0,0,1,.36-.55,1.1,1.1,0,0,1,.95-.22,1.2,1.2,0,0,1,.86.83l0,.11-.23.05a.77.77,0,0,1,.68-.92,1.1,1.1,0,0,1,.89.34,1.45,1.45,0,0,1,.33.52c.05.14.07.22.05.22s-.14-.29-.49-.62a1,1,0,0,0-.75-.25.56.56,0,0,0-.49.64l-.22,0,0-.08a1,1,0,0,0-.7-.68.92.92,0,0,0-.79.15A1.59,1.59,0,0,0,195.9,261.37Z" style="fill:#263238"></path><path d="M195.94,265.43s-.05-.16,0-.41a1.86,1.86,0,0,1,.51-.85l0,0,.2-.2v.28a4,4,0,0,1-.13,1.31,3.69,3.69,0,0,1-.11-1.31l.2.09,0,0A4.61,4.61,0,0,0,195.94,265.43Z" style="fill:#263238"></path><path d="M193.9,266.39c-.05,0,0-.24.13-.48s.16-.45.23-.44.09.25,0,.52S194,266.43,193.9,266.39Z" style="fill:#263238"></path><path d="M200.45,267.06c-.06,0-.15-.22-.14-.53s.1-.53.16-.52.08.25.07.53S200.52,267.05,200.45,267.06Z" style="fill:#263238"></path><path d="M201.41,261.45c.06,0,0,.5-.41.91l-.12.1-.08-.21c.43,0,.72-.25.76-.2s-.22.37-.74.43l-.37,0,.29-.24.1-.09C201.21,261.84,201.35,261.43,201.41,261.45Z" style="fill:#263238"></path><path d="M194.63,261.1c.05,0,.31.22.59.58l-.2.11,0-.13c-.14-.53-.07-1,0-1a5.84,5.84,0,0,1,.23.91l0,.12.18.61-.38-.51C194.76,261.45,194.59,261.14,194.63,261.1Z" style="fill:#263238"></path><path d="M201.26,273.48a2,2,0,0,1-.07-.26c0-.2-.08-.43-.13-.72-.12-.64-.28-1.51-.46-2.55l.13.06-1.5.89-.13.08,0-.15c-.19-1.07-.41-2.25-.64-3.51h.23c0,.35-.07.73-.11,1.1-.15,1.41-.3,2.76-.43,4l-.15-.11,1.48-.62.13,0v.13c.06,1,.11,1.88.15,2.6l-.1-.05,1.17-.6a2.31,2.31,0,0,1,.45-.2,2.69,2.69,0,0,1-.39.24l-1.17.68-.09.05v-.11c0-.71-.13-1.59-.21-2.59l.14.08-1.47.64-.17.08,0-.19c.12-1.22.26-2.56.41-4,0-.38.08-.75.11-1.1l.09-.83.14.82.62,3.52-.16-.08,1.52-.86.11-.07,0,.13.38,2.61.09.71A.87.87,0,0,1,201.26,273.48Z" style="fill:#263238"></path><path d="M196.36,272.12a4.83,4.83,0,0,1,.21-.72c.14-.45.34-1.08.61-1.85l.08.12-1.31,0h-.15l0-.14c.26-.78.54-1.64.85-2.55l.2.1-.47.69c-.62.87-1.2,1.7-1.73,2.46l-.08-.17,1.21.13.14,0-.06.12c-.33.68-.62,1.27-.85,1.77l-.06-.1,1,0,.38,0-.35,0-1,0h-.1l0-.1c.23-.5.5-1.11.8-1.79l.08.14-1.21-.11-.18,0,.1-.15,1.71-2.48c.17-.23.33-.46.48-.68l.48-.69-.27.79c-.31.91-.61,1.77-.88,2.54l-.1-.13,1.32,0h.13l0,.12c-.29.79-.53,1.43-.7,1.86A4.73,4.73,0,0,1,196.36,272.12Z" style="fill:#263238"></path><path d="M195.85,262.88c.06,0,.1.19.08.42s-.09.41-.16.41-.1-.2-.08-.43S195.78,262.87,195.85,262.88Z" style="fill:#263238"></path><path d="M196.88,258a2.92,2.92,0,0,0,.59.1,4.7,4.7,0,0,0,1.58-.4,3.38,3.38,0,0,1,1.15-.19,1.32,1.32,0,0,1,1.14.71,8.74,8.74,0,0,1,.44,1.4,3.73,3.73,0,0,0,.88,1.21,2.29,2.29,0,0,1,.45.69,1.36,1.36,0,0,1,0,.82,9.62,9.62,0,0,1-.55,1.36,1.64,1.64,0,0,0,0,1.21c.13.37.32.71.45,1a2,2,0,0,1,.15,1,1.09,1.09,0,0,1-.33.65c-.32.28-.6.2-.58.19a.81.81,0,0,0,.51-.26,1,1,0,0,0,.27-.6,1.76,1.76,0,0,0-.18-.88c-.13-.31-.33-.64-.47-1a2,2,0,0,1-.13-.65,2.08,2.08,0,0,1,.14-.7,10.83,10.83,0,0,0,.53-1.33,1.25,1.25,0,0,0,0-.69,2.34,2.34,0,0,0-.4-.62,3.88,3.88,0,0,1-.93-1.29,11.86,11.86,0,0,0-.41-1.37,1.09,1.09,0,0,0-1-.61,3.16,3.16,0,0,0-1.09.15,4.49,4.49,0,0,1-1.63.33,1.33,1.33,0,0,1-.45-.11A.69.69,0,0,1,196.88,258Z" style="fill:#263238"></path><path d="M195.63,259.24s-.12.18-.42.13a.58.58,0,0,1-.35-.94.6.6,0,0,1,.59-.24.57.57,0,0,1,.4.31c.14.27,0,.46,0,.44s0-.17-.14-.35a.45.45,0,0,0-.3-.19.4.4,0,0,0-.36.17.38.38,0,0,0-.06.4.47.47,0,0,0,.26.24C195.47,259.29,195.61,259.21,195.63,259.24Z" style="fill:#263238"></path><path d="M193.56,271.34s0,0-.13,0a.77.77,0,0,1-.34-.13,1.62,1.62,0,0,1-.67-1.16,9.93,9.93,0,0,0-.22-1.93,7.4,7.4,0,0,1-.35-1.12,3.21,3.21,0,0,1,.09-1.27,8.26,8.26,0,0,0,.07-2.37,6.2,6.2,0,0,1,0-1.06,3.28,3.28,0,0,1,.26-.9,2,2,0,0,1,.89-1,1.31,1.31,0,0,1,.35-.12h.13a3.4,3.4,0,0,0-.43.2,2,2,0,0,0-.79,1,4.08,4.08,0,0,0-.22,1.88,7.93,7.93,0,0,1-.05,2.42,3.11,3.11,0,0,0-.09,1.2,10.45,10.45,0,0,0,.32,1.09,8.08,8.08,0,0,1,.18,2,1.6,1.6,0,0,0,.56,1.1C193.38,271.32,193.57,271.31,193.56,271.34Z" style="fill:#263238"></path><path d="M194.64,273.67s.06-.14,0-.33a.38.38,0,0,0-.19-.24.33.33,0,0,0-.44.38.39.39,0,0,0,.21.21c.18.09.31,0,.33,0s-.1.18-.38.12a.51.51,0,0,1-.36-.3A.5.5,0,0,1,194,273a.49.49,0,0,1,.58-.08.51.51,0,0,1,.25.4C194.83,273.59,194.65,273.7,194.64,273.67Z" style="fill:#263238"></path><path d="M184.75,110a2.91,2.91,0,0,1-.63.07l-1.81.12c-.79.06-1.75.14-2.86.25l-1.79.2-1,.12a3.48,3.48,0,0,0-.95.21,1.58,1.58,0,0,0-.84,1.64,1.43,1.43,0,0,0,.48.89,2.81,2.81,0,0,0,1,.5,41,41,0,0,0,5.15,1l12,2.11,11.95,2.15,5.22,1a34.78,34.78,0,0,0,4.54.68,17.52,17.52,0,0,0,6.55-.63,3.89,3.89,0,0,0,1.54-.88c.28-.28.38-.49.4-.47a1.7,1.7,0,0,1-.33.55,3.91,3.91,0,0,1-1.53,1,16.9,16.9,0,0,1-6.65.81,35.68,35.68,0,0,1-4.6-.62l-5.22-.91-12-2.11-11.95-2.15a38,38,0,0,1-5.21-1.12,3.15,3.15,0,0,1-1.15-.59,1.85,1.85,0,0,1-.6-1.15,2,2,0,0,1,1.09-2,3.09,3.09,0,0,1,1.06-.22l1-.11,1.79-.16c1.12-.09,2.09-.13,2.88-.16s1.4,0,1.82,0A2.83,2.83,0,0,1,184.75,110Z" style="fill:#263238"></path><circle cx="170.56" cy="112.1" r="3" style="fill:#263238"></circle><ellipse cx="173.86" cy="112.27" rx="0.83" ry="0.26" style="fill:#263238"></ellipse><path d="M133.84,289.66c0,.14-18.36.26-41,.26s-41-.12-41-.26,18.35-.26,41-.26S133.84,289.52,133.84,289.66Z" style="fill:#263238"></path><path d="M162.1,283.06c0,.14-19.78.26-44.16.26s-44.16-.12-44.16-.26,19.77-.26,44.16-.26S162.1,282.92,162.1,283.06Z" style="fill:#263238"></path><path d="M358.22,224.17c0,.14-18.36.26-41,.26s-41-.12-41-.26,18.35-.26,41-.26S358.22,224,358.22,224.17Z" style="fill:#263238"></path><path d="M145.16,121.69l4.12,1.55-3.58,1a3.73,3.73,0,0,0-2.53,2.43l-1.3,4-1.59-4a3.72,3.72,0,0,0-2.19-2.12l-3.62-1.32,3.92-1.61a3.73,3.73,0,0,0,2.07-2.11l1.41-3.69,1,3.43A3.72,3.72,0,0,0,145.16,121.69Z" style="fill:#FF725E"></path><path d="M177.37,69.73l2,.75-1.74.5a1.77,1.77,0,0,0-1.22,1.17l-.63,1.92L175,72.15a1.84,1.84,0,0,0-1.07-1l-1.75-.64,1.9-.78a1.82,1.82,0,0,0,1-1l.69-1.79.49,1.66A1.8,1.8,0,0,0,177.37,69.73Z" style="fill:#FF725E"></path><path d="M134.07,101.71l2.11.8-1.83.52a1.9,1.9,0,0,0-1.3,1.24l-.67,2-.81-2a1.93,1.93,0,0,0-1.13-1.09l-1.85-.67,2-.83a1.94,1.94,0,0,0,1.06-1.08l.72-1.89.53,1.75A1.9,1.9,0,0,0,134.07,101.71Z" style="fill:#FF725E"></path><path d="M256.72,101l2.11.8-1.84.52a1.89,1.89,0,0,0-1.29,1.24l-.67,2-.81-2a2,2,0,0,0-1.13-1.09l-1.86-.67,2-.83a1.94,1.94,0,0,0,1.06-1.08L255,98l.52,1.75A1.9,1.9,0,0,0,256.72,101Z" style="fill:#FF725E"></path><path d="M158.52,92.77l2.12.79-1.84.52a2,2,0,0,0-1.3,1.25l-.66,2-.82-2a1.89,1.89,0,0,0-1.12-1.08L153,93.56l2-.82a1.9,1.9,0,0,0,1.06-1.09l.73-1.88.52,1.75A1.9,1.9,0,0,0,158.52,92.77Z" style="fill:#e0e0e0"></path><path d="M182.42,420.91c0,.15-19.9.26-44.43.26s-44.44-.11-44.44-.26,19.89-.26,44.44-.26S182.42,420.77,182.42,420.91Z" style="fill:#263238"></path><path d="M219.47,416.1c0,.14-19.9.26-44.44.26s-44.44-.12-44.44-.26,19.9-.26,44.44-.26S219.47,416,219.47,416.1Z" style="fill:#263238"></path></g></svg>