<svg xmlns="http://www.w3.org/2000/svg" viewBox="0 0 500 500"><g id="freepik--background-simple--inject-124"><path d="M54.13,202.49l1.78,1.38c15,11.63,35.11,14.41,52.21,6.59a48.42,48.42,0,0,0,6.36-3.48,53.41,53.41,0,0,0,23.73-44.5c-.09-10.37-3.14-21.18.52-30.84,4.76-12.57,18.82-18.29,31.43-22.67s26.67-10.13,31.37-22.72c2.95-7.89,1.4-16.91-2-24.64C190.38,41.13,168.66,28,146.58,25.8S102.38,31.11,83.67,43C57.45,59.54,36.46,85.6,29.51,116.09S31.12,181.25,54.13,202.49Z" style="fill:#f5f5f5"></path><circle cx="434.27" cy="300.03" r="38.14" transform="translate(41.11 652.22) rotate(-76.49)" style="fill:#f5f5f5"></circle></g><g id="freepik--Table--inject-124"><path d="M474,466.89c0,.15-98.65.26-220.31.26S33.35,467,33.35,466.89s98.63-.26,220.34-.26S474,466.75,474,466.89Z" style="fill:#263238"></path></g><g id="freepik--Hearts--inject-124"><path d="M196.4,80a7.23,7.23,0,0,0-5.84-4.17c-2.57-.2-7.12,1.59-7.41,5.12-.29-3.53-4.85-5.32-7.41-5.12A7.23,7.23,0,0,0,169.9,80a9.21,9.21,0,0,0-.05,7,18.1,18.1,0,0,0,4.12,6,36.36,36.36,0,0,0,9.18,6.31,36.54,36.54,0,0,0,9.18-6.31,17.92,17.92,0,0,0,4.11-6A9.16,9.16,0,0,0,196.4,80Z" style="fill:#FF725E"></path><path d="M124.94,234.31a3.67,3.67,0,0,0-3-2.12c-1.3-.1-3.62.81-3.76,2.6-.15-1.79-2.47-2.7-3.77-2.6a3.7,3.7,0,0,0-3,2.12,4.72,4.72,0,0,0,0,3.58,9.06,9.06,0,0,0,2.09,3.07,18.63,18.63,0,0,0,4.67,3.21,18.76,18.76,0,0,0,4.66-3.21,9.06,9.06,0,0,0,2.09-3.07A4.63,4.63,0,0,0,124.94,234.31Z" style="fill:#FF725E"></path><path d="M404.15,221.72a8.64,8.64,0,0,0-7-5c-3.06-.23-8.49,1.9-8.84,6.11-.34-4.21-5.78-6.34-8.84-6.11a8.63,8.63,0,0,0-7,5,11,11,0,0,0-.05,8.4,21.22,21.22,0,0,0,4.91,7.21,43.33,43.33,0,0,0,10.94,7.52,43.38,43.38,0,0,0,11-7.52,21.36,21.36,0,0,0,4.91-7.21A11,11,0,0,0,404.15,221.72Z" style="fill:#FF725E"></path></g><g id="freepik--Character--inject-124"><path d="M192.75,245.72c3.16-5.16,7.41-9.71,9.64-15.33a47.86,47.86,0,0,0,2.49-11.57c4-30.82-29-13.33,4.83-107.74h98.34a171.26,171.26,0,0,1,26.17,79.61c1,14.58.9,31.1,11.56,41.09,4.5,4.22,10.82,7.15,12.8,13,1.69,5-.43,10.52.52,15.7,1.12,6.07,6.13,10.52,9.83,15.47a40.44,40.44,0,0,1,7.95,24.85c-.1,4.26-1.18,9-4.74,11.31-2.21,1.44-4.95,1.69-7.58,1.89-57.45,4.44-115.53,8.86-172.45-.13-3-11.3-6-22.7-6.63-34.38S186.66,255.7,192.75,245.72Z" style="fill:#263238"></path><path d="M336,320.39s.09-.13.24-.39l.64-1.17A35.78,35.78,0,0,0,339,314.1a39.34,39.34,0,0,0,1.84-7.93,40.69,40.69,0,0,0-.09-10.78,38.77,38.77,0,0,0-4.08-12.4c-2.2-4.17-5.26-8.21-7.34-13A25.46,25.46,0,0,1,328,266.2a21.37,21.37,0,0,1-.52-4,34.48,34.48,0,0,1,1-8.31c.6-2.8,1.39-5.62,2-8.52a39,39,0,0,0,1-9c-.11-6.16-1.66-12-3.36-17.48s-3.62-10.69-5-15.78A158.43,158.43,0,0,1,318,175.6a164.39,164.39,0,0,1-.65-18.87c.07-2.23.13-4,.21-5.13,0-.57,0-1,.06-1.34s0-.46,0-.46a4.35,4.35,0,0,0-.05.46c0,.32-.07.76-.11,1.33-.11,1.17-.21,2.9-.3,5.13a152.26,152.26,0,0,0,.49,18.91,156,156,0,0,0,5,27.59c1.38,5.1,3.25,10.33,5,15.8s3.22,11.26,3.32,17.33-1.78,11.8-3,17.41a34.81,34.81,0,0,0-.95,8.44,21.51,21.51,0,0,0,.54,4.1,25.82,25.82,0,0,0,1.28,3.84c2.12,4.89,5.2,8.92,7.39,13a38.52,38.52,0,0,1,4.1,12.26,40.64,40.64,0,0,1-1.58,18.6,41.37,41.37,0,0,1-2,4.74c-.25.51-.45.91-.6,1.19Z" style="fill:#455a64"></path><path d="M205.45,134.72c1.12-17.27,12.61-38.43,29.81-36.57l39.8,10.15c12.77,3.26,21.28,14,22.21,27.19.05.65.12-.15.11.35l-6.69,101.43L258.61,298.2h0L232.25,242c0-8.4,0-21.12,0-21.08s-22.06-3.71-26.56-32.5C203.43,174.14,204.2,153.9,205.45,134.72Z" style="fill:#ffbf9d"></path><path d="M217,159.33a3.69,3.69,0,0,0,3.55,3.74,3.53,3.53,0,0,0,3.81-3.32,3.7,3.7,0,0,0-3.55-3.74A3.53,3.53,0,0,0,217,159.33Z" style="fill:#263238"></path><path d="M209.77,146c.46.49,3.26-1.58,7.23-1.56s6.88,2,7.31,1.53c.21-.22-.25-1.09-1.52-2a10.05,10.05,0,0,0-5.85-1.82,9.74,9.74,0,0,0-5.76,1.84C210,144.91,209.54,145.78,209.77,146Z" style="fill:#263238"></path><path d="M253.21,160.2a3.68,3.68,0,0,0,3.55,3.73,3.53,3.53,0,0,0,3.81-3.32,3.69,3.69,0,0,0-3.55-3.73A3.52,3.52,0,0,0,253.21,160.2Z" style="fill:#263238"></path><path d="M247.49,146c.46.49,3.26-1.58,7.23-1.56s6.88,2,7.31,1.53c.21-.22-.24-1.09-1.52-2a10,10,0,0,0-5.85-1.82,9.73,9.73,0,0,0-5.75,1.84C247.69,144.91,247.27,145.78,247.49,146Z" style="fill:#263238"></path><path d="M235.07,177.19c0-.23-2.45-.66-6.45-1.18-1-.11-2-.31-2.14-1s.19-1.83.69-3c1-2.45,2-5,3-7.71,4.19-11,7.23-20,6.78-20.19s-4.2,8.61-8.39,19.59l-2.89,7.77c-.38,1.15-1.05,2.45-.53,4a2.51,2.51,0,0,0,1.66,1.48,6.86,6.86,0,0,0,1.72.25C232.56,177.39,235.06,177.42,235.07,177.19Z" style="fill:#263238"></path><path d="M270.4,210.72s-9.37,19.77-38.17,17V221A72.46,72.46,0,0,0,270.4,210.72Z" style="fill:#ff9a6c"></path><path d="M248.74,131.64c.39,1.08,4.35.58,9,1.15s8.43,1.85,9.05.88c.28-.46-.38-1.48-1.89-2.53a15.83,15.83,0,0,0-13.76-1.55C249.43,130.28,248.57,131.13,248.74,131.64Z" style="fill:#263238"></path><path d="M211.06,133.84c.7.91,3.44,0,6.73-.06s6.08.62,6.72-.32c.28-.46-.16-1.37-1.37-2.22a9.74,9.74,0,0,0-10.83.31C211.14,132.47,210.76,133.4,211.06,133.84Z" style="fill:#263238"></path><path d="M244.84,184.73a7.68,7.68,0,0,1-3.84,12,4.47,4.47,0,0,1-2.89,0c-1.62-.61-2.43-2.39-3.07-4-.54-1.33-1.07-2.67-1.61-4a1.78,1.78,0,0,1-.15-1.4,1.85,1.85,0,0,1,1.3-.77l10-2.39" style="fill:#ff9a6c"></path><path d="M238.33,196.29c0,.1,1.76.3,4.52-.57a7.09,7.09,0,0,0,4-3.22,5.32,5.32,0,0,0,.61-3.08,9,9,0,0,0-.79-3.18,8.31,8.31,0,0,0-1.87-2.59l-.26-.24-.33.12c-6.59,2.32-11.75,3.5-11.69,3.78s5.35-.42,12.07-2.68l-.59-.12a7.21,7.21,0,0,1,1.58,2.23c.76,1.78,1.06,3.84.3,5.25a6.6,6.6,0,0,1-3.3,2.95C240.07,195.94,238.28,196.07,238.33,196.29Z" style="fill:#263238"></path><path d="M248.68,82.29c17.45-1.58,34.63,1.39,47.81,12.93,12.1,10.59,17.79,20.74,19.69,37.19.65,5.64-1.05,18.25-3,23.56s-7.57,18.81-12.78,21.05-8.32-6.67-12.26-10.75c-2.42-2.49-3.63-5.87-4.83-9.13-5-13.76-11-27.48-20.4-38.7S240,98.64,225.36,98l-9.32.33C227.24,86.08,237.18,83.34,248.68,82.29Z" style="fill:#455a64"></path><path d="M216,97.64c5.88-6,13.79-9.6,21.92-11.6a55,55,0,0,1,21.52-1.12h0c16,0,36.53,22.6,40.29,38.14,1.79,7.42,1.19,15.19.25,22.76-.47,3.85-1.05,7.76-2.72,11.25s-4.63,6.58-8.41,7.49-8.27-.91-9.62-4.54c-1-2.73-.18-5.87-1.14-8.62-2.21-6.28-11.85-6.7-15-12.59-2.24-4.25-.24-9.88-2.69-14s-7.78-4.81-12.17-6.5a24.64,24.64,0,0,1-14.77-16.92h-.36c-17.44.47-25.68,28.16-27.85,35.8C203.16,126.28,208.21,105.55,216,97.64Z" style="fill:#263238"></path><path d="M288.71,103.93a3.23,3.23,0,0,0-.55.07l-1.58.28c-.69.14-1.53.29-2.51.43s-2.08.35-3.32.49c-2.46.34-5.42.6-8.7.79s-6.91.18-10.7,0-7.4-.55-10.65-1-6.18-1-8.6-1.58c-1.22-.26-2.31-.55-3.26-.79s-1.79-.46-2.46-.66l-1.54-.43a3.8,3.8,0,0,0-.55-.12,2.06,2.06,0,0,0,.52.22l1.52.52c.66.22,1.47.48,2.43.74s2,.59,3.26.86c2.42.62,5.34,1.18,8.61,1.7s6.88.86,10.7,1.05,7.44.11,10.74-.06,6.26-.51,8.73-.9c1.24-.16,2.35-.38,3.32-.56s1.82-.35,2.49-.52l1.57-.37A1.82,1.82,0,0,0,288.71,103.93Z" style="fill:#455a64"></path><path d="M296.24,114a3.17,3.17,0,0,0-.66.16l-1.87.55-1.34.41c-.49.14-1,.25-1.62.39-1.17.26-2.48.64-4,.84l-2.33.39c-.81.14-1.67.18-2.55.28-1.76.22-3.65.24-5.64.3a68.37,68.37,0,0,1-12.85-1.27,69.86,69.86,0,0,1-12.34-3.86L248.42,111c-.87-.37-1.65-.85-2.44-1.25s-1.55-.78-2.25-1.22l-2-1.23c-1.3-.75-2.38-1.6-3.37-2.27-.49-.34-1-.65-1.36-1l-1.1-.87-1.54-1.19a4.46,4.46,0,0,0-.55-.4s.15.18.49.47.86.75,1.47,1.27l1.08.91c.4.33.86.64,1.34,1,1,.69,2.05,1.56,3.35,2.34l2,1.26c.7.45,1.48.82,2.25,1.26s1.58.9,2.45,1.28l2.66,1.22a68.35,68.35,0,0,0,12.42,3.92,66.13,66.13,0,0,0,13,1.24c2-.07,3.9-.11,5.67-.35.89-.11,1.75-.15,2.56-.31l2.34-.42a38.93,38.93,0,0,0,4-.92c.58-.15,1.13-.27,1.62-.43l1.33-.45,1.84-.65A4,4,0,0,0,296.24,114Z" style="fill:#455a64"></path><path d="M288.24,162.39c.1-2,2.61-6.47,4.57-6.67,5.21-.54,14.52.36,13.92,13.51-.81,18-18.69,13.45-18.7,12.93S287.87,169.16,288.24,162.39Z" style="fill:#ffbf9d"></path><path d="M293.83,175.6c.08,0,.3.23.82.5a3.13,3.13,0,0,0,2.34.15c1.93-.61,3.67-3.55,3.9-6.78a10.39,10.39,0,0,0-.67-4.53,3.62,3.62,0,0,0-2.25-2.51,1.59,1.59,0,0,0-1.88.77c-.27.5-.17.86-.27.89s-.37-.32-.19-1.06a2,2,0,0,1,.76-1.09,2.38,2.38,0,0,1,1.75-.38,4.43,4.43,0,0,1,3.15,2.94,10.67,10.67,0,0,1,.85,5.06c-.28,3.61-2.28,6.92-4.92,7.55a3.35,3.35,0,0,1-2.84-.61C293.84,176,293.77,175.63,293.83,175.6Z" style="fill:#ff9a6c"></path><path d="M297.35,180.21a4.54,4.54,0,1,1-.66-.19" style="fill:#e0e0e0"></path><path d="M212.6,238l24.55-5.31,53.55-1.14,21.07,7.07s-18.42,19.69-34,21.7c-15.19,2-39.38,2.71-49-3.27S212.6,238,212.6,238Z" style="fill:#ffbf9d"></path><path d="M341.11,377l-7.88-55.66L383,327.82l-14-43.05c-3.54-11.46-10.43-27.39-17.31-32.83-9.12-7.22-26-14.69-46.71-16.9,0,0-14.27,20.18-48.61,18.68S215,236.18,215,236.18c-1.18.74-34.07,9-44.65,17.92s-19.58,40.32-19.58,40.32l39.8,74.81s-23,48-23.44,97.66H362.37s-10.58-32.57-15.9-60.54C344.35,395.23,341.11,377,341.11,377Z" style="fill:#455a64"></path><path d="M314,237.93a1.76,1.76,0,0,1-.08.33c-.07.24-.17.55-.28.94a29.08,29.08,0,0,1-1.36,3.54,32.1,32.1,0,0,1-3.06,5.17,34.94,34.94,0,0,1-5.34,5.9,46.21,46.21,0,0,1-18.1,9.77,64.87,64.87,0,0,1-12.05,2.07,92.64,92.64,0,0,1-13.12,0c-4.48-.31-8.84-.84-13-1.46s-8.22-1.29-12-2.14a63.44,63.44,0,0,1-19.32-7.25,39,39,0,0,1-10.51-9.09,24.08,24.08,0,0,1-2.8-4.28s.08.09.2.27l.53.83a34.3,34.3,0,0,0,2.23,3.05,39.38,39.38,0,0,0,10.54,8.9,64,64,0,0,0,19.23,7.11c3.79.83,7.81,1.49,12,2.1s8.53,1.13,13,1.44a93,93,0,0,0,13,0,64.61,64.61,0,0,0,12-2,46.29,46.29,0,0,0,18-9.59,35.43,35.43,0,0,0,5.34-5.79,33.37,33.37,0,0,0,3.12-5.08,34,34,0,0,0,1.44-3.49c.13-.39.24-.69.33-.93A1.72,1.72,0,0,1,314,237.93Z" style="fill:#263238"></path><path d="M300.07,381l-.2.13-.6.32-2.34,1.18c-2,1-5,2.45-8.72,4.15-7.41,3.38-17.81,7.73-29.56,11.79s-22.63,7.05-30.56,8.95c-4,1-7.17,1.67-9.41,2.11l-2.57.51-.67.12a.87.87,0,0,1-.24,0l.22-.07.67-.17,2.55-.61c2.22-.5,5.42-1.27,9.37-2.27,7.89-2,18.72-5,30.47-9.08s22.14-8.34,29.58-11.64c3.72-1.65,6.72-3,8.78-4l2.38-1.1.63-.27C300,381,300.06,381,300.07,381Z" style="fill:#263238"></path><path d="M303.28,363.53a5.18,5.18,0,0,1-.71.45l-2.09,1.22c-1.82,1.05-4.48,2.51-7.81,4.27-6.64,3.51-16,8.08-26.55,12.5s-20.41,7.84-27.58,10.09c-3.58,1.13-6.5,2-8.52,2.55l-2.34.63a6.78,6.78,0,0,1-.82.19,4.3,4.3,0,0,1,.79-.29l2.31-.73c2-.61,4.9-1.53,8.47-2.7,7.13-2.33,16.91-5.81,27.48-10.22s19.92-8.92,26.6-12.35c3.34-1.71,6-3.12,7.87-4.12l2.14-1.13A5.19,5.19,0,0,1,303.28,363.53Z" style="fill:#263238"></path><path d="M220.07,243a42.28,42.28,0,0,1-5.78,3,40.15,40.15,0,0,1-6,2.53,41.76,41.76,0,0,1,5.77-3A40,40,0,0,1,220.07,243Z" style="fill:#263238"></path><path d="M220,256.38a33.33,33.33,0,0,1,9.2-8c.08.12-2.09,1.75-4.63,4S220.09,256.48,220,256.38Z" style="fill:#263238"></path><path d="M232.66,261.76a64.74,64.74,0,0,1,5.16-10.31,31.56,31.56,0,0,1-2.34,5.27A32.3,32.3,0,0,1,232.66,261.76Z" style="fill:#263238"></path><path d="M248,263.87a32.3,32.3,0,0,1,2-10.4,40.43,40.43,0,0,1-.93,5.22A40.51,40.51,0,0,1,248,263.87Z" style="fill:#263238"></path><path d="M260.59,265a29.23,29.23,0,0,1-.13-5.45,29.45,29.45,0,0,1,.38-5.45,27.8,27.8,0,0,1,.14,5.46A27.87,27.87,0,0,1,260.59,265Z" style="fill:#263238"></path><path d="M274.51,263.72a27,27,0,0,1-1.39-5.07,26.4,26.4,0,0,1-.88-5.18,27,27,0,0,1,1.39,5.07A27.33,27.33,0,0,1,274.51,263.72Z" style="fill:#263238"></path><path d="M286.63,263.38a7.13,7.13,0,0,1-1-1.8,39.25,39.25,0,0,1-1.72-4.61,40.17,40.17,0,0,1-1.14-4.79,7.21,7.21,0,0,1-.19-2c.15,0,.71,3,1.83,6.68S286.77,263.31,286.63,263.38Z" style="fill:#263238"></path><path d="M298.07,257.58c-.14.06-1.58-2.53-3.56-5.62s-3.73-5.49-3.61-5.58a27.47,27.47,0,0,1,4.05,5.3A28.12,28.12,0,0,1,298.07,257.58Z" style="fill:#263238"></path><path d="M309,250.12a41,41,0,0,1-4.31-4.82,40,40,0,0,1-3.91-5.16,81.72,81.72,0,0,1,8.22,10Z" style="fill:#263238"></path><path d="M206.33,314.18a43.51,43.51,0,0,1,13.34-20.54c5.7-4.9,12.1-10.27,13.76-11.16a24.9,24.9,0,0,1,7.74-2.17s38.94-6.29,46.93-5.81,6.29,8.23-1.21,8.47-23.95,5.31-23.95,5.31a5.17,5.17,0,0,1,2.9,5.33c-.24,4.11-2.66,4.6-2.66,4.6s1.69,3.63,1.45,5.8-2.42,5.06-2.42,5.06,2.42,3.17,1.21,6.07-5.56,6.53-5.56,6.53-17.45,9.68-20.94,9.44a71,71,0,0,0-7.61,0l-3.38,3.39-19.6-20.32Z" style="fill:#ffbf9d"></path><path d="M263,288.1a11.62,11.62,0,0,1-3.36.52,11.46,11.46,0,0,1-3.39,0,10.83,10.83,0,0,1,3.35-.52A11.52,11.52,0,0,1,263,288.1Z" style="fill:#ff9a6c"></path><path d="M263.43,298.18a15.18,15.18,0,0,1-3.29.74,15,15,0,0,1-3.33.5,9,9,0,0,1,3.24-1A8.92,8.92,0,0,1,263.43,298.18Z" style="fill:#ff9a6c"></path><path d="M263.29,307.64a21.91,21.91,0,0,1-3.59,1.22,22.29,22.29,0,0,1-3.65,1.08,10.56,10.56,0,0,1,3.49-1.58A10.39,10.39,0,0,1,263.29,307.64Z" style="fill:#ff9a6c"></path><g style="opacity:0.30000000000000004"><path d="M174.9,426.24a64,64,0,0,0,20-7.66c11.19-6.62,20.13-16.57,27.22-27.47s12.46-22.83,17.8-34.69l-6.37-3.7L180,395.64l-5.07,19.24Z" style="fill:#263238"></path></g><path d="M150.73,294.94s-16.39,53.18-18.26,60.67-4.87,28.45-1.87,39.31,14.34,30.34,30,28.83,24.91-9.34,37.1-19.2c16.39-13.27,40.6-56.44,39.27-56.8L207,305.07l-29.19,34.12Z" style="fill:#455a64"></path><path d="M160.48,358.32s.06-.09.2-.26l.64-.76,2.5-2.92,9.5-11,33.47-38.49.2-.23.17.25c8.69,12.36,18.43,26.23,28.69,40.84l1.28,1.83.09.13-.07.13c-7.34,14.67-15.21,28.24-23.82,39.54A140.47,140.47,0,0,1,200,402.51,115.09,115.09,0,0,1,186.81,414c-8.68,6.34-17.17,9.21-23.12,9.77l-2.11.23-1.86.05-1.59,0-1.31-.08-1.79-.12c-.4,0-.6-.06-.6-.06s.2,0,.61,0l1.78.07,1.31,0,1.59-.06,1.85-.08,2.09-.25c5.91-.62,14.33-3.52,22.94-9.86a114.84,114.84,0,0,0,13.12-11.51A140.68,140.68,0,0,0,213,387.11c8.56-11.28,16.4-24.83,23.74-39.48l0,.27-1.29-1.83L206.78,305.2l.37,0-33.62,38.37-9.59,10.89-2.56,2.87-.67.73A2.92,2.92,0,0,1,160.48,358.32Z" style="fill:#263238"></path><path d="M148.05,356.82a5.33,5.33,0,0,1,.68-1c.23-.32.55-.68.92-1.1s.81-.89,1.32-1.38a41.89,41.89,0,0,1,8.91-6.46,43.42,43.42,0,0,1,10.22-4.08c.69-.17,1.31-.31,1.87-.39a12,12,0,0,1,1.42-.2,5.45,5.45,0,0,1,1.23-.06c0,.1-1.73.25-4.42,1a48.73,48.73,0,0,0-10.07,4.18,46.56,46.56,0,0,0-8.91,6.27C149.16,355.47,148.13,356.88,148.05,356.82Z" style="fill:#263238"></path><path d="M180.36,335.55a9.93,9.93,0,0,1-1-1.33c-.59-.87-1.43-2.15-2.42-3.75-2-3.21-4.61-7.73-7.25-12.85s-4.84-9.85-6.38-13.29c-.78-1.73-1.39-3.12-1.79-4.1a10.58,10.58,0,0,1-.59-1.53,9.18,9.18,0,0,1,.77,1.45l1.94,4c1.63,3.4,3.88,8.1,6.51,13.21s5.19,9.65,7.1,12.9l2.28,3.83A9.3,9.3,0,0,1,180.36,335.55Z" style="fill:#263238"></path><path d="M337.29,201.05l11.15,13.61a8.82,8.82,0,0,1,2.27,5.35c.31,5,.83,14.59.25,16.07-.79,2-10,24.84-9.8,28s1.27,9.22,1.27,9.22l-28.2,7.93s-2.12-11.23-3.14-17.07-.13-21.1-.13-21.1-.57-4.19-.95-5.41-2.55-4.56-2.12-7.61a5.23,5.23,0,0,1,3.07-4l2.07-.5a4.16,4.16,0,0,1,2-2.83c1.77-1.1,5.86-.81,5.86-.81s.35-3.67,3.4-4.73a5.58,5.58,0,0,1,5.23.77s-.1-3.82,2.35-4.59a6.51,6.51,0,0,1,4.78.63s-2.72-5-2-9.06C335.39,201.05,337.29,201.05,337.29,201.05Z" style="fill:#ffbf9d"></path><path d="M319.36,233.38c-.08,0-.12-.6-.43-1.48a8.8,8.8,0,0,0-2-3.06,21.21,21.21,0,0,0-2.85-2.37c-.78-.57-1.25-.93-1.21-1a4.78,4.78,0,0,1,1.41.69,14.41,14.41,0,0,1,3,2.32,7.65,7.65,0,0,1,1.93,3.31A2.72,2.72,0,0,1,319.36,233.38Z" style="fill:#ff9a6c"></path><path d="M326.29,227.52c-.13.08-1.09-1.25-2.52-2.66s-2.76-2.37-2.68-2.5a8,8,0,0,1,3.05,2.13A7.87,7.87,0,0,1,326.29,227.52Z" style="fill:#ff9a6c"></path><path d="M333.65,223.72a21.27,21.27,0,0,1-2.23-3,21,21,0,0,1-2.11-3.13,16.34,16.34,0,0,1,4.34,6.17Z" style="fill:#ff9a6c"></path><path d="M345.9,224.94a23.4,23.4,0,0,0-3.64-6.33,27.7,27.7,0,0,0-5.65-4.66,6.09,6.09,0,0,1,2,.91,16.26,16.26,0,0,1,4,3.41,15.47,15.47,0,0,1,2.73,4.54A5.94,5.94,0,0,1,345.9,224.94Z" style="fill:#ff9a6c"></path><path d="M329.13,230.83a6.35,6.35,0,0,0-5.55,3.74c-.06,0-.05-.44.22-1.08a5,5,0,0,1,1.72-2,4.87,4.87,0,0,1,2.53-.84C328.73,230.62,329.14,230.77,329.13,230.83Z" style="fill:#ff9a6c"></path><path d="M338.44,226.06c0,.08-.43-.06-1.07-.13a4.76,4.76,0,0,0-4.4,1.89c-.39.52-.56.9-.64.87s0-.46.34-1.07a4.41,4.41,0,0,1,2-1.82,4.35,4.35,0,0,1,2.72-.23C338.12,225.74,338.47,226,338.44,226.06Z" style="fill:#ff9a6c"></path><path d="M320.19,235.09a6.72,6.72,0,0,0-2.66.9,6.86,6.86,0,0,0-1.76,2.19c-.07,0-.09-.37.1-.9a3.71,3.71,0,0,1,1.37-1.72,3.66,3.66,0,0,1,2.07-.68C319.88,234.88,320.21,235,320.19,235.09Z" style="fill:#ff9a6c"></path><path d="M312.62,272.63s4.9,23,5.86,27.38,9.92,53.51,9.92,53.51l.39,2.87,22,13.66c.55.11,7.4-18.36,7.4-18.36l6.76-21.35s-6.23-13.7-8.71-20-16-48.18-16-48.18l-14.2,10.47Z" style="fill:#ffbf9d"></path><rect x="341.64" y="273.79" width="6.38" height="8.24" transform="translate(-57.57 92.93) rotate(-14.18)" style="fill:#FF725E"></rect><path d="M348.93,281.13a23.65,23.65,0,0,1-.69-2.27c-.4-1.4-.95-3.35-1.56-5.66l.29.17L340.79,275l.19-.31h0v.13l0,.13.07.28.14.55.27,1.08q.25,1.06.51,2.07c.33,1.34.63,2.59.91,3.74l-.26-.15c1.83-.44,3.36-.78,4.46-1a12.85,12.85,0,0,1,1.78-.34,12.1,12.1,0,0,1-1.6.51c-1.06.31-2.62.75-4.53,1.26l-.21.05,0-.21c-.31-1.15-.63-2.4-1-3.72-.17-.68-.35-1.37-.53-2.08-.09-.35-.18-.71-.28-1.07l-.14-.55-.07-.28,0-.14,0-.07v-.05h0c-.16.28.23-.39.19-.32l6.19-1.54.23-.05.06.22c.59,2.43,1.05,4.47,1.36,5.87A18.63,18.63,0,0,1,348.93,281.13Z" style="fill:#263238"></path><path d="M344.62,282.18a8.94,8.94,0,0,1-.81-2.29l0-.12.09-.1.77-.83-.06.23-.26-1c-.1-.4-.19-.78-.28-1.16l.14.17-1.12-.54-.1-.05,0-.1a7.06,7.06,0,0,1-.31-2.14,7.08,7.08,0,0,1,.74,2l-.13-.14,1.15.48.1.05,0,.12c.09.38.19.76.3,1.15l.24,1,0,.14-.09.1-.81.8.05-.21A8.18,8.18,0,0,1,344.62,282.18Z" style="fill:#263238"></path><path d="M346.8,281.63a8.29,8.29,0,0,1-.82-2.29l0-.12.09-.09.77-.84-.06.23c-.08-.32-.17-.64-.25-1s-.19-.78-.29-1.16l.14.17-1.11-.54-.11-.05,0-.1a7,7,0,0,1-.31-2.14,7.08,7.08,0,0,1,.74,2l-.12-.14,1.14.48.11.05,0,.12.3,1.15q.12.51.24,1l0,.14-.1.1-.81.8.06-.21A8.62,8.62,0,0,1,346.8,281.63Z" style="fill:#263238"></path><path d="M335.94,272.17l4.45.68a2.93,2.93,0,0,1,1.94,1.4l0,0-3.25.82-3.59-2.3Z" style="fill:#FF725E"></path><path d="M335.94,272.17a2.87,2.87,0,0,1-.34.7l0-.16c.75.41,2.07,1.2,3.66,2.2l-.19,0,2.58-.66.67-.17-.16.38a2.75,2.75,0,0,0-2-1.38l-2.14-.39a12,12,0,0,1-2-.48,8.69,8.69,0,0,1,2,.13l2.26.28a3.2,3.2,0,0,1,2.4,1.58l.17.3-.33.08-.67.17-2.59.64-.1,0-.09-.05c-1.57-1-2.83-1.9-3.52-2.42l-.1-.07.06-.09C335.75,272.32,335.93,272.13,335.94,272.17Z" style="fill:#263238"></path><g style="opacity:0.30000000000000004"><path d="M339.94,274.9a12.24,12.24,0,0,0-3-2.57l-1-.16,2.64,2.35.52.59Z"></path></g><path d="M340.49,286.92l3.18-2.53a2.94,2.94,0,0,0,1-2.15v-.05l-3.25.82-2.07,3.74Z" style="fill:#FF725E"></path><path d="M340.49,286.92a3.76,3.76,0,0,1-1.12,0l-.18,0,.09-.18c.4-.85,1.1-2.2,2-3.79l.05-.09.11,0,2.2-.57,1-.26.33-.08v.34a3.17,3.17,0,0,1-1.22,2.42l-1.7,1.28a7.63,7.63,0,0,1-1.56,1,8.29,8.29,0,0,1,1.41-1.33c.76-.82,2.56-1.57,2.55-3.41l.33.26-1,.27-2.21.54.16-.12c-.9,1.58-1.67,2.89-2.17,3.68l-.1-.2A4.12,4.12,0,0,1,340.49,286.92Z" style="fill:#263238"></path><g style="opacity:0.30000000000000004"><path d="M340.56,286.87l.41-.34a5.37,5.37,0,0,0,1-3.65l-.53.13-1.06,3.22Z"></path></g><path d="M341.56,273.74c-.08.12-.47,0-.9-.19s-.8-.36-.77-.51.47-.17,1,0S341.64,273.62,341.56,273.74Z" style="fill:#fff"></path><path d="M344.18,282.88c.13.05.12.44-.15.8s-.63.5-.72.39.09-.39.3-.69S344,282.83,344.18,282.88Z" style="fill:#fff"></path><rect x="313.92" y="280.85" width="6.38" height="8.24" transform="translate(-60.14 86.36) rotate(-14.18)" style="fill:#FF725E"></rect><path d="M315,289.74a17.35,17.35,0,0,1-.66-2.11c-.39-1.39-1-3.4-1.59-5.82l-.06-.22.23-.06,6.18-1.59.32.19h0v.06l0,.07,0,.13.07.28.13.55.27,1.08.52,2.07c.32,1.34.63,2.59.91,3.74l.05.22-.21.05c-1.92.46-3.5.81-4.58,1a11.83,11.83,0,0,1-1.65.31,15,15,0,0,1,1.73-.54c1.07-.32,2.58-.75,4.4-1.23l-.16.26c-.3-1.15-.62-2.4-1-3.72-.18-.68-.35-1.37-.54-2.08l-.27-1.07-.14-.55-.07-.28,0-.14,0-.07v-.05h0c-.28-.17.39.22.32.18L313.07,282l.17-.28c.56,2.32,1,4.3,1.32,5.72S315.05,289.7,315,289.74Z" style="fill:#263238"></path><path d="M319.32,288.62a8.13,8.13,0,0,1-.82-2.29l.15.17-1.09-.33-.13,0,0-.14c-.08-.32-.17-.65-.26-1s-.19-.78-.28-1.16l0-.12.07-.09.78-1,0,.18a7,7,0,0,1-.31-2.13,6.77,6.77,0,0,1,.74,2l0,.09-.07.09-.72,1,0-.21.3,1.15.24,1-.17-.18,1.08.37.13,0,0,.12A8.66,8.66,0,0,1,319.32,288.62Z" style="fill:#263238"></path><path d="M317.14,289.17a8,8,0,0,1-.81-2.29l.15.17-1.1-.33-.13,0,0-.14-.25-1c-.1-.4-.19-.78-.28-1.16l0-.12.07-.09.77-1,0,.18a6.87,6.87,0,0,1-.32-2.13,6.77,6.77,0,0,1,.74,2l0,.09-.06.09-.73,1,0-.21.3,1.15c.09.34.17.66.25,1l-.17-.18,1.08.37.12,0,0,.12A8.22,8.22,0,0,1,317.14,289.17Z" style="fill:#263238"></path><path d="M322,275.73l-3.6,2.71a3,3,0,0,0-1,2.16v0l3.25-.82,2.07-3.74Z" style="fill:#FF725E"></path><path d="M322,275.73a2.47,2.47,0,0,1,.73.26l.1,0-.05.12c-.36.77-1.06,2.14-2,3.79l0,.1-.11,0-2.58.67-.67.17-.33.08v-.34a3.16,3.16,0,0,1,1.36-2.53l1.85-1.32a9.83,9.83,0,0,1,1.69-1.06,11.52,11.52,0,0,1-1.57,1.39c-.52.43-1.09.88-1.69,1.36a2.74,2.74,0,0,0-1.12,2.18l-.32-.26.67-.17,2.58-.64-.15.12c.93-1.64,1.71-2.95,2.18-3.67l.05.15A2.47,2.47,0,0,1,322,275.73Z" style="fill:#263238"></path><g style="opacity:0.30000000000000004"><path d="M319.81,280a12,12,0,0,1,1.39-3.68l.83-.63-1.21,3.33-.18.77Z"></path></g><path d="M325.24,290.87l-4.19-.71a3,3,0,0,1-1.94-1.41l0,0,3.25-.82,3.59,2.31Z" style="fill:#FF725E"></path><path d="M325.24,290.87a3.09,3.09,0,0,1,.61-.76l0,.19c-.8-.44-2.11-1.23-3.66-2.2l.19,0-2.36.61-.89.22.16-.38a2.78,2.78,0,0,0,1.93,1.38l2.06.41a10.86,10.86,0,0,1,1.94.5,8.3,8.3,0,0,1-1.91-.15l-2.17-.31a3.13,3.13,0,0,1-2.29-1.57l-.17-.29.33-.09.89-.22,2.36-.59.1,0,.09.05c1.54,1,2.8,1.87,3.53,2.41l.14.1-.12.1C325.52,290.72,325.25,290.91,325.24,290.87Z" style="fill:#263238"></path><g style="opacity:0.30000000000000004"><path d="M325.15,290.85l-.71-.09a5.34,5.34,0,0,1-2.63-2.73l.53-.14,2.46,2.34Z"></path></g><path d="M317.83,279.78c-.13-.06,0-.5.3-.91s.75-.6.83-.49-.13.45-.43.81S318,279.85,317.83,279.78Z" style="fill:#fff"></path><path d="M319.89,289.07c.1-.11.4,0,.73.17s.61.32.59.46-.4.2-.81,0S319.79,289.17,319.89,289.07Z" style="fill:#fff"></path><path d="M329.62,269.92l.31,1.22-2.72.68-.31-1.21A6.23,6.23,0,0,1,329.62,269.92Z" style="fill:#FF725E"></path><path d="M329.62,269.92a21.69,21.69,0,0,0-2.6.9l.12-.27c.11.39.21.79.32,1.2h0l-.31-.19c1.05-.27,2-.48,2.74-.62l-.14.23a5.4,5.4,0,0,1-.13-1.26c0-.06.23.35.49,1.17l.06.17-.19.06c-.69.22-1.65.49-2.71.76l-.25.06-.06-.25h0l-.29-1.21-.05-.19.17-.09a5.29,5.29,0,0,1,2-.55,5.4,5.4,0,0,1,.6,0C329.58,269.87,329.64,269.9,329.62,269.92Z" style="fill:#263238"></path><path d="M327.6,270.32c.14,0,.33.22.42.58s.05.67-.09.71-.33-.23-.42-.58S327.46,270.35,327.6,270.32Z" style="fill:#263238"></path><path d="M328.32,270.14c.14,0,.33.22.42.58s.05.67-.09.71-.33-.23-.42-.58S328.18,270.17,328.32,270.14Z" style="fill:#263238"></path><path d="M329,270c.14,0,.33.22.42.58s.05.67-.09.71-.33-.23-.42-.58S328.87,270,329,270Z" style="fill:#263238"></path><circle cx="331.01" cy="281.76" r="10.79" transform="translate(-23.04 533.97) rotate(-75.87)" style="fill:#FF725E"></circle><path d="M328.37,271.31a19.87,19.87,0,0,0-2.42,1.06,10.77,10.77,0,0,0-4.68,5.24,10.57,10.57,0,0,0,1,10.06,10.06,10.06,0,0,0,2,2.23,9.78,9.78,0,0,0,2.72,1.61,10.49,10.49,0,0,0,12.07-3.05,9.84,9.84,0,0,0,1.62-2.7,10,10,0,0,0,.75-2.94A10.67,10.67,0,0,0,331,271.09a22.42,22.42,0,0,0-2.64.22,8.21,8.21,0,0,1,2.64-.42,10.85,10.85,0,0,1,10,6.26,10.93,10.93,0,0,1,1,5.72,10.08,10.08,0,0,1-.76,3.08,10.72,10.72,0,0,1-1.69,2.84A11,11,0,0,1,326.86,292a10.22,10.22,0,0,1-2.83-1.69,10.55,10.55,0,0,1-2.14-2.35,11,11,0,0,1-1.85-5.5,10.92,10.92,0,0,1,5.81-10.25A8.23,8.23,0,0,1,328.37,271.31Z" style="fill:#263238"></path><path d="M328.51,271.86a10.22,10.22,0,1,1-7.4,12.41A10.22,10.22,0,0,1,328.51,271.86Z" style="fill:#fff"></path><path d="M324.22,283.51c0,.14-.24.33-.62.42s-.71.06-.74-.08.24-.33.62-.42S324.19,283.37,324.22,283.51Z" style="fill:#FF725E"></path><path d="M324.31,280c0,.13-.37.16-.74.06s-.65-.31-.61-.44.37-.17.75-.06S324.35,279.82,324.31,280Z" style="fill:#FF725E"></path><path d="M326.2,276.92c-.1.1-.4,0-.68-.3s-.42-.58-.32-.68.4,0,.68.3S326.3,276.82,326.2,276.92Z" style="fill:#FF725E"></path><path d="M337.71,280.07c0-.14.24-.33.61-.42s.71-.06.75.08-.24.33-.62.42S337.74,280.21,337.71,280.07Z" style="fill:#FF725E"></path><path d="M335.94,277c-.1-.1,0-.41.32-.68s.59-.4.69-.3-.05.41-.33.68S336,277.09,335.94,277Z" style="fill:#FF725E"></path><path d="M332.83,275.22c-.14-.05-.15-.38,0-.75s.32-.64.46-.6.16.38,0,.75S333,275.26,332.83,275.22Z" style="fill:#FF725E"></path><path d="M328.88,274c.14,0,.34.3.45.75s.1.84,0,.87-.35-.3-.46-.74S328.74,274,328.88,274Z" style="fill:#FF725E"></path><path d="M337.72,283.64c0-.14.37-.17.75-.06s.64.3.61.44-.38.16-.75.06S337.68,283.78,337.72,283.64Z" style="fill:#FF725E"></path><path d="M335.83,286.67c.1-.1.41,0,.69.31s.42.57.32.68-.41,0-.69-.31S335.73,286.78,335.83,286.67Z" style="fill:#FF725E"></path><path d="M326.1,286.6c.1.11-.05.41-.32.68s-.59.4-.69.3,0-.4.32-.67S326,286.5,326.1,286.6Z" style="fill:#FF725E"></path><path d="M329.2,288.38c.14,0,.16.38,0,.75s-.32.63-.45.59-.16-.38,0-.75S329.07,288.33,329.2,288.38Z" style="fill:#FF725E"></path><path d="M333.16,289.64c-.14,0-.35-.3-.46-.75s-.09-.83.05-.87.34.3.46.75S333.3,289.61,333.16,289.64Z" style="fill:#FF725E"></path><path d="M336.69,280h0a.07.07,0,0,0-.09-.05l-6.32,1.33.05.26,6.3-1.44A.08.08,0,0,0,336.69,280Z" style="fill:#e0e0e0"></path><path d="M330.3,281.49l1.54,3.89c0,.05-.06.09-.08,0l-2.08-3.69Z" style="fill:#FF725E"></path><polygon points="330.41 281.2 332.24 275.63 332.12 275.56 329.91 281.07 330.41 281.2" style="fill:#FF725E"></polygon><path d="M329.94,282a.51.51,0,0,1-.45-.54.5.5,0,0,1,1,.09A.51.51,0,0,1,329.94,282Z" style="fill:#FF725E"></path><path d="M329.94,282c0-.07.19-.11.28-.28a.29.29,0,1,0-.5-.05c.06.18.23.26.22.33s-.25.17-.53-.13a.69.69,0,0,1-.09-.68.73.73,0,0,1,1.38.13.66.66,0,0,1-.21.64C330.17,282.17,329.92,282,329.94,282Z" style="fill:#263238"></path><path d="M328.09,283.67c-.14,0-.39-.48-.56-1.15s-.19-1.23,0-1.27.39.48.56,1.15S328.23,283.63,328.09,283.67Z" style="fill:#e0e0e0"></path><path d="M327.72,284.9a5.82,5.82,0,0,1-.84-2.29,6,6,0,0,1-.35-2.42,11.34,11.34,0,0,1,1.19,4.71Z" style="fill:#e0e0e0"></path><path d="M317.68,314.7s-3.18,21.07-2.93,22.57,7.63,44.33,10.59,50.37,24.59,18.94,35.15,14.29,25.76-13.82,27-29.58,1.23-29-4.51-44.53-19.71-31.49-19.71-31.49Z" style="fill:#455a64"></path><path d="M355.78,402.91l-.54,0-1.58-.17a21.51,21.51,0,0,1-2.56-.39,30.9,30.9,0,0,1-3.45-.79l-2-.59-2.18-.83a24.31,24.31,0,0,1-2.32-1l-1.21-.59c-.41-.21-.81-.46-1.22-.69a40.63,40.63,0,0,1-10-8.16,46.91,46.91,0,0,1-8.18-13.34,162.38,162.38,0,0,1-4.92-17.35c-3-12.36-5.87-26.08-8.74-40.58l0-.22.21-.07,5.35-1.94c15.29-5.54,29.76-11,42.37-16.62l.15-.07.11.12a67.25,67.25,0,0,1,8.64,11.12c1.23,1.88,2.24,3.83,3.26,5.7s1.86,3.78,2.6,5.65a91.45,91.45,0,0,1,5.78,20.1,97,97,0,0,1,1.37,13.53c.07,1.58,0,2.79,0,3.61,0,.39,0,.7,0,.93s0,.31,0,.31a1.3,1.3,0,0,1,0-.31c0-.23,0-.54,0-.93,0-.82,0-2-.11-3.6a103.79,103.79,0,0,0-1.5-13.49,91.93,91.93,0,0,0-5.87-20c-.74-1.87-1.68-3.71-2.6-5.62s-2-3.79-3.26-5.66a67.48,67.48,0,0,0-8.61-11l.27.05c-12.62,5.7-27.09,11.14-42.38,16.68l-5.36,1.94.17-.3c2.86,14.49,5.74,28.21,8.68,40.57a167,167,0,0,0,4.86,17.31A46.58,46.58,0,0,0,329,389.39a40.17,40.17,0,0,0,9.83,8.15c.41.24.8.49,1.21.7l1.2.59a20.31,20.31,0,0,0,2.3,1.05l2.15.84,2,.61a31.06,31.06,0,0,0,3.43.83,20.38,20.38,0,0,0,2.54.43l1.58.23Z" style="fill:#263238"></path><g style="opacity:0.30000000000000004"><path d="M309.76,331.29l-2.61,8.38s4.62,46.34,16.33,57.95S347,408.48,347,408.48l-2-7.89s-19.15-6.31-25.63-29.46C314.05,352.16,309.76,331.29,309.76,331.29Z" style="fill:#263238"></path></g></g></svg>